<svg width="700" height="123" viewBox="0 0 700 123" fill="none" xmlns="http://www.w3.org/2000/svg">
<mask id="path-1-outside-1_100_294" maskUnits="userSpaceOnUse" x="-1" y="-1" width="702" height="125" fill="black">
<rect fill="white" x="-1" y="-1" width="702" height="125"/>
<path d="M24.22 122.55C17.6467 122.55 12.0933 120.68 7.56 116.94C3.14 113.2 0.93 107.817 0.93 100.79C0.93 95.4633 3.65 90.59 9.09 86.17C14.53 81.6367 23.0867 78.2367 34.76 75.97C36.5733 75.63 38.6133 75.29 40.88 74.95C43.1467 74.4967 45.5267 74.0433 48.02 73.59V60.16C48.02 52.4533 47.0567 47.07 45.13 44.01C43.3167 40.8367 40.4267 39.25 36.46 39.25C33.74 39.25 31.5867 40.1567 30 41.97C28.4133 43.67 27.3933 46.6733 26.94 50.98L26.6 52.85C26.3733 57.7233 25.1833 61.2933 23.03 63.56C20.8767 65.8267 18.2133 66.96 15.04 66.96C12.0933 66.96 9.65667 66.0533 7.73 64.24C5.80333 62.4267 4.84 59.99 4.84 56.93C4.84 52.2833 6.42667 48.3733 9.6 45.2C12.8867 42.0267 17.1933 39.6467 22.52 38.06C27.8467 36.4733 33.6267 35.68 39.86 35.68C49.9467 35.68 57.71 38.1733 63.15 43.16C68.7033 48.0333 71.48 56.0233 71.48 67.13V104.7C71.48 109.8 73.86 112.35 78.62 112.35H82.36L83.89 113.71C81.7367 116.43 79.3567 118.527 76.75 120C74.2567 121.473 70.6867 122.21 66.04 122.21C61.0533 122.21 57.0867 121.077 54.14 118.81C51.3067 116.43 49.4367 113.313 48.53 109.46C45.13 113.087 41.6167 116.203 37.99 118.81C34.4767 121.303 29.8867 122.55 24.22 122.55ZM34.59 112.18C36.8567 112.18 38.9533 111.67 40.88 110.65C42.92 109.517 45.3 107.817 48.02 105.55L48.02 76.99C46.8867 77.2167 45.7533 77.4433 44.62 77.67C43.4867 77.8967 42.1833 78.1233 40.71 78.35C35.4967 79.71 31.3033 82.0333 28.13 85.32C25.07 88.4933 23.54 92.8 23.54 98.24C23.54 102.887 24.6167 106.4 26.77 108.78C28.9233 111.047 31.53 112.18 34.59 112.18ZM116.458 122.21L87.7283 120V118.3L89.4283 117.96C93.8483 116.94 96.0583 114.107 96.0583 109.46L96.0583 18.51C96.0583 16.13 95.6616 14.3167 94.8683 13.07C94.1883 11.8233 92.7149 10.9733 90.4483 10.52L88.0683 9.84V8.13999L118.328 0.829994L120.368 2.35999L119.688 26.33L119.688 43.5C123.428 40.8933 127.508 38.9667 131.928 37.72C136.348 36.36 140.825 35.68 145.358 35.68C151.818 35.68 157.542 37.21 162.528 40.27C167.515 43.2167 171.425 47.8633 174.258 54.21C177.205 60.4433 178.678 68.49 178.678 78.35C178.678 88.21 177.035 96.4267 173.748 103C170.575 109.46 166.268 114.333 160.828 117.62C155.502 120.907 149.608 122.55 143.148 122.55C138.955 122.55 134.705 121.983 130.398 120.85C126.205 119.717 122.465 118.13 119.178 116.09L116.458 122.21ZM134.648 116.77C138.275 116.77 141.448 115.637 144.168 113.37C146.888 111.103 149.042 107.25 150.628 101.81C152.215 96.2567 153.008 88.6633 153.008 79.03C153.008 69.3967 152.272 61.9733 150.798 56.76C149.325 51.5467 147.228 47.92 144.508 45.88C141.902 43.84 138.728 42.82 134.988 42.82C129.662 42.82 124.732 44.2933 120.198 47.24V112.52C122.352 113.88 124.562 114.957 126.828 115.75C129.095 116.43 131.702 116.77 134.648 116.77ZM230.174 122.55C221.56 122.55 214.08 120.793 207.734 117.28C201.387 113.653 196.457 108.553 192.944 101.98C189.544 95.4067 187.844 87.7 187.844 78.86C187.844 70.02 189.657 62.37 193.284 55.91C197.024 49.45 202.067 44.4633 208.414 40.95C214.874 37.4367 222.127 35.68 230.174 35.68C238.22 35.68 245.417 37.4367 251.764 40.95C258.11 44.35 263.097 49.28 266.724 55.74C270.464 62.2 272.334 69.9067 272.334 78.86C272.334 87.8133 270.577 95.5767 267.064 102.15C263.664 108.61 258.79 113.653 252.444 117.28C246.21 120.793 238.787 122.55 230.174 122.55ZM230.174 119.15C234.14 119.15 237.314 118.017 239.694 115.75C242.074 113.483 243.774 109.46 244.794 103.68C245.927 97.9 246.494 89.74 246.494 79.2C246.494 68.5467 245.927 60.33 244.794 54.55C243.774 48.77 242.074 44.7467 239.694 42.48C237.314 40.2133 234.14 39.08 230.174 39.08C226.207 39.08 222.977 40.2133 220.484 42.48C218.104 44.7467 216.347 48.77 215.214 54.55C214.194 60.33 213.684 68.5467 213.684 79.2C213.684 89.74 214.194 97.9 215.214 103.68C216.347 109.46 218.104 113.483 220.484 115.75C222.977 118.017 226.207 119.15 230.174 119.15ZM309.906 122.55C305.486 122.55 301.406 121.7 297.666 120C294.04 118.3 291.15 115.58 288.996 111.84C286.956 107.987 285.993 102.943 286.106 96.71L286.616 53.02C286.616 50.4133 286.163 48.5433 285.256 47.41C284.35 46.2767 282.933 45.4833 281.006 45.03L278.966 44.35V42.65L309.396 36.7L311.096 38.4L310.246 62.54V103.51C310.246 107.137 311.266 109.8 313.306 111.5C315.46 113.2 318.123 114.05 321.296 114.05C324.47 114.05 327.303 113.597 329.796 112.69C332.29 111.783 334.783 110.423 337.276 108.61L337.956 53.19C337.956 50.5833 337.56 48.77 336.766 47.75C335.973 46.6167 334.5 45.8233 332.346 45.37L330.646 44.86V43.16L360.396 36.7L362.096 38.4L361.586 62.54V108.61C361.586 111.103 361.926 113.03 362.606 114.39C363.286 115.75 364.76 116.883 367.026 117.79L368.726 118.3V120L338.976 121.7L337.446 111.67C333.706 114.73 329.626 117.337 325.206 119.49C320.9 121.53 315.8 122.55 309.906 122.55ZM407.891 122.55C400.638 122.55 394.971 120.737 390.891 117.11C386.925 113.483 384.941 107.703 384.941 99.77V41.63H373.211V39.93L377.291 39.25C380.805 38.4567 383.808 37.3233 386.301 35.85C388.908 34.3767 391.458 32.3933 393.951 29.9L407.891 14.43H409.591L409.081 38.23L428.121 38.23V41.63L408.911 41.63V102.83C408.911 106.797 409.761 109.8 411.461 111.84C413.275 113.88 415.541 114.9 418.261 114.9C420.641 114.9 422.738 114.333 424.551 113.2C426.365 111.953 428.178 110.31 429.991 108.27L431.691 109.97C429.425 113.823 426.308 116.883 422.341 119.15C418.375 121.417 413.558 122.55 407.891 122.55ZM474.039 120V118.3L476.419 117.62C478.572 117.053 480.045 116.09 480.839 114.73C481.745 113.37 482.255 111.557 482.369 109.29V56.08C482.369 53.5867 481.972 51.7733 481.179 50.64C480.385 49.3933 478.855 48.5433 476.589 48.09L474.039 47.41V45.71L503.109 35.85L504.809 37.55L506.169 49.11C509.909 45.37 514.159 42.1967 518.919 39.59C523.792 36.9833 528.835 35.68 534.049 35.68C539.489 35.68 543.852 36.8133 547.139 39.08C550.425 41.2333 552.919 44.6333 554.619 49.28C559.039 45.0867 563.799 41.8 568.899 39.42C574.112 36.9267 579.155 35.68 584.029 35.68C592.075 35.68 597.969 37.6067 601.709 41.46C605.562 45.3133 607.489 51.3767 607.489 59.65V109.46C607.489 113.88 609.529 116.657 613.609 117.79L615.479 118.3V120L576.209 120V118.3L577.909 117.79C580.062 117.11 581.535 116.09 582.329 114.73C583.235 113.37 583.689 111.557 583.689 109.29V57.27C583.689 52.51 582.839 49.28 581.139 47.58C579.439 45.7667 576.719 44.86 572.979 44.86C570.032 44.86 567.142 45.54 564.309 46.9C561.589 48.1467 558.699 50.0733 555.639 52.68C556.205 54.4933 556.545 56.4767 556.659 58.63C556.885 60.7833 556.999 63.05 556.999 65.43V109.46C557.112 113.88 559.152 116.657 563.119 117.79L564.649 118.3V120H525.209V118.3L527.589 117.62C529.742 116.94 531.215 115.977 532.009 114.73C532.915 113.37 533.369 111.557 533.369 109.29V57.44C533.369 52.9067 532.519 49.6767 530.819 47.75C529.232 45.8233 526.455 44.86 522.489 44.86C519.882 44.86 517.275 45.54 514.669 46.9C512.062 48.1467 509.342 50.0167 506.509 52.51V109.46C506.509 113.88 508.492 116.657 512.459 117.79L513.989 118.3V120H474.039ZM664.795 35.68C672.161 35.68 678.451 37.21 683.665 40.27C688.878 43.2167 692.845 47.2967 695.565 52.51C698.398 57.61 699.815 63.4467 699.815 70.02C699.815 71.2667 699.758 72.57 699.645 73.93C699.531 75.1767 699.305 76.31 698.965 77.33L648.305 77.33C648.418 89.57 650.571 98.41 654.765 103.85C659.071 109.177 665.418 111.84 673.805 111.84C679.471 111.84 684.061 110.933 687.575 109.12C691.088 107.307 694.375 104.643 697.435 101.13L699.135 102.66C695.621 108.893 690.918 113.767 685.025 117.28C679.245 120.793 672.275 122.55 664.115 122.55C656.068 122.55 648.928 120.85 642.695 117.45C636.461 113.937 631.588 108.95 628.075 102.49C624.561 96.03 622.805 88.3233 622.805 79.37C622.805 70.0767 624.845 62.2 628.925 55.74C633.005 49.1667 638.218 44.18 644.565 40.78C651.025 37.38 657.768 35.68 664.795 35.68ZM664.285 39.08C660.998 39.08 658.165 40.1 655.785 42.14C653.518 44.0667 651.705 47.58 650.345 52.68C649.098 57.6667 648.418 64.75 648.305 73.93L677.375 73.93C678.508 61.5767 678.055 52.68 676.015 47.24C673.975 41.8 670.065 39.08 664.285 39.08Z"/>
</mask>
<path d="M7.56 116.94L6.91401 117.703L6.92362 117.711L7.56 116.94ZM9.09 86.17L9.72064 86.9462L9.73019 86.9382L9.09 86.17ZM34.76 75.97L34.5757 74.9871L34.5694 74.9883L34.76 75.97ZM40.88 74.95L41.0283 75.9389L41.0523 75.9353L41.0761 75.9306L40.88 74.95ZM48.02 73.59L48.1989 74.5739L49.02 74.4246V73.59H48.02ZM45.13 44.01L44.2618 44.5061L44.2724 44.5247L44.2838 44.5428L45.13 44.01ZM30 41.97L30.7311 42.6523L30.742 42.6406L30.7526 42.6285L30 41.97ZM26.94 50.98L27.9239 51.1589L27.9306 51.122L27.9345 51.0847L26.94 50.98ZM26.6 52.85L25.6161 52.6711L25.6042 52.7368L25.6011 52.8035L26.6 52.85ZM23.03 63.56L23.755 64.2487L23.03 63.56ZM7.73 64.24L8.41537 63.5118H8.41537L7.73 64.24ZM9.6 45.2L8.90541 44.4806L8.8991 44.4867L8.89289 44.4929L9.6 45.2ZM22.52 38.06L22.2345 37.1016L22.52 38.06ZM63.15 43.16L62.4743 43.8972L62.4823 43.9045L62.4904 43.9116L63.15 43.16ZM82.36 112.35L83.0244 111.603L82.7402 111.35H82.36V112.35ZM83.89 113.71L84.674 114.331L85.2603 113.59L84.5544 112.963L83.89 113.71ZM76.75 120L76.2579 119.129L76.2496 119.134L76.2413 119.139L76.75 120ZM54.14 118.81L53.4968 119.576L53.5133 119.59L53.5303 119.603L54.14 118.81ZM48.53 109.46L49.5034 109.231L49.0762 107.415L47.8005 108.776L48.53 109.46ZM37.99 118.81L38.5688 119.626L38.5736 119.622L37.99 118.81ZM40.88 110.65L41.3479 111.534L41.3568 111.529L41.3656 111.524L40.88 110.65ZM48.02 105.55L48.6602 106.318L49.02 106.018V105.55H48.02ZM48.02 76.99H49.02V75.7702L47.8239 76.0094L48.02 76.99ZM44.62 77.67L44.8161 78.6506L44.62 77.67ZM40.71 78.35L40.5579 77.3616L40.5072 77.3694L40.4576 77.3824L40.71 78.35ZM28.13 85.32L27.4106 84.6254L27.4102 84.6259L28.13 85.32ZM26.77 108.78L26.0285 109.451L26.0366 109.46L26.045 109.469L26.77 108.78ZM24.22 121.55C17.8496 121.55 12.5292 119.743 8.19638 116.169L6.92362 117.711C11.6574 121.617 17.4437 123.55 24.22 123.55V121.55ZM8.20594 116.177C4.05824 112.667 1.93 107.591 1.93 100.79H-0.0699999C-0.0699999 108.042 2.22177 113.733 6.91406 117.703L8.20594 116.177ZM1.93 100.79C1.93 95.8536 4.435 91.2407 9.72059 86.9461L8.45941 85.3939C2.865 89.9393 -0.0699999 95.0731 -0.0699999 100.79H1.93ZM9.73019 86.9382C14.9807 82.5628 23.3438 79.2054 34.9506 76.9517L34.5694 74.9883C22.8296 77.2679 14.0793 80.7105 8.44982 85.4018L9.73019 86.9382ZM34.9443 76.9529C36.7432 76.6156 38.771 76.2775 41.0283 75.9389L40.7317 73.9611C38.4557 74.3025 36.4034 74.6444 34.5757 74.9871L34.9443 76.9529ZM41.0761 75.9306C43.3365 75.4785 45.7108 75.0263 48.1989 74.5739L47.8411 72.6061C45.3426 73.0604 42.9568 73.5148 40.6839 73.9694L41.0761 75.9306ZM49.02 73.59V60.16H47.02V73.59H49.02ZM49.02 60.16C49.02 52.4346 48.0662 46.7966 45.9762 43.4772L44.2838 44.5428C46.0471 47.3434 47.02 52.472 47.02 60.16H49.02ZM45.9982 43.5139C43.9891 39.9978 40.7482 38.25 36.46 38.25V40.25C40.1051 40.25 42.6442 41.6755 44.2618 44.5061L45.9982 43.5139ZM36.46 38.25C33.4931 38.25 31.0497 39.2518 29.2474 41.3115L30.7526 42.6285C32.1237 41.0615 33.9869 40.25 36.46 40.25V38.25ZM29.2689 41.2877C27.4523 43.2341 26.4046 46.514 25.9455 50.8753L27.9345 51.0847C28.3821 46.8327 29.3744 44.1059 30.7311 42.6523L29.2689 41.2877ZM25.9561 50.8011L25.6161 52.6711L27.5839 53.0289L27.9239 51.1589L25.9561 50.8011ZM25.6011 52.8035C25.3796 57.565 24.2219 60.8535 22.305 62.8712L23.755 64.2487C26.1448 61.7332 27.367 57.8817 27.5989 52.8965L25.6011 52.8035ZM22.305 62.8712C20.3436 64.9358 17.9439 65.96 15.04 65.96L15.04 67.96C18.4828 67.96 21.4097 66.7175 23.755 64.2487L22.305 62.8712ZM15.04 65.96C12.3167 65.96 10.1349 65.1301 8.41537 63.5118L7.04464 64.9682C9.17848 66.9765 11.87 67.96 15.04 67.96L15.04 65.96ZM8.41537 63.5118C6.72144 61.9175 5.84 59.7615 5.84 56.93H3.84C3.84 60.2185 4.88523 62.9358 7.04464 64.9682L8.41537 63.5118ZM5.84 56.93C5.84 52.5381 7.3286 48.8856 10.3071 45.9071L8.89289 44.4929C5.52474 47.861 3.84 52.0286 3.84 56.93H5.84ZM10.2946 45.9194C13.4436 42.8789 17.5995 40.5691 22.8055 39.0184L22.2345 37.1016C16.7872 38.7242 12.3297 41.1744 8.90541 44.4806L10.2946 45.9194ZM22.8055 39.0184C28.029 37.4624 33.7118 36.68 39.86 36.68V34.68C33.5416 34.68 27.6643 35.4842 22.2345 37.1016L22.8055 39.0184ZM39.86 36.68C49.7892 36.68 57.2773 39.1332 62.4743 43.8972L63.8257 42.4228C58.1427 37.2134 50.1041 34.68 39.86 34.68V36.68ZM62.4904 43.9116C67.7376 48.5163 70.48 56.1652 70.48 67.13H72.48C72.48 55.8815 69.669 47.5503 63.8096 42.4084L62.4904 43.9116ZM70.48 67.13V104.7H72.48V67.13H70.48ZM70.48 104.7C70.48 107.388 71.1057 109.59 72.534 111.12C73.9743 112.663 76.0675 113.35 78.62 113.35V111.35C76.4125 111.35 74.9357 110.762 73.9961 109.755C73.0443 108.735 72.48 107.112 72.48 104.7H70.48ZM78.62 113.35H82.36V111.35H78.62V113.35ZM81.6956 113.097L83.2256 114.457L84.5544 112.963L83.0244 111.603L81.6956 113.097ZM83.106 113.089C81.0203 115.724 78.7357 117.729 76.2579 119.129L77.2421 120.871C79.9777 119.324 82.453 117.136 84.674 114.331L83.106 113.089ZM76.2413 119.139C73.9686 120.482 70.6054 121.21 66.04 121.21L66.04 123.21C70.768 123.21 74.5447 122.465 77.2587 120.861L76.2413 119.139ZM66.04 121.21C61.1991 121.21 57.4703 120.11 54.7497 118.017L53.5303 119.603C56.703 122.043 60.9076 123.21 66.04 123.21L66.04 121.21ZM54.7832 118.044C52.1267 115.813 50.3644 112.89 49.5034 109.231L47.5566 109.689C48.509 113.737 50.4866 117.047 53.4968 119.576L54.7832 118.044ZM47.8005 108.776C44.4399 112.361 40.9748 115.433 37.4064 117.998L38.5736 119.622C42.2585 116.974 45.8201 113.813 49.2595 110.144L47.8005 108.776ZM37.4113 117.994C34.1132 120.335 29.7441 121.55 24.22 121.55V123.55C30.0292 123.55 34.8402 122.272 38.5687 119.626L37.4113 117.994ZM34.59 113.18C37.0131 113.18 39.2713 112.633 41.3479 111.534L40.4121 109.766C38.6354 110.707 36.7003 111.18 34.59 111.18V113.18ZM41.3656 111.524C43.4807 110.349 45.914 108.607 48.6602 106.318L47.3798 104.782C44.686 107.027 42.3593 108.684 40.3944 109.776L41.3656 111.524ZM49.02 105.55L49.02 76.99H47.02L47.02 105.55H49.02ZM47.8239 76.0094C46.6906 76.2361 45.5572 76.4628 44.4239 76.6894L44.8161 78.6506C45.9495 78.4239 47.0828 78.1972 48.2161 77.9706L47.8239 76.0094ZM44.4239 76.6894C43.3086 76.9125 42.0205 77.1366 40.5579 77.3616L40.8621 79.3384C42.3462 79.11 43.6647 78.8809 44.8161 78.6506L44.4239 76.6894ZM40.4576 77.3824C35.0987 78.7803 30.7329 81.1845 27.4106 84.6254L28.8494 86.0146C31.8738 82.8822 35.8946 80.6396 40.9624 79.3176L40.4576 77.3824ZM27.4102 84.6259C24.1305 88.027 22.54 92.605 22.54 98.24H24.54C24.54 92.995 26.0095 88.9597 28.8498 86.0141L27.4102 84.6259ZM22.54 98.24C22.54 103.025 23.6475 106.819 26.0285 109.451L27.5115 108.109C25.5858 105.981 24.54 102.748 24.54 98.24H22.54ZM26.045 109.469C28.3825 111.929 31.2492 113.18 34.59 113.18V111.18C31.8108 111.18 29.4642 110.164 27.495 108.091L26.045 109.469ZM116.458 122.21L116.382 123.207L117.085 123.261L117.372 122.616L116.458 122.21ZM87.7283 120H86.7283V120.926L87.6516 120.997L87.7283 120ZM87.7283 118.3L87.5322 117.319L86.7283 117.48V118.3H87.7283ZM89.4283 117.96L89.6244 118.941L89.6388 118.938L89.6531 118.934L89.4283 117.96ZM94.8683 13.07L93.9904 13.5488L94.0065 13.5784L94.0246 13.6069L94.8683 13.07ZM90.4483 10.52L90.1736 11.4815L90.2125 11.4926L90.2522 11.5006L90.4483 10.52ZM88.0683 9.84H87.0683V10.5943L87.7936 10.8015L88.0683 9.84ZM88.0683 8.13999L87.8335 7.16795L87.0683 7.3528V8.13999H88.0683ZM118.328 0.829994L118.928 0.029994L118.551 -0.252669L118.093 -0.142045L118.328 0.829994ZM120.368 2.35999L121.368 2.38835L121.383 1.87071L120.968 1.55999L120.368 2.35999ZM119.688 26.33L118.689 26.3016L118.688 26.3158V26.33H119.688ZM119.688 43.5H118.688V45.4159L120.26 44.3204L119.688 43.5ZM131.928 37.72L132.2 38.6824L132.211 38.6792L132.222 38.6758L131.928 37.72ZM162.528 40.27L162.005 41.1223L162.012 41.1267L162.02 41.1309L162.528 40.27ZM174.258 54.21L173.345 54.6176L173.35 54.6276L173.354 54.6374L174.258 54.21ZM173.748 103L172.854 102.553L172.851 102.559L173.748 103ZM160.828 117.62L160.311 116.764L160.303 116.769L160.828 117.62ZM130.398 120.85L130.137 121.815L130.144 121.817L130.398 120.85ZM119.178 116.09L119.706 115.24L118.731 114.635L118.264 115.684L119.178 116.09ZM144.168 113.37L143.528 112.602L144.168 113.37ZM150.628 101.81L151.588 102.09L151.59 102.085L150.628 101.81ZM150.798 56.76L149.836 57.032L150.798 56.76ZM144.508 45.88L143.892 46.6675L143.9 46.6738L143.908 46.68L144.508 45.88ZM120.198 47.24L119.653 46.4016L119.198 46.6973V47.24H120.198ZM120.198 112.52H119.198V113.071L119.664 113.365L120.198 112.52ZM126.828 115.75L126.498 116.694L126.519 116.701L126.541 116.708L126.828 115.75ZM116.535 121.213L87.805 119.003L87.6516 120.997L116.382 123.207L116.535 121.213ZM88.7283 120V118.3H86.7283V120H88.7283ZM87.9244 119.281L89.6244 118.941L89.2322 116.979L87.5322 117.319L87.9244 119.281ZM89.6531 118.934C92.0267 118.387 93.9095 117.326 95.1893 115.685C96.467 114.047 97.0583 111.94 97.0583 109.46H95.0583C95.0583 111.626 94.5446 113.26 93.6123 114.455C92.6821 115.648 91.2498 116.513 89.2034 116.986L89.6531 118.934ZM97.0583 109.46L97.0583 18.51L95.0583 18.51L95.0583 109.46H97.0583ZM97.0583 18.51C97.0583 16.0452 96.6521 14.0106 95.7119 12.5331L94.0246 13.6069C94.6711 14.6228 95.0583 16.2148 95.0583 18.51L97.0583 18.51ZM95.7462 12.5911C94.8555 10.9583 93.0223 10.015 90.6444 9.53941L90.2522 11.5006C92.4076 11.9317 93.521 12.6883 93.9904 13.5488L95.7462 12.5911ZM90.723 9.55847L88.343 8.87848L87.7936 10.8015L90.1736 11.4815L90.723 9.55847ZM89.0683 9.84V8.13999H87.0683V9.84H89.0683ZM88.3031 9.11203L118.563 1.80203L118.093 -0.142045L87.8335 7.16795L88.3031 9.11203ZM117.728 1.62999L119.768 3.16L120.968 1.55999L118.928 0.029994L117.728 1.62999ZM119.369 2.33164L118.689 26.3016L120.688 26.3584L121.368 2.38835L119.369 2.33164ZM118.688 26.33L118.688 43.5H120.688L120.688 26.33H118.688ZM120.26 44.3204C123.908 41.778 127.886 39.8991 132.2 38.6824L131.657 36.7575C127.13 38.0343 122.949 40.0087 119.116 42.6796L120.26 44.3204ZM132.222 38.6758C136.549 37.3445 140.927 36.68 145.358 36.68V34.68C140.723 34.68 136.148 35.3755 131.634 36.7642L132.222 38.6758ZM145.358 36.68C151.653 36.68 157.192 38.1688 162.005 41.1223L163.051 39.4177C157.891 36.2512 151.983 34.68 145.358 34.68V36.68ZM162.02 41.1309C166.794 43.9524 170.579 48.4217 173.345 54.6176L175.171 53.8023C172.271 47.305 168.236 42.4809 163.037 39.4091L162.02 41.1309ZM173.354 54.6374C176.217 60.6924 177.678 68.5788 177.678 78.35H179.678C179.678 68.4012 178.193 60.1943 175.162 53.7826L173.354 54.6374ZM177.678 78.35C177.678 88.1053 176.052 96.1574 172.854 102.553L174.643 103.447C178.018 96.6959 179.678 88.3147 179.678 78.35H177.678ZM172.851 102.559C169.75 108.871 165.566 113.589 160.311 116.764L161.345 118.476C166.97 115.078 171.4 110.049 174.646 103.441L172.851 102.559ZM160.303 116.769C155.14 119.955 149.429 121.55 143.148 121.55V123.55C149.787 123.55 155.864 121.858 161.353 118.471L160.303 116.769ZM143.148 121.55C139.046 121.55 134.882 120.996 130.653 119.883L130.144 121.817C134.528 122.971 138.864 123.55 143.148 123.55V121.55ZM130.659 119.885C126.548 118.774 122.9 117.223 119.706 115.24L118.651 116.94C122.03 119.037 125.861 120.66 130.137 121.815L130.659 119.885ZM118.264 115.684L115.544 121.804L117.372 122.616L120.092 116.496L118.264 115.684ZM134.648 117.77C138.503 117.77 141.904 116.559 144.808 114.138L143.528 112.602C140.993 114.715 138.047 115.77 134.648 115.77V117.77ZM144.808 114.138C147.748 111.689 149.977 107.616 151.588 102.09L149.668 101.53C148.107 106.884 146.029 110.518 143.528 112.602L144.808 114.138ZM151.59 102.085C153.213 96.4024 154.008 88.7032 154.008 79.03H152.008C152.008 88.6235 151.217 96.111 149.667 101.535L151.59 102.085ZM154.008 79.03C154.008 69.3642 153.271 61.8331 151.761 56.488L149.836 57.032C151.272 62.1136 152.008 69.4291 152.008 79.03H154.008ZM151.761 56.488C150.261 51.1801 148.081 47.3092 145.108 45.08L143.908 46.68C146.376 48.5308 148.389 51.9132 149.836 57.032L151.761 56.488ZM145.125 45.0925C142.319 42.8971 138.921 41.82 134.988 41.82V43.82C138.535 43.82 141.484 44.7829 143.892 46.6675L145.125 45.0925ZM134.988 41.82C129.465 41.82 124.346 43.3511 119.653 46.4016L120.743 48.0784C125.117 45.2355 129.858 43.82 134.988 43.82V41.82ZM119.198 47.24V112.52H121.198V47.24H119.198ZM119.664 113.365C121.878 114.763 124.156 115.874 126.498 116.694L127.159 114.806C124.968 114.039 122.826 112.997 120.732 111.675L119.664 113.365ZM126.541 116.708C128.92 117.422 131.627 117.77 134.648 117.77V115.77C131.776 115.77 129.27 115.438 127.116 114.792L126.541 116.708ZM207.734 117.28L207.237 118.148L207.249 118.155L207.734 117.28ZM192.944 101.98L192.055 102.439L192.062 102.451L192.944 101.98ZM193.284 55.91L192.418 55.4089L192.412 55.4205L193.284 55.91ZM208.414 40.95L207.936 40.0715L207.929 40.0751L208.414 40.95ZM251.764 40.95L251.279 41.825L251.291 41.8315L251.764 40.95ZM266.724 55.74L265.852 56.2296L265.858 56.241L266.724 55.74ZM267.064 102.15L266.182 101.679L266.179 101.684L267.064 102.15ZM252.444 117.28L252.935 118.151L252.94 118.148L252.444 117.28ZM239.694 115.75L240.383 116.474L239.694 115.75ZM244.794 103.68L243.812 103.488L243.811 103.497L243.809 103.506L244.794 103.68ZM244.794 54.55L243.809 54.7238L243.811 54.7331L243.812 54.7424L244.794 54.55ZM239.694 42.48L240.383 41.7559L239.694 42.48ZM220.484 42.48L219.811 41.7401L219.802 41.7479L219.794 41.7559L220.484 42.48ZM215.214 54.55L214.232 54.3576L214.231 54.3669L214.229 54.3762L215.214 54.55ZM215.214 103.68L214.229 103.854L214.231 103.863L214.232 103.872L215.214 103.68ZM220.484 115.75L219.794 116.474L219.802 116.482L219.811 116.49L220.484 115.75ZM230.174 121.55C221.698 121.55 214.391 119.822 208.218 116.405L207.249 118.155C213.77 121.764 221.423 123.55 230.174 123.55V121.55ZM208.23 116.412C202.05 112.88 197.252 107.919 193.826 101.509L192.062 102.451C195.662 109.187 200.724 114.426 207.238 118.148L208.23 116.412ZM193.832 101.521C190.518 95.1144 188.844 87.571 188.844 78.86H186.844C186.844 87.829 188.569 95.699 192.055 102.439L193.832 101.521ZM188.844 78.86C188.844 70.1583 190.628 62.6836 194.156 56.3995L192.412 55.4205C188.686 62.0564 186.844 69.8817 186.844 78.86H188.844ZM194.149 56.411C197.801 50.1031 202.715 45.2478 208.898 41.8249L207.929 40.0751C201.419 43.6788 196.246 48.7969 192.418 55.409L194.149 56.411ZM208.891 41.8285C215.191 38.4022 222.278 36.68 230.174 36.68V34.68C221.976 34.68 214.556 36.4711 207.936 40.0715L208.891 41.8285ZM230.174 36.68C238.07 36.68 245.097 38.4023 251.279 41.8249L252.248 40.0751C245.737 36.471 238.371 34.68 230.174 34.68V36.68ZM251.291 41.8315C257.465 45.1388 262.315 49.9305 265.852 56.2295L267.596 55.2505C263.879 48.6295 258.755 43.5611 252.236 40.0685L251.291 41.8315ZM265.858 56.241C269.494 62.521 271.334 70.0475 271.334 78.86H273.334C273.334 69.7659 271.433 61.879 267.589 55.239L265.858 56.241ZM271.334 78.86C271.334 87.6818 269.603 95.2768 266.182 101.679L267.946 102.621C271.551 95.8765 273.334 87.9449 273.334 78.86H271.334ZM266.179 101.684C262.868 107.976 258.129 112.879 251.948 116.412L252.94 118.148C259.452 114.427 264.46 109.244 267.949 102.616L266.179 101.684ZM251.953 116.409C245.897 119.822 238.65 121.55 230.174 121.55V123.55C238.924 123.55 246.524 121.765 252.935 118.151L251.953 116.409ZM230.174 120.15C234.341 120.15 237.78 118.953 240.383 116.474L239.004 115.026C236.847 117.08 233.94 118.15 230.174 118.15V120.15ZM240.383 116.474C242.999 113.983 244.747 109.698 245.778 103.854L243.809 103.506C242.8 109.222 241.149 112.983 239.004 115.026L240.383 116.474ZM245.775 103.872C246.927 97.998 247.494 89.7626 247.494 79.2H245.494C245.494 89.7174 244.927 97.802 243.812 103.488L245.775 103.872ZM247.494 79.2C247.494 68.5249 246.927 60.2324 245.775 54.3576L243.812 54.7424C244.927 60.4276 245.494 68.5684 245.494 79.2H247.494ZM245.778 54.3762C244.747 48.5315 242.999 44.2465 240.383 41.7559L239.004 43.2041C241.149 45.2468 242.8 49.0085 243.809 54.7238L245.778 54.3762ZM240.383 41.7559C237.78 39.2767 234.341 38.08 230.174 38.08V40.08C233.94 40.08 236.847 41.1499 239.004 43.2041L240.383 41.7559ZM230.174 38.08C226.005 38.08 222.52 39.277 219.811 41.7401L221.156 43.2199C223.434 41.1496 226.409 40.08 230.174 40.08V38.08ZM219.794 41.7559C217.186 44.2398 215.378 48.5154 214.232 54.3576L216.195 54.7424C217.316 49.0246 219.021 45.2535 221.173 43.2041L219.794 41.7559ZM214.229 54.3762C213.194 60.2422 212.684 68.5272 212.684 79.2H214.684C214.684 68.5661 215.194 60.4178 216.198 54.7238L214.229 54.3762ZM212.684 79.2C212.684 89.7602 213.194 97.9882 214.229 103.854L216.198 103.506C215.194 97.8118 214.684 89.7198 214.684 79.2H212.684ZM214.232 103.872C215.378 109.715 217.186 113.99 219.794 116.474L221.173 115.026C219.021 112.976 217.316 109.205 216.195 103.488L214.232 103.872ZM219.811 116.49C222.52 118.953 226.005 120.15 230.174 120.15V118.15C226.409 118.15 223.434 117.08 221.156 115.01L219.811 116.49ZM297.666 120L297.242 120.906L297.253 120.91L297.666 120ZM288.996 111.84L288.113 112.308L288.121 112.324L288.13 112.339L288.996 111.84ZM286.106 96.71L287.106 96.7282L287.106 96.7217L286.106 96.71ZM286.616 53.02L287.616 53.0317V53.02H286.616ZM281.006 45.03L280.69 45.9787L280.733 45.993L280.777 46.0034L281.006 45.03ZM278.966 44.35H277.966V45.0708L278.65 45.2987L278.966 44.35ZM278.966 42.65L278.774 41.6686L277.966 41.8266V42.65H278.966ZM309.396 36.7L310.103 35.9929L309.727 35.6164L309.204 35.7186L309.396 36.7ZM311.096 38.4L312.096 38.4352L312.111 38.0005L311.803 37.6929L311.096 38.4ZM310.246 62.54L309.247 62.5048L309.246 62.5224V62.54H310.246ZM313.306 111.5L312.666 112.268L312.676 112.277L312.687 112.285L313.306 111.5ZM329.796 112.69L330.138 113.63L329.796 112.69ZM337.276 108.61L337.865 109.419L338.27 109.124L338.276 108.622L337.276 108.61ZM337.956 53.19L338.956 53.2023V53.19H337.956ZM336.766 47.75L335.947 48.3235L335.962 48.3441L335.977 48.3639L336.766 47.75ZM332.346 45.37L332.059 46.3278L332.099 46.3399L332.14 46.3485L332.346 45.37ZM330.646 44.86H329.646V45.604L330.359 45.8178L330.646 44.86ZM330.646 43.16L330.434 42.1828L329.646 42.3538V43.16H330.646ZM360.396 36.7L361.103 35.9929L360.717 35.607L360.184 35.7228L360.396 36.7ZM362.096 38.4L363.096 38.4211L363.105 37.9946L362.803 37.6929L362.096 38.4ZM361.586 62.54L360.587 62.5189L360.586 62.5294V62.54H361.586ZM362.606 114.39L363.501 113.943L362.606 114.39ZM367.026 117.79L366.655 118.718L366.696 118.735L366.739 118.748L367.026 117.79ZM368.726 118.3H369.726V117.556L369.014 117.342L368.726 118.3ZM368.726 120L368.783 120.998L369.726 120.944V120H368.726ZM338.976 121.7L337.988 121.851L338.125 122.75L339.033 122.698L338.976 121.7ZM337.446 111.67L338.435 111.519L338.17 109.785L336.813 110.896L337.446 111.67ZM325.206 119.49L325.634 120.394L325.644 120.389L325.206 119.49ZM309.906 121.55C305.618 121.55 301.681 120.726 298.08 119.09L297.253 120.91C301.132 122.674 305.355 123.55 309.906 123.55V121.55ZM298.091 119.095C294.664 117.488 291.922 114.918 289.863 111.341L288.13 112.339C290.377 116.242 293.415 119.112 297.242 120.905L298.091 119.095ZM289.88 111.372C287.946 107.719 286.995 102.861 287.106 96.7282L285.107 96.6918C284.991 103.026 285.967 108.254 288.113 112.308L289.88 111.372ZM287.106 96.7217L287.616 53.0317L285.616 53.0083L285.106 96.6983L287.106 96.7217ZM287.616 53.02C287.616 50.3466 287.161 48.19 286.037 46.7853L284.475 48.0347C285.165 48.8966 285.616 50.4801 285.616 53.02H287.616ZM286.037 46.7853C284.948 45.4233 283.301 44.5427 281.235 44.0566L280.777 46.0034C282.565 46.424 283.752 47.13 284.475 48.0347L286.037 46.7853ZM281.323 44.0813L279.283 43.4013L278.65 45.2987L280.69 45.9787L281.323 44.0813ZM279.966 44.35V42.65H277.966V44.35H279.966ZM279.158 43.6314L309.588 37.6814L309.204 35.7186L278.774 41.6686L279.158 43.6314ZM308.689 37.4071L310.389 39.1071L311.803 37.6929L310.103 35.9929L308.689 37.4071ZM310.097 38.3648L309.247 62.5048L311.246 62.5752L312.096 38.4352L310.097 38.3648ZM309.246 62.54V103.51H311.246V62.54H309.246ZM309.246 103.51C309.246 107.319 310.323 110.315 312.666 112.268L313.947 110.732C312.21 109.285 311.246 106.954 311.246 103.51H309.246ZM312.687 112.285C315.043 114.145 317.935 115.05 321.296 115.05V113.05C318.311 113.05 315.876 112.255 313.926 110.715L312.687 112.285ZM321.296 115.05C324.564 115.05 327.516 114.583 330.138 113.63L329.455 111.75C327.09 112.61 324.375 113.05 321.296 113.05V115.05ZM330.138 113.63C332.732 112.686 335.307 111.278 337.865 109.419L336.688 107.801C334.259 109.568 331.847 110.88 329.455 111.75L330.138 113.63ZM338.276 108.622L338.956 53.2023L336.956 53.1777L336.276 108.598L338.276 108.622ZM338.956 53.19C338.956 50.5502 338.568 48.438 337.556 47.1361L335.977 48.3639C336.551 49.102 336.956 50.6165 336.956 53.19H338.956ZM337.586 47.1765C336.581 45.7418 334.814 44.8676 332.552 44.3914L332.14 46.3485C334.185 46.7791 335.365 47.4915 335.947 48.3235L337.586 47.1765ZM332.634 44.4122L330.934 43.9022L330.359 45.8178L332.059 46.3278L332.634 44.4122ZM331.646 44.86V43.16H329.646V44.86H331.646ZM330.859 44.1372L360.609 37.6772L360.184 35.7228L330.434 42.1828L330.859 44.1372ZM359.689 37.4071L361.389 39.1071L362.803 37.6929L361.103 35.9929L359.689 37.4071ZM361.097 38.3789L360.587 62.5189L362.586 62.5611L363.096 38.4211L361.097 38.3789ZM360.586 62.54V108.61H362.586V62.54H360.586ZM360.586 108.61C360.586 111.171 360.932 113.277 361.712 114.837L363.501 113.943C362.921 112.783 362.586 111.036 362.586 108.61H360.586ZM361.712 114.837C362.551 116.516 364.291 117.773 366.655 118.718L367.398 116.862C365.228 115.994 364.022 114.984 363.501 113.943L361.712 114.837ZM366.739 118.748L368.439 119.258L369.014 117.342L367.314 116.832L366.739 118.748ZM367.726 118.3V120H369.726V118.3H367.726ZM368.669 119.002L338.919 120.702L339.033 122.698L368.783 120.998L368.669 119.002ZM339.965 121.549L338.435 111.519L336.458 111.821L337.988 121.851L339.965 121.549ZM336.813 110.896C333.134 113.906 329.12 116.471 324.768 118.591L325.644 120.389C330.133 118.202 334.279 115.554 338.08 112.444L336.813 110.896ZM324.778 118.586C320.633 120.55 315.686 121.55 309.906 121.55V123.55C315.913 123.55 321.166 122.51 325.634 120.394L324.778 118.586ZM390.891 117.11L390.217 117.848L390.227 117.857L390.891 117.11ZM384.941 41.63H385.941V40.63H384.941V41.63ZM373.211 41.63H372.211V42.63H373.211V41.63ZM373.211 39.93L373.047 38.9436L372.211 39.0829V39.93H373.211ZM377.291 39.25L377.456 40.2364L377.484 40.2317L377.512 40.2254L377.291 39.25ZM386.301 35.85L385.809 34.9794L385.801 34.9842L385.793 34.9891L386.301 35.85ZM393.951 29.9L394.659 30.6071L394.677 30.5887L394.694 30.5694L393.951 29.9ZM407.891 14.43V13.43H407.446L407.149 13.7606L407.891 14.43ZM409.591 14.43L410.591 14.4514L410.613 13.43H409.591V14.43ZM409.081 38.23L408.082 38.2086L408.06 39.23H409.081V38.23ZM428.121 38.23H429.121V37.23H428.121V38.23ZM428.121 41.63V42.63H429.121V41.63H428.121ZM408.911 41.63V40.63H407.911V41.63H408.911ZM411.461 111.84L410.693 112.48L410.703 112.492L410.714 112.504L411.461 111.84ZM424.551 113.2L425.081 114.048L425.1 114.036L425.118 114.024L424.551 113.2ZM429.991 108.27L430.699 107.563L429.949 106.813L429.244 107.606L429.991 108.27ZM431.691 109.97L432.553 110.477L432.946 109.81L432.399 109.263L431.691 109.97ZM422.341 119.15L421.845 118.282L422.341 119.15ZM407.891 121.55C400.801 121.55 395.4 119.779 391.556 116.363L390.227 117.857C394.543 121.694 400.475 123.55 407.891 123.55V121.55ZM391.566 116.372C387.889 113.01 385.941 107.557 385.941 99.77H383.941C383.941 107.849 385.961 113.957 390.217 117.848L391.566 116.372ZM385.941 99.77V41.63H383.941V99.77H385.941ZM384.941 40.63H373.211V42.63H384.941V40.63ZM374.211 41.63V39.93H372.211V41.63H374.211ZM373.376 40.9164L377.456 40.2364L377.127 38.2636L373.047 38.9436L373.376 40.9164ZM377.512 40.2254C381.103 39.4145 384.208 38.2483 386.81 36.7109L385.793 34.9891C383.408 36.3984 380.507 37.4988 377.071 38.2746L377.512 40.2254ZM386.793 36.7206C389.491 35.1957 392.112 33.1534 394.659 30.6071L393.244 29.1929C390.804 31.6333 388.325 33.5577 385.809 34.9794L386.793 36.7206ZM394.694 30.5694L408.634 15.0994L407.149 13.7606L393.209 29.2306L394.694 30.5694ZM407.891 15.43H409.591V13.43H407.891V15.43ZM408.592 14.4086L408.082 38.2086L410.081 38.2514L410.591 14.4514L408.592 14.4086ZM409.081 39.23L428.121 39.23V37.23L409.081 37.23V39.23ZM427.121 38.23V41.63H429.121V38.23H427.121ZM428.121 40.63L408.911 40.63V42.63L428.121 42.63V40.63ZM407.911 41.63V102.83H409.911V41.63H407.911ZM407.911 102.83C407.911 106.919 408.785 110.19 410.693 112.48L412.23 111.2C410.738 109.41 409.911 106.674 409.911 102.83H407.911ZM410.714 112.504C412.716 114.757 415.255 115.9 418.261 115.9V113.9C415.828 113.9 413.833 113.003 412.209 111.176L410.714 112.504ZM418.261 115.9C420.807 115.9 423.092 115.292 425.081 114.048L424.021 112.352C422.385 113.375 420.476 113.9 418.261 113.9V115.9ZM425.118 114.024C427.011 112.722 428.884 111.021 430.739 108.934L429.244 107.606C427.472 109.599 425.718 111.184 423.985 112.376L425.118 114.024ZM429.284 108.977L430.984 110.677L432.399 109.263L430.699 107.563L429.284 108.977ZM430.829 109.463C428.653 113.163 425.664 116.1 421.845 118.282L422.838 120.018C426.952 117.667 430.196 114.484 432.553 110.477L430.829 109.463ZM421.845 118.282C418.062 120.444 413.425 121.55 407.891 121.55V123.55C413.691 123.55 418.688 122.39 422.838 120.018L421.845 118.282ZM474.039 120H473.039V121H474.039V120ZM474.039 118.3L473.764 117.338L473.039 117.546V118.3H474.039ZM476.419 117.62L476.164 116.653L476.154 116.656L476.144 116.658L476.419 117.62ZM480.839 114.73L480.007 114.175L479.99 114.2L479.975 114.226L480.839 114.73ZM482.369 109.29L483.367 109.34L483.369 109.315V109.29H482.369ZM481.179 50.64L480.335 51.1769L480.347 51.1954L480.359 51.2135L481.179 50.64ZM476.589 48.09L476.331 49.0562L476.362 49.0644L476.393 49.0706L476.589 48.09ZM474.039 47.41H473.039V48.1783L473.781 48.3762L474.039 47.41ZM474.039 45.71L473.717 44.763L473.039 44.9932V45.71H474.039ZM503.109 35.85L503.816 35.1429L503.376 34.7033L502.787 34.903L503.109 35.85ZM504.809 37.55L505.802 37.4332L505.761 37.0884L505.516 36.8429L504.809 37.55ZM506.169 49.11L505.176 49.2268L505.417 51.2763L506.876 49.8171L506.169 49.11ZM518.919 39.59L518.447 38.7082L518.438 38.7129L518.919 39.59ZM547.139 39.08L546.571 39.9032L546.581 39.91L546.591 39.9165L547.139 39.08ZM554.619 49.28L553.68 49.6236L554.203 51.0532L555.307 50.0055L554.619 49.28ZM568.899 39.42L569.322 40.3262L569.33 40.3221L568.899 39.42ZM601.709 41.46L600.991 42.1565L600.996 42.1618L601.002 42.1671L601.709 41.46ZM613.609 117.79L613.341 118.754L613.346 118.755L613.609 117.79ZM615.479 118.3H616.479V117.536L615.742 117.335L615.479 118.3ZM615.479 120V121H616.479V120H615.479ZM576.209 120H575.209V121H576.209V120ZM576.209 118.3L575.921 117.342L575.209 117.556V118.3H576.209ZM577.909 117.79L578.196 118.748L578.203 118.746L578.21 118.744L577.909 117.79ZM582.329 114.73L581.497 114.175L581.48 114.2L581.465 114.226L582.329 114.73ZM581.139 47.58L580.409 48.2639L580.42 48.2757L580.432 48.2871L581.139 47.58ZM564.309 46.9L564.725 47.8091L564.733 47.8054L564.741 47.8015L564.309 46.9ZM555.639 52.68L554.99 51.9188L554.487 52.3474L554.684 52.9783L555.639 52.68ZM556.659 58.63L555.66 58.6826L555.661 58.7087L555.664 58.7347L556.659 58.63ZM556.999 109.46H555.999V109.473L555.999 109.486L556.999 109.46ZM563.119 117.79L563.435 116.841L563.414 116.834L563.393 116.828L563.119 117.79ZM564.649 118.3H565.649V117.579L564.965 117.351L564.649 118.3ZM564.649 120V121H565.649V120H564.649ZM525.209 120H524.209V121H525.209V120ZM525.209 118.3L524.934 117.338L524.209 117.546V118.3H525.209ZM527.589 117.62L527.863 118.582L527.877 118.578L527.89 118.574L527.589 117.62ZM532.009 114.73L531.177 114.175L531.171 114.184L531.165 114.193L532.009 114.73ZM530.819 47.75L530.047 48.3857L530.058 48.3988L530.069 48.4116L530.819 47.75ZM514.669 46.9L515.1 47.8021L515.116 47.7946L515.131 47.7866L514.669 46.9ZM506.509 52.51L505.848 51.7593L505.509 52.0579V52.51H506.509ZM512.459 117.79L512.775 116.841L512.754 116.834L512.733 116.828L512.459 117.79ZM513.989 118.3H514.989V117.579L514.305 117.351L513.989 118.3ZM513.989 120V121H514.989V120H513.989ZM475.039 120V118.3H473.039V120H475.039ZM474.313 119.262L476.693 118.582L476.144 116.658L473.764 117.338L474.313 119.262ZM476.673 118.587C478.976 117.981 480.728 116.904 481.702 115.234L479.975 114.226C479.362 115.276 478.168 116.125 476.164 116.653L476.673 118.587ZM481.671 115.285C482.709 113.727 483.248 111.72 483.367 109.34L481.37 109.24C481.262 111.393 480.782 113.013 480.007 114.175L481.671 115.285ZM483.369 109.29V56.08L481.369 56.08V109.29L483.369 109.29ZM483.369 56.08C483.369 53.5251 482.971 51.4562 481.998 50.0665L480.359 51.2135C480.973 52.0905 481.369 53.6482 481.369 56.08L483.369 56.08ZM482.022 50.1031C481.018 48.5247 479.171 47.5867 476.785 47.1094L476.393 49.0706C478.539 49.5 479.753 50.262 480.335 51.1769L482.022 50.1031ZM476.846 47.1238L474.296 46.4438L473.781 48.3762L476.331 49.0562L476.846 47.1238ZM475.039 47.41V45.71H473.039V47.41H475.039ZM474.36 46.657L503.43 36.797L502.787 34.903L473.717 44.763L474.36 46.657ZM502.402 36.5571L504.102 38.2571L505.516 36.8429L503.816 35.1429L502.402 36.5571ZM503.816 37.6668L505.176 49.2268L507.162 48.9932L505.802 37.4332L503.816 37.6668ZM506.876 49.8171C510.547 46.146 514.72 43.0294 519.399 40.4671L518.438 38.7129C513.597 41.364 509.27 44.594 505.462 48.4029L506.876 49.8171ZM519.39 40.4718C524.128 37.9379 529.01 36.68 534.049 36.68V34.68C528.661 34.68 523.456 36.0287 518.447 38.7082L519.39 40.4718ZM534.049 36.68C539.358 36.68 543.502 37.7866 546.571 39.9032L547.706 38.2568C544.202 35.84 539.62 34.68 534.049 34.68V36.68ZM546.591 39.9165C549.655 41.9243 552.034 45.126 553.68 49.6236L555.558 48.9364C553.803 44.1407 551.195 40.5424 547.687 38.2435L546.591 39.9165ZM555.307 50.0055C559.655 45.8802 564.327 42.657 569.322 40.3262L568.476 38.5138C563.27 40.943 558.422 44.2932 553.93 48.5545L555.307 50.0055ZM569.33 40.3221C574.434 37.8814 579.33 36.68 584.029 36.68V34.68C578.981 34.68 573.79 35.972 568.467 38.5179L569.33 40.3221ZM584.029 36.68C591.939 36.68 597.516 38.5758 600.991 42.1565L602.426 40.7635C598.422 36.6375 592.212 34.68 584.029 34.68V36.68ZM601.002 42.1671C604.59 45.7551 606.489 51.5067 606.489 59.65H608.489C608.489 51.2466 606.534 44.8715 602.416 40.7529L601.002 42.1671ZM606.489 59.65V109.46H608.489V59.65H606.489ZM606.489 109.46C606.489 111.823 607.035 113.847 608.213 115.45C609.394 117.057 611.136 118.141 613.341 118.754L613.876 116.826C612.002 116.306 610.684 115.435 609.825 114.265C608.962 113.092 608.489 111.517 608.489 109.46H606.489ZM613.346 118.755L615.216 119.265L615.742 117.335L613.872 116.825L613.346 118.755ZM614.479 118.3V120L616.479 120V118.3L614.479 118.3ZM615.479 119L576.209 119V121L615.479 121V119ZM577.209 120V118.3H575.209V120H577.209ZM576.496 119.258L578.196 118.748L577.621 116.832L575.921 117.342L576.496 119.258ZM578.21 118.744C580.498 118.021 582.229 116.886 583.192 115.234L581.465 114.226C580.842 115.294 579.626 116.199 577.608 116.836L578.21 118.744ZM583.161 115.285C584.212 113.708 584.689 111.68 584.689 109.29H582.689C582.689 111.433 582.259 113.032 581.497 114.175L583.161 115.285ZM584.689 109.29V57.27H582.689V109.29H584.689ZM584.689 57.27C584.689 52.4714 583.849 48.8756 581.846 46.8729L580.432 48.2871C581.829 49.6844 582.689 52.5486 582.689 57.27H584.689ZM581.868 46.8961C579.901 44.7982 576.856 43.86 572.979 43.86V45.86C576.581 45.86 578.976 46.7352 580.409 48.2639L581.868 46.8961ZM572.979 43.86C569.872 43.86 566.835 44.5781 563.876 45.9985L564.741 47.8015C567.449 46.5019 570.192 45.86 572.979 45.86V43.86ZM563.892 45.9909C561.065 47.2865 558.098 49.2714 554.99 51.9188L556.287 53.4412C559.299 50.8752 562.112 49.0068 564.725 47.8091L563.892 45.9909ZM554.684 52.9783C555.223 54.702 555.551 56.6016 555.66 58.6826L557.657 58.5774C557.54 56.3517 557.188 54.2847 556.593 52.3817L554.684 52.9783ZM555.664 58.7347C555.887 60.85 555.999 63.0816 555.999 65.43H557.999C557.999 63.0184 557.884 60.7166 557.653 58.5253L555.664 58.7347ZM555.999 65.43V109.46H557.999V65.43H555.999ZM555.999 109.486C556.059 111.842 556.637 113.856 557.808 115.45C558.983 117.05 560.691 118.136 562.844 118.752L563.393 116.828C561.58 116.31 560.284 115.442 559.42 114.265C558.551 113.083 558.051 111.498 557.998 109.434L555.999 109.486ZM562.802 118.739L564.332 119.249L564.965 117.351L563.435 116.841L562.802 118.739ZM563.649 118.3V120H565.649V118.3H563.649ZM564.649 119H525.209V121H564.649V119ZM526.209 120V118.3H524.209V120H526.209ZM525.483 119.262L527.863 118.582L527.314 116.658L524.934 117.338L525.483 119.262ZM527.89 118.574C530.154 117.859 531.881 116.793 532.852 115.267L531.165 114.193C530.55 115.16 529.33 116.021 527.288 116.666L527.89 118.574ZM532.841 115.285C533.892 113.708 534.369 111.68 534.369 109.29H532.369C532.369 111.433 531.939 113.032 531.177 114.175L532.841 115.285ZM534.369 109.29V57.44H532.369V109.29H534.369ZM534.369 57.44C534.369 52.8317 533.514 49.2936 531.568 47.0884L530.069 48.4116C531.523 50.0598 532.369 52.9817 532.369 57.44H534.369ZM531.591 47.1143C529.725 44.8492 526.579 43.86 522.489 43.86V45.86C526.332 45.86 528.739 46.7974 530.047 48.3857L531.591 47.1143ZM522.489 43.86C519.701 43.86 516.937 44.5885 514.206 46.0134L515.131 47.7866C517.614 46.4914 520.063 45.86 522.489 45.86V43.86ZM514.237 45.9979C511.527 47.2942 508.731 49.2226 505.848 51.7593L507.169 53.2607C509.953 50.8107 512.597 48.9991 515.1 47.8021L514.237 45.9979ZM505.509 52.51V109.46H507.509V52.51H505.509ZM505.509 109.46C505.509 111.817 506.038 113.837 507.182 115.439C508.331 117.047 510.03 118.136 512.184 118.752L512.733 116.828C510.921 116.311 509.644 115.444 508.81 114.276C507.971 113.101 507.509 111.523 507.509 109.46H505.509ZM512.142 118.739L513.672 119.249L514.305 117.351L512.775 116.841L512.142 118.739ZM512.989 118.3V120H514.989V118.3H512.989ZM513.989 119H474.039V121H513.989V119ZM683.665 40.27L683.158 41.1324L683.165 41.1365L683.173 41.1406L683.665 40.27ZM695.565 52.51L694.678 52.9726L694.684 52.9842L694.69 52.9956L695.565 52.51ZM699.645 73.93L700.641 74.0205L700.641 74.013L699.645 73.93ZM698.965 77.33V78.33H699.685L699.913 77.6462L698.965 77.33ZM648.305 77.33V76.33H647.295L647.305 77.3393L648.305 77.33ZM654.765 103.85L653.973 104.461L653.98 104.47L653.987 104.479L654.765 103.85ZM687.575 109.12L688.033 110.009L687.575 109.12ZM697.435 101.13L698.104 100.387L697.348 99.7068L696.681 100.473L697.435 101.13ZM699.135 102.66L700.006 103.151L700.399 102.453L699.804 101.917L699.135 102.66ZM685.025 117.28L684.513 116.421L684.505 116.425L685.025 117.28ZM642.695 117.45L642.204 118.321L642.216 118.328L642.695 117.45ZM628.075 102.49L628.953 102.012L628.075 102.49ZM628.925 55.74L629.77 56.274L629.774 56.2674L628.925 55.74ZM644.565 40.78L644.099 39.8951L644.092 39.8985L644.565 40.78ZM655.785 42.14L656.432 42.9019L656.435 42.8993L655.785 42.14ZM650.345 52.68L649.378 52.4223L649.376 52.4299L649.374 52.4375L650.345 52.68ZM648.305 73.93L647.305 73.9176L647.292 74.93H648.305V73.93ZM677.375 73.93V74.93H678.287L678.37 74.0214L677.375 73.93ZM676.015 47.24L676.951 46.8889L676.015 47.24ZM664.795 36.68C672.022 36.68 678.129 38.1803 683.158 41.1324L684.171 39.4076C678.774 36.2397 672.3 34.68 664.795 34.68V36.68ZM683.173 41.1406C688.221 43.994 692.049 47.9338 694.678 52.9726L696.451 52.0474C693.64 46.6595 689.535 42.4393 684.157 39.3994L683.173 41.1406ZM694.69 52.9956C697.431 57.929 698.815 63.5947 698.815 70.02H700.815C700.815 63.2986 699.365 57.2909 696.439 52.0244L694.69 52.9956ZM698.815 70.02C698.815 71.2365 698.759 72.512 698.648 73.8469L700.641 74.013C700.757 72.628 700.815 71.2968 700.815 70.02H698.815ZM698.649 73.8395C698.541 75.0216 698.328 76.0777 698.016 77.0138L699.913 77.6462C700.281 76.5423 700.521 75.3318 700.641 74.0205L698.649 73.8395ZM698.965 76.33L648.305 76.33V78.33L698.965 78.33V76.33ZM647.305 77.3393C647.419 89.6464 649.577 98.7581 653.973 104.461L655.557 103.239C651.566 98.0619 649.417 89.4936 649.305 77.3207L647.305 77.3393ZM653.987 104.479C658.526 110.093 665.191 112.84 673.805 112.84V110.84C665.645 110.84 659.617 108.261 655.542 103.221L653.987 104.479ZM673.805 112.84C679.566 112.84 684.33 111.92 688.033 110.009L687.116 108.231C683.792 109.947 679.376 110.84 673.805 110.84V112.84ZM688.033 110.009C691.677 108.128 695.06 105.379 698.189 101.787L696.681 100.473C693.689 103.908 690.499 106.485 687.116 108.231L688.033 110.009ZM696.766 101.873L698.466 103.403L699.804 101.917L698.104 100.387L696.766 101.873ZM698.263 102.169C694.832 108.257 690.25 113.001 684.513 116.421L685.537 118.139C691.586 114.532 696.411 109.529 700.006 103.151L698.263 102.169ZM684.505 116.425C678.911 119.826 672.129 121.55 664.115 121.55V123.55C672.42 123.55 679.578 121.761 685.544 118.135L684.505 116.425ZM664.115 121.55C656.213 121.55 649.241 119.882 643.173 116.572L642.216 118.328C648.615 121.818 655.923 123.55 664.115 123.55V121.55ZM643.186 116.579C637.121 113.16 632.379 108.312 628.953 102.012L627.196 102.968C630.797 109.588 635.802 114.713 642.204 118.321L643.186 116.579ZM628.953 102.012C625.535 95.7275 623.805 88.1924 623.805 79.37H621.805C621.805 88.4542 623.587 96.3325 627.196 102.968L628.953 102.012ZM623.805 79.37C623.805 70.2246 625.811 62.5427 629.77 56.274L628.079 55.206C623.878 61.8573 621.805 69.9287 621.805 79.37H623.805ZM629.774 56.2674C633.769 49.8316 638.856 44.9724 645.037 41.6615L644.092 39.8985C637.58 43.3876 632.24 48.5017 628.075 55.2126L629.774 56.2674ZM645.03 41.6649C651.353 38.3375 657.937 36.68 664.795 36.68V34.68C657.599 34.68 650.697 36.4225 644.099 39.8951L645.03 41.6649ZM664.285 38.08C660.772 38.08 657.704 39.1774 655.134 41.3807L656.435 42.8993C658.625 41.0226 661.224 40.08 664.285 40.08V38.08ZM655.137 41.3781C652.636 43.5041 650.755 47.2593 649.378 52.4223L651.311 52.9377C652.654 47.9007 654.4 44.6292 656.432 42.9019L655.137 41.3781ZM649.374 52.4375C648.1 57.5363 647.418 64.7105 647.305 73.9176L649.305 73.9423C649.418 64.7895 650.096 57.797 651.315 52.9225L649.374 52.4375ZM648.305 74.93L677.375 74.93V72.93L648.305 72.93V74.93ZM678.37 74.0214C679.505 61.6508 679.076 52.5567 676.951 46.8889L675.078 47.5911C677.033 52.8033 677.511 61.5025 676.379 73.8386L678.37 74.0214ZM676.951 46.8889C675.876 44.0212 674.278 41.7984 672.123 40.2991C669.968 38.7995 667.334 38.08 664.285 38.08V40.08C667.015 40.08 669.227 40.7205 670.981 41.9409C672.736 43.1616 674.114 45.0188 675.078 47.5911L676.951 46.8889Z" fill="#91B1B2" mask="url(#path-1-outside-1_100_294)"/>
</svg>
