<svg width="148" height="165" viewBox="0 0 148 165" fill="none" xmlns="http://www.w3.org/2000/svg">
<path d="M44.0135 161.387L54.1782 154.84L13.8127 36.4026L1.79109 37.3798L0.813721 34.6436L99.8214 0.929993L111.159 34.2527L105.588 36.1094C102.656 35.0345 99.8214 33.3732 97.0848 31.1257C90.8296 25.8487 86.4314 19.3015 83.7925 11.4838L44.0135 25.1647L63.8542 83.4062L85.1609 76.1749C84.379 71.1911 84.5744 66.3051 85.454 61.419C85.845 59.2692 86.3337 57.0216 87.1156 54.8717L92.6866 53.0151L106.956 94.5463L101.385 96.403C99.4304 95.1326 97.6712 93.7645 96.0096 92.201C92.2956 88.9762 89.168 85.0674 86.7246 80.67L65.4179 87.9013L84.9654 145.263L128.458 130.41C125.819 122.592 125.331 114.774 126.992 106.761C127.774 103.341 128.947 100.312 130.706 97.6734L136.277 95.8167L147.615 129.139L44.8931 164.123L44.0135 161.387Z" fill="white"/>
</svg>
