<svg width="139" height="149" viewBox="0 0 139 149" fill="none" xmlns="http://www.w3.org/2000/svg">
<path d="M0.916534 129.666L13.036 129.862L44.8982 8.88362L34.3427 3.02038L35.1245 0.186462L83.309 12.8901C105.886 18.8511 121.622 29.2095 130.614 43.9653C139.606 58.7211 141.365 76.604 135.794 97.5162C130.32 118.428 119.96 133.086 104.909 141.49C89.8573 149.894 70.994 151.165 48.4168 145.204L0.232422 132.5L0.916534 129.666ZM49.5897 140.513C61.3181 143.64 71.6782 141.197 80.5723 133.38C89.4664 125.562 96.8944 110.708 102.661 88.7213C108.427 66.8319 109.405 50.2194 105.398 38.9815C101.488 27.7437 93.6691 20.6101 81.9406 17.5807L76.2718 16.1149L43.9209 138.95L49.5897 140.513Z" fill="white"/>
</svg>
