<svg width="365" height="318" viewBox="0 0 365 318" fill="none" xmlns="http://www.w3.org/2000/svg">
<path d="M27.1027 183.766L27.0977 183.767C18.1824 186.145 11.1256 192.09 5.73485 201.577C-1.52262 214.407 -1.2511 228.846 6.65716 245.169C14.5548 261.469 31.3845 276.931 57.1478 291.629C95.0975 313.077 127.524 321.181 154.467 315.971C181.403 310.763 203.062 293.637 219.637 264.497L27.1027 183.766ZM27.1027 183.766C36.0201 181.288 45.1541 182.762 54.6348 188.152C56.8356 189.453 58.9255 190.848 60.9116 192.537C61.9217 193.395 62.7857 194.107 63.501 194.657C64.1856 195.183 64.7562 195.577 65.1989 195.806L69.86 199.442L34.1934 262.38L34.0508 262.631L34.1979 262.88C35.532 265.139 37.1755 266.994 39.0287 268.442C42.9944 272.606 47.7637 276.155 53.128 279.192C70.1513 288.85 86.8647 289.189 103.227 280.178C119.548 271.189 135.478 252.922 151.066 225.47L151.066 225.47L263.441 27.1644L263.634 26.8236L263.349 26.5545L241.866 6.25799L245.052 0.680875L364.317 68.3392L361.131 73.9169L332.581 65.9562L332.204 65.8512L332.012 66.1913L219.637 264.496L27.1027 183.766Z" stroke="white"/>
</svg>
