<svg width="247" height="282" viewBox="0 0 247 282" fill="none" xmlns="http://www.w3.org/2000/svg">
<path d="M12.0349 208.787C0.697396 193.152 -2.4302 176.344 2.65213 158.363C5.97519 146.539 11.8394 135.594 20.3426 125.431C24.0566 120.545 28.1615 116.343 32.7552 112.728C46.0474 113.216 60.317 114.291 75.6618 115.952C110.065 119.763 139.973 124.552 165.58 130.513L169.392 116.832C178.872 83.1182 181.413 58.6881 176.722 43.6391C172.031 28.5902 161.279 18.6227 144.273 13.8343C137.92 12.0754 132.252 11.2936 127.267 11.4891L120.23 11.9777L100.976 80.3821L94.6228 80.0889C89.5404 79.3071 85.4355 78.4277 82.0147 77.5482C71.6545 74.6165 64.3243 69.1442 59.8283 61.2288C55.3324 53.2157 54.5505 44.1277 57.4827 33.7693C61.3921 19.7953 71.85 9.92552 88.7585 4.16001C105.667 -1.6055 128.049 -0.530579 156.002 7.38479C179.752 14.0298 199.006 23.9973 213.764 37.1896C228.523 50.3818 238.394 65.6263 243.183 82.9228C247.972 100.219 247.679 118.395 242.304 137.549L207.607 260.579L233.019 275.139L231.064 281.98L190.014 270.449C171.737 265.269 159.227 255.693 152.385 241.621C149.453 235.855 147.694 229.113 147.205 221.491C140.755 227.842 133.815 233.315 126.387 237.712C108.892 247.484 89.9314 249.536 69.5043 243.771C42.6266 236.149 23.3724 224.422 12.0349 208.787ZM128.049 223.347C132.643 219.732 137.92 214.65 143.687 208.103L162.355 142.044C148.378 138.135 134.793 135.106 121.598 132.956C111.825 131.49 105.276 130.513 101.855 129.829C99.4119 132.76 96.5775 136.865 93.4499 142.239C87.1947 152.891 82.4056 163.933 79.278 175.171C74.4889 192.174 73.5115 205.562 76.3459 215.139C79.1803 224.813 84.5558 230.774 92.4725 233.022C103.615 236.149 115.539 232.924 128.049 223.347Z" fill="#B9C9CA"/>
</svg>
