<svg width="155" height="202" viewBox="0 0 155 202" fill="none" xmlns="http://www.w3.org/2000/svg">
<path d="M25.0107 1.14832e-06C30.484 0.0977217 35.5663 2.63846 40.0623 7.52449C44.1672 11.9219 46.122 16.5148 46.0242 21.1076C45.9265 25.7982 43.874 29.9025 39.8668 33.6159C38.8894 34.4954 37.912 35.2771 36.8369 35.9612C35.7618 36.6452 34.9799 37.1338 34.6867 37.5247L32.0478 39.2837L10.2524 15.6353C7.41805 19.3487 6.14747 23.9415 6.53842 29.5116C6.92936 34.984 9.07958 43.0948 12.9891 53.6486L17.5827 65.6682L140.634 107.493L151.776 102.02L154.219 104.659L132.326 124.887C126.266 130.457 120.304 133.682 114.44 134.464C108.576 135.245 102.125 134.366 94.9905 131.825L35.7618 111.695L61.2712 175.995L79.2548 169.154L81.6983 171.793L49.3473 201.695L46.9039 199.057L55.9934 180.881L7.71126 58.4369C2.62893 45.4401 0.185503 34.8862 0.380977 26.7754C0.674188 18.6646 3.41083 12.1174 8.78637 7.1336C14.1619 2.24757 19.5375 -0.0977194 25.0107 1.14832e-06Z" fill="white"/>
</svg>
