<svg width="153" height="128" viewBox="0 0 153 128" fill="none" xmlns="http://www.w3.org/2000/svg">
<path d="M20.3706 124.658L32.881 118.99L15.1905 23.0282L1.5073 22.1487L0.920898 18.924L20.566 15.3083C29.1669 13.7448 36.3995 15.2106 42.3615 19.9012C44.6094 21.7579 46.7597 24.1032 48.6167 27.1325C49.985 22.9305 51.7443 19.2171 53.9922 15.9923C59.3677 8.27242 66.8935 3.48413 76.6672 1.72516C84.7794 0.259355 92.4029 0.552493 99.5377 2.80007C106.672 5.04764 112.537 8.5656 117.13 13.4516C121.822 18.3377 124.656 23.81 125.829 29.8687L138.73 99.6412L152.413 100.521L153 103.745L124.656 108.925C111.559 111.368 103.838 105.993 101.395 92.8985L90.9368 36.2205C89.2752 27.0348 86.3431 20.3898 82.1404 16.0901C77.9377 11.7904 73.7351 10.1291 69.3369 10.9109C63.7659 11.8881 59.3677 15.7969 56.1424 22.3442C54.6763 25.1781 53.6013 28.4028 52.9171 31.9208L67.7731 112.638L81.4563 113.517L82.0427 116.742L20.957 127.98L20.3706 124.658Z" fill="white"/>
</svg>
