<svg width="195" height="251" viewBox="0 0 195 251" fill="none" xmlns="http://www.w3.org/2000/svg">
<path d="M35.5508 239.57C24.7998 232.436 16.3944 221.98 10.0415 208.201C3.78628 194.325 0.658691 177.517 0.658691 157.778C0.658691 127.973 7.59803 105.106 21.379 89.1778C35.2576 73.2494 53.9254 65.2363 77.3823 65.2363C88.5244 65.2363 98.2981 67.5816 106.703 72.1744C110.222 73.8357 113.838 76.0832 117.552 79.1126V11.0991L96.6366 5.82213V0.545227H141.987C162.902 0.545227 173.36 11.0013 173.36 31.9135V234.586L194.276 239.863V245.14H162.902C148.926 245.14 138.077 240.84 130.454 232.241C127.228 228.723 124.589 224.325 122.732 218.951C119.703 224.814 115.891 229.993 111.199 234.684C100.742 245.14 87.7425 250.417 72.1045 250.417C58.5191 250.221 46.3019 246.703 35.5508 239.57ZM109.538 224.13C112.079 220.612 114.816 216.019 117.552 210.156V89.7641C115.011 87.2234 112.274 84.8781 109.538 82.826C103.283 78.1354 97.223 75.8878 91.3587 75.8878C81.3895 75.8878 73.5706 81.751 68.195 93.3798C62.7218 105.009 59.9851 126.507 59.9851 157.973C59.9851 187.973 62.5263 208.886 67.5109 220.612C72.4955 232.338 78.7507 238.202 86.1787 238.202C94.7795 238.006 102.599 233.413 109.538 224.13Z" fill="white"/>
</svg>
