<svg width="110" height="77" viewBox="0 0 110 77" fill="none" xmlns="http://www.w3.org/2000/svg">
<path d="M86.5741 75.2404L89.0175 65.8592L28.4205 33.2205L21.8721 40.3541L19.8196 39.2792L29.4956 21.3964C33.9916 13.1879 40.3445 11.2334 48.5544 15.7285L100.844 43.9698L107.392 36.8362L109.445 37.9111L88.6266 76.413L86.5741 75.2404ZM14.7373 22.2758C11.9029 23.1553 9.16631 22.7644 6.33194 21.2986C3.5953 19.8328 1.73829 17.683 0.956394 14.8491C0.0767598 12.0152 0.467708 9.27898 1.93377 6.44508C3.39982 3.70891 5.55001 1.85222 8.38439 1.07045C11.2188 0.190966 13.9554 0.581848 16.7898 2.04766C19.5265 3.51347 21.3835 5.66335 22.1654 8.49725C23.045 11.3311 22.654 14.0673 21.188 16.9012C19.7219 19.6374 17.5717 21.3963 14.7373 22.2758Z" fill="white"/>
</svg>
