<svg width="81" height="87" viewBox="0 0 81 87" fill="none" xmlns="http://www.w3.org/2000/svg">
<path d="M16.7868 77.7743C10.7271 72.2042 7.6973 64.4843 7.6973 54.419V4.3861L0.5625 2.62714V0.868164H34.575V2.62714L27.4402 4.3861V54.419C27.4402 64.6797 29.004 72.0088 32.2294 76.4062C35.4547 80.8036 39.9506 83.0512 45.9126 83.0512C49.5288 83.0512 53.0473 81.8785 56.3704 79.5332C59.6934 77.1879 62.3324 73.8654 64.3848 69.5657C66.4373 65.266 67.4147 60.1846 67.4147 54.5168V6.2428L57.8364 2.62714V0.868164H80.5115V2.62714L70.9332 6.2428V54.5168C70.9332 60.9663 69.7604 66.5364 67.3169 71.3247C64.9713 76.113 61.6482 79.7287 57.5432 82.2694C53.4383 84.8101 48.7469 86.0805 43.4691 86.0805C31.7407 86.0805 22.8465 83.3443 16.7868 77.7743Z" fill="white"/>
</svg>
