<svg width="128" height="144" viewBox="0 0 128 144" fill="none" xmlns="http://www.w3.org/2000/svg">
<path d="M30.6904 135.124C21.1121 129.554 13.6841 121.444 8.50403 110.792C3.32396 100.14 0.685059 87.2413 0.685059 72.0947C0.685059 56.948 3.32396 44.0488 8.50403 33.3973C13.6841 22.7458 21.1121 14.635 30.6904 9.06489C40.2686 3.49481 51.4106 0.758636 64.2142 0.758636C77.0178 0.758636 88.1598 3.49481 97.738 9.06489C107.316 14.635 114.744 22.7458 119.924 33.3973C125.104 44.0488 127.743 56.948 127.743 72.0947C127.743 87.2413 125.104 100.14 119.924 110.792C114.744 121.444 107.316 129.554 97.738 135.124C88.1598 140.695 77.0178 143.431 64.2142 143.431C51.4106 143.431 40.2686 140.695 30.6904 135.124ZM78.3861 133.072C82.7842 128.773 86.4005 121.639 89.2349 111.574C92.0693 101.509 93.5353 88.414 93.5353 72.0947C93.5353 55.7753 92.0693 42.6807 89.2349 32.6155C86.4005 22.5503 82.7842 15.4167 78.3861 11.117C73.9879 6.81729 69.2965 4.66746 64.2142 4.66746C59.1319 4.66746 54.4405 6.81729 50.0423 11.117C45.6441 15.4167 42.0279 22.5503 39.1935 32.6155C36.3591 42.6807 34.8931 55.7753 34.8931 72.0947C34.8931 88.414 36.3591 101.509 39.1935 111.574C42.0279 121.639 45.6441 128.773 50.0423 133.072C54.4405 137.372 59.1319 139.522 64.2142 139.522C69.2965 139.522 73.9879 137.372 78.3861 133.072Z" fill="white"/>
</svg>
