<svg width="141" height="163" viewBox="0 0 141 163" fill="none" xmlns="http://www.w3.org/2000/svg">
<path d="M1.21163 128.61L13.3311 129.196L49.4938 9.48847L39.1337 3.33206L40.0133 0.498169L140.096 30.6938L129.931 64.4074L124.36 62.7462C122.601 60.2055 121.233 57.1761 120.353 53.7559C118.398 45.8405 118.594 37.9252 120.94 30.0098L80.672 17.8924L62.8838 76.8179L84.386 83.2675C86.7316 78.7723 89.6637 74.8635 93.28 71.4433C94.8438 69.8798 96.6031 68.414 98.4601 67.0459L104.031 68.7071L91.3253 110.825L85.7542 109.163C84.8746 107.014 84.2882 104.864 83.7995 102.714C82.6267 97.9256 82.3335 92.9419 82.9199 87.9581L61.4177 81.5085L43.9228 139.555L87.9045 152.845C90.2502 145.027 94.4529 138.284 100.513 132.714C103.151 130.369 105.888 128.61 108.82 127.437L114.391 129.098L104.227 162.714L0.332031 131.444L1.21163 128.61Z" fill="white"/>
</svg>
