<svg width="84" height="92" viewBox="0 0 84 92" fill="none" xmlns="http://www.w3.org/2000/svg">
<path d="M4.4752 64.7978C1.73856 59.6186 0.565715 53.5599 1.0544 46.6218C1.44535 39.6836 3.79104 32.4523 7.896 24.8301C12.001 17.1102 16.9856 11.2469 22.5566 7.14268C28.2253 3.03841 34.1873 0.888547 40.5402 0.595386C46.8931 0.302224 53.1483 1.86574 59.5013 5.28596C63.313 7.33809 66.5383 10.5629 69.275 14.8626C70.3501 16.4261 71.2296 18.2828 72.0115 20.4326C74.064 19.26 76.0188 18.576 77.778 18.1851C79.4396 17.9896 80.417 17.8919 80.5147 17.8919L83.0559 19.26L72.7935 38.4133L68.7863 36.2634C69.6659 32.55 69.8613 28.9343 69.5681 25.4164C69.3726 21.9962 68.493 18.7714 67.027 15.8398C65.5609 12.9082 63.313 10.5629 60.1854 8.90163C55.5917 6.45862 50.314 7.04491 44.352 10.7583C38.39 14.4717 32.2325 22.3871 25.6841 34.4067C19.2335 46.524 15.9104 55.8075 15.9104 62.257C15.9104 68.7066 18.0607 73.104 22.3611 75.4493C24.8046 76.8174 27.8344 76.622 31.2552 75.0585C32.5258 74.4722 33.9918 73.4949 35.7511 72.3223L48.1636 49.1625L42.9837 44.3742L43.7655 42.9084L72.4025 58.3482L71.6206 59.814L64.779 58.0551L46.5999 91.7687L45.1338 90.9869C40.247 88.3485 37.2172 85.026 36.1421 80.9217C35.6534 79.065 35.5556 77.306 35.8488 75.6448C33.9918 76.8174 32.1348 77.6969 30.0823 78.3809C25.3909 79.749 20.895 79.2605 16.3991 76.8174C11.1213 73.9835 7.21184 69.977 4.4752 64.7978Z" fill="white"/>
</svg>
