<svg width="160" height="143" viewBox="0 0 160 143" fill="none" xmlns="http://www.w3.org/2000/svg">
<path d="M56.4271 140.655L64.5393 133.423L12.5432 33.4552L1.98755 35.9959L0.814697 33.6506L42.2552 12.1521C59.9457 2.96636 74.1175 -1.04016 84.7709 0.327931C95.3265 1.5983 103.145 7.0706 108.13 16.6472C111.453 23.0968 112.528 29.2532 111.16 35.0187C109.792 40.7843 106.957 46.1589 102.559 50.9472C97.9654 56.1264 92.4921 60.4261 86.0415 63.8463L86.4324 64.6281C90.4396 62.8691 94.0559 61.6964 97.4767 61.1101C105.98 59.6443 113.017 61.1101 118.783 65.703L149.082 89.6445L158.074 87.8855L159.247 90.2309L137.353 101.566C128.85 105.964 120.249 104.791 111.649 98.0485L77.7338 70.9799L67.5692 76.2568L90.3419 120.036L102.461 116.713L103.634 119.058L57.5022 143L56.4271 140.655ZM71.8696 69.1232C79.1999 65.3121 83.6958 60.0352 85.455 53.2924C87.2143 46.5497 85.9437 38.9275 81.4478 30.3281C77.0497 21.8264 71.4786 16.3541 64.9303 13.9111C58.3819 11.468 51.4425 12.1521 44.21 15.9632L37.9548 19.188L65.5167 72.3479L71.8696 69.1232Z" fill="white"/>
</svg>
