<svg width="80" height="113" viewBox="0 0 80 113" fill="none" xmlns="http://www.w3.org/2000/svg">
<path d="M19.0496 110.324L26.9663 106.611L9.56912 17.5876L0.772778 17.099L0.381836 15.0469L74.8575 0.584229L79.7444 25.6007L75.5417 26.3825C73.4892 25.3075 71.6322 23.8417 69.8729 21.985C65.9634 17.5876 63.4223 12.4084 62.2494 6.54519L32.3419 12.4084L40.845 56.285L56.8739 53.1579C56.8739 49.5422 57.3626 46.0243 58.5354 42.6041C59.0241 41.0405 59.6105 39.5747 60.3924 38.0112L64.5951 37.2294L70.6548 68.5L66.4521 69.2818C65.1816 68.2069 64.0087 67.0342 63.0313 65.7639C60.6856 63.0277 58.8286 59.9983 57.4603 56.5781L41.4314 59.7052L49.7391 102.116L58.5354 102.604L58.9264 104.657L19.2451 112.377L19.0496 110.324Z" fill="white"/>
</svg>
