<svg width="86" height="86" viewBox="0 0 86 86" fill="none" xmlns="http://www.w3.org/2000/svg">
<path d="M0.677493 71.9064L10.158 72.2972L28.8258 7.80167L20.6158 3.0134L21.3 0.765808L34.4945 4.5769C40.261 6.23815 44.2682 9.46294 46.5162 14.0558C47.3958 15.9125 47.8845 17.9646 48.1777 20.4076C50.2302 18.6487 52.6736 17.2806 55.3125 16.1079C61.3722 13.5672 67.3342 13.274 73.3939 15.033C78.574 16.4988 82.0925 18.8441 84.0472 21.9712C85.9043 25.0982 86.1975 28.9093 84.9269 33.4045C83.9495 36.727 82.1902 39.0723 79.6491 40.5381C77.1079 42.0039 74.0781 42.1993 70.755 41.2221C69.3867 40.8312 68.0183 40.3426 66.7478 39.7563L65.0862 38.7791L71.0482 18.2578C66.0636 16.792 60.9813 17.476 55.7035 20.2122C53.1623 21.5803 51.0121 23.1439 49.3506 24.7074L33.6149 78.9423L41.8248 83.7306L41.1406 85.9781L0.0910645 74.0563L0.677493 71.9064Z" fill="white"/>
</svg>
