<svg width="165" height="152" viewBox="0 0 165 152" fill="none" xmlns="http://www.w3.org/2000/svg">
<path d="M137.266 141.187C128.568 149.395 118.599 152.718 107.163 151.154C99.6377 150.079 92.4051 147.441 85.4658 143.043C82.1427 141.187 79.2106 139.037 76.6694 136.496C75.8876 128.288 75.3011 119.395 75.1057 109.916C74.617 88.5153 75.0079 69.753 76.5717 53.6291L67.8731 52.3587C46.3709 49.3293 31.2217 49.818 22.3276 53.9222C13.4335 58.0265 8.25347 65.4532 6.78741 76.3002C6.20099 80.4045 6.20099 83.9224 6.78741 86.9518L7.66705 91.2515L51.1601 97.4079L51.4533 101.317C51.4533 104.444 51.2578 107.082 50.9646 109.232C50.085 115.779 47.3483 120.763 42.7547 124.183C38.2588 127.604 32.6877 128.874 26.1394 127.897C17.2453 126.626 10.3059 121.056 5.41909 111.186C0.532237 101.317 -0.738346 87.5381 1.80282 69.6552C3.95304 54.6063 8.44894 41.9026 15.2905 31.7396C22.1321 21.5767 30.6353 14.2477 40.8977 9.85024C51.0623 5.45282 62.3021 4.18244 74.4215 5.84369L152.807 16.8861L159.648 0.078186L164.046 0.664515L160.332 26.7559C158.671 38.3846 153.882 46.8863 145.77 52.261C142.447 54.6063 138.537 56.1698 133.846 57.0493C138.342 60.4695 142.251 64.2806 145.574 68.4826C153.1 78.4501 155.837 89.8834 154.077 102.783C151.536 120.177 145.965 132.88 137.266 141.187ZM136.582 68.8735C133.943 66.3327 130.425 63.5966 125.929 60.5672L83.8043 54.6063C82.5337 63.4989 81.8495 72.0983 81.654 80.3068C81.5563 86.3655 81.4586 90.5675 81.3608 92.7173C83.3156 93.9877 86.15 95.3557 89.6685 96.8215C96.7056 99.7531 103.84 101.805 111.073 102.783C121.922 104.346 130.132 103.76 135.898 101.219C141.567 98.6782 144.792 94.8671 145.476 89.8834C146.454 82.7498 143.522 75.7139 136.582 68.8735Z" fill="white"/>
</svg>
