<svg width="111" height="160" viewBox="0 0 111 160" fill="none" xmlns="http://www.w3.org/2000/svg">
<path d="M62.0122 157.898C58.005 156.041 55.0729 152.524 53.3136 147.442C51.7498 142.849 51.7498 138.843 53.3136 135.422C54.8774 132.002 57.8095 129.559 61.9145 128.191C62.8918 127.898 63.8692 127.605 64.9444 127.409C66.0195 127.214 66.7036 127.116 66.9968 127.018L69.4402 126.53L77.9434 151.058C81.2664 149.201 83.7098 146.172 85.1759 141.97C86.7397 137.768 87.7171 131.123 88.2058 121.937L88.6945 111.579L11.0912 40.7312L1.02425 41.1221L0.046875 38.3859L22.8196 30.4706C29.0748 28.3207 34.5481 27.8321 39.1417 29.2002C43.7354 30.5682 48.2313 33.3044 52.7272 37.4087L90.0627 71.5132L92.0175 15.617L76.4773 14.933L75.4999 12.1968L109.121 0.470337L110.099 3.2065L97.4908 13.7603L93.679 120.08C93.2881 131.416 91.6265 140.015 88.7922 145.976C85.9578 151.937 81.7551 155.846 76.1841 157.8C70.8086 159.657 66.0195 159.755 62.0122 157.898Z" fill="white"/>
</svg>
