<svg width="62" height="93" viewBox="0 0 62 93" fill="none" xmlns="http://www.w3.org/2000/svg">
<path d="M47.4478 92.7437C45.0348 92.1246 43.0464 90.4718 41.5468 87.8296C40.2061 85.4388 39.7927 83.2127 40.3067 81.1514C40.8208 79.0902 42.1942 77.431 44.3287 76.2483C44.8402 75.9848 45.3518 75.7213 45.9277 75.502C46.5035 75.2828 46.8727 75.1581 47.0251 75.0736L48.3293 74.5506L55.5737 87.3031C57.2243 85.9295 58.2663 83.9948 58.6455 81.5092C59.0789 79.0136 58.9351 75.221 58.2583 70.067L57.4605 64.2615L7.1308 32.8867L1.59041 34.1401L0.766296 32.7205L12.574 25.9784C15.8198 24.14 18.8036 23.3051 21.4913 23.5924C24.179 23.8796 26.9536 24.9371 29.8695 26.7546L54.0855 41.86L49.4022 10.6024L40.7168 11.8221L39.8926 10.4025L57.3213 0.426144L58.1454 1.84577L52.2448 9.00742L61.1009 68.472C62.0537 74.8104 62.0198 79.7593 61.0636 83.363C60.1073 86.9668 58.1808 89.5712 55.2941 91.2305C52.5056 92.8155 49.8608 93.3628 47.4478 92.7437Z" fill="#B9C9CA"/>
</svg>
