<svg width="119" height="101" viewBox="0 0 119 101" fill="none" xmlns="http://www.w3.org/2000/svg">
<path d="M30.5162 96.1119C24.7497 93.0826 20.1561 89.0761 16.9307 84.0923C13.7054 79.1086 12.0439 73.9294 12.0439 68.457V5.91585L0.31543 2.98423V0.0526123H25.7271C37.4555 0.0526123 43.3198 5.91585 43.3198 17.6423V68.457C43.3198 76.6655 44.7858 82.9196 47.7179 87.3171C50.65 91.7145 54.0708 93.8644 57.9803 93.8644C62.7695 93.8644 67.1676 91.2259 71.0771 86.0467C72.5432 84.0923 74.0092 81.4538 75.573 78.2291V5.91585L63.8446 2.98423V0.0526123H118.577V2.98423L106.849 5.91585V98.7504H104.894C95.4137 98.7504 88.1812 96.1119 83.1966 90.9327C80.9486 88.5875 79.3848 85.949 78.5051 83.1151C76.6481 86.3399 74.4979 89.2715 72.0545 91.91C66.1903 97.7732 58.86 100.705 50.1614 100.705C42.8311 100.705 36.2827 99.1413 30.5162 96.1119Z" fill="white"/>
</svg>
