<svg width="103" height="106" viewBox="0 0 103 106" fill="none" xmlns="http://www.w3.org/2000/svg">
<path d="M1.54318 66.5645C-1.48667 53.8608 1.34771 40.6685 9.85084 26.9876C15.4219 17.9973 21.9703 11.2546 29.5937 6.75947C37.1195 2.26432 45.1339 0.11447 53.4416 0.407631C61.7493 0.700793 69.9592 3.33925 77.8759 8.22528C85.8903 13.209 91.95 19.0723 96.055 25.815C100.258 32.5577 102.408 39.4959 102.506 46.5318C102.603 53.5676 100.844 60.2127 97.0324 66.2713C95.2731 69.0075 93.5138 71.2551 91.7546 72.9163L89.2134 75.2616C83.8379 73.3072 78.1691 70.9619 72.2071 68.128C59.5991 62.5579 47.2842 56.1084 35.458 48.6816C27.4435 61.483 23.534 71.7437 23.6318 79.4636C23.7295 87.1835 26.9549 92.949 33.1123 96.7601C37.4127 99.3986 42.1041 100.962 47.0887 101.158C52.0733 101.451 56.6669 100.571 60.9674 98.5191C65.2678 96.467 68.4931 93.7308 70.6433 90.1151L74.7483 92.6559C72.0116 97.0533 68.0044 100.473 62.9221 102.819C57.742 105.164 52.0733 106.044 45.8181 105.457C39.5629 104.871 33.4055 102.623 27.1503 98.8123C13.1739 90.0174 4.57303 79.2682 1.54318 66.5645ZM55.885 54.4471C57.8398 55.522 59.99 56.4992 62.3357 57.3787C62.8244 56.8901 63.8017 55.8152 65.4633 54.2516C67.7112 51.8086 69.8615 49.0725 71.7185 45.9454C77.3872 36.7597 80.417 29.3329 80.6125 23.4697C80.808 17.7041 79.2442 13.6976 75.8234 11.6455C67.5157 6.46631 54.9076 17.411 38.0969 44.5773C45.1339 48.9748 51.0959 52.2972 55.885 54.4471Z" fill="white"/>
</svg>
