<svg width="126" height="140" viewBox="0 0 126 140" fill="none" xmlns="http://www.w3.org/2000/svg">
<path d="M1.58037 79.3642L12.7224 82.6867L54.6516 11.1552L46.344 3.04439L47.81 0.601379L62.4706 9.20078C68.8235 12.9142 72.733 17.9956 74.0036 24.2497C74.4922 26.6928 74.4923 29.4289 74.1013 32.3606C77.2289 30.4062 80.4542 29.038 83.7773 28.1586C91.4985 26.1064 99.0243 27.2791 106.257 31.4811C112.317 34.999 117.008 39.4942 120.331 44.8688C123.654 50.2434 125.511 55.8135 125.804 61.4813C126.097 67.1491 124.925 72.3283 122.286 76.8234L91.4985 128.811L99.8062 136.922L98.3401 139.365L77.2289 126.954C67.4552 121.286 65.5005 113.469 71.1692 103.794L95.8967 61.579C99.9039 54.7386 101.761 48.7776 101.468 43.7939C101.175 38.7124 99.4152 35.2922 96.0922 33.3378C91.9872 30.8948 87.0026 30.8948 81.2361 33.3378C78.7927 34.315 76.2516 35.7808 73.8081 37.7352L38.7205 97.8334L47.0281 105.944L45.5621 108.387L0.0166016 81.7095L1.58037 79.3642Z" fill="white"/>
</svg>
