<svg width="74" height="78" viewBox="0 0 74 78" fill="none" xmlns="http://www.w3.org/2000/svg">
<path d="M14.05 67.585C12.4862 66.0214 11.3134 64.4579 10.5315 62.6989C9.06547 63.8716 7.50167 64.8488 5.64467 65.5329C4.17861 66.0215 3.39671 66.2169 3.20124 66.2169L0.757812 65.3374L7.20844 46.575L11.1179 47.9432C11.0202 51.4611 11.4111 54.8813 12.2908 58.0084C14.3433 65.142 18.5459 69.7348 24.8988 71.9824C28.6128 73.2528 32.0337 73.1551 35.0635 71.6892C38.0934 70.2234 40.2436 67.585 41.5141 63.8716C42.296 61.7218 42.2961 59.5719 41.6119 57.4221C40.9278 55.2722 39.8527 53.22 38.3866 51.2656C36.9206 49.3112 34.868 46.7705 32.1314 43.5457C28.6129 39.6369 25.8762 36.2167 23.8238 33.2851C21.7713 30.3535 20.3052 27.1286 19.5233 23.4153C18.6437 19.7996 18.9369 15.8908 20.3052 11.7865C21.3803 8.56177 23.3351 5.92331 25.974 3.9689C28.7106 2.01449 32.1314 0.841842 36.2364 0.54868C40.3413 0.255518 45.1304 1.03727 50.3105 2.79624C54.1222 4.06661 57.5431 6.50965 60.6707 10.0276C61.8435 11.298 62.9186 12.8615 63.896 14.7182C65.5575 13.3501 67.219 12.4706 68.7828 11.8842C70.2489 11.3956 71.0308 11.2002 71.2263 11.2002L73.6697 12.0797L67.2191 30.8421L63.3096 29.4739C63.505 26.0537 63.2118 22.7313 62.4299 19.6042C61.7458 16.5749 60.4752 13.8387 58.7159 11.3956C56.9566 8.95263 54.5132 7.19369 51.4833 6.11876C48.9422 5.23928 46.401 5.53243 43.8599 6.90052C41.3187 8.26861 39.4617 10.6139 38.3866 13.741C37.507 16.184 37.5069 18.627 38.2888 21.07C39.0707 23.513 40.2436 25.7606 41.8074 27.9104C43.3712 30.0603 45.6191 32.7965 48.4535 36.0212C51.7766 39.8323 54.4155 43.0571 56.3702 45.7933C58.3249 48.5295 59.6933 51.5588 60.5729 54.8813C61.4525 58.2038 61.2571 61.6241 59.9865 65.2397C58.7159 68.8554 56.6634 71.6892 53.6336 73.9368C50.6037 76.1844 46.6943 77.4548 42.1006 77.7479C37.4092 78.0411 32.1314 77.1616 26.2672 75.2072C21.3803 73.6436 17.3731 71.1029 14.05 67.585Z" fill="white"/>
</svg>
