<svg width="130" height="208" viewBox="0 0 130 208" fill="none" xmlns="http://www.w3.org/2000/svg">
<path d="M3.84398 202.736L21.1435 198.436V75.699H0.911865V68.4677H21.1435V54.005C21.1435 43.842 23.5869 34.6563 28.4737 26.5455C33.3606 18.4347 40.3977 12.0829 49.585 7.49002C58.7723 2.89715 69.4256 0.55188 81.8382 0.55188C91.8074 0.55188 100.506 2.01766 107.739 5.047C114.971 8.07634 120.444 11.9851 124.061 16.8712C127.677 21.7572 129.534 26.9364 129.534 32.3111C129.534 38.8583 127.579 44.1352 123.572 48.0441C119.662 51.9529 114.385 54.005 107.836 54.005C105.1 54.005 102.461 53.8096 99.7241 53.4187L96.3033 52.5392V7.78317L93.6644 7.19687C92.8825 7.00143 92.0029 6.80595 91.0255 6.61051C90.0481 6.41507 88.8753 6.31736 87.6047 6.31736C81.0563 6.31736 76.0717 9.73758 72.5532 16.578C69.1324 23.4185 67.3731 35.9267 67.3731 54.005V68.4677H113.603V75.699H67.3731V198.436L84.6726 202.736V207.035H3.74627V202.736H3.84398Z" fill="white"/>
</svg>
