<svg width="55" height="138" viewBox="0 0 55 138" fill="none" xmlns="http://www.w3.org/2000/svg">
<path d="M0.17041 134.775L11.8989 131.844V45.8498L0.17041 42.9182V39.9865H25.5821C37.3105 39.9865 43.1747 45.8498 43.1747 57.5762V131.844L54.9032 134.775V137.707H0.17041V134.775ZM15.8083 24.3513C13.1694 21.7128 11.8989 18.488 11.8989 14.5792C11.8989 10.6704 13.1694 7.44559 15.8083 4.80714C18.4473 2.16868 21.6726 0.898315 25.5821 0.898315C29.4915 0.898315 32.7169 2.16868 35.3558 4.80714C37.9947 7.44559 39.2653 10.6704 39.2653 14.5792C39.2653 18.488 37.9947 21.7128 35.3558 24.3513C32.7169 26.9897 29.4915 28.2601 25.5821 28.2601C21.6726 28.2601 18.3495 26.9897 15.8083 24.3513Z" fill="white"/>
</svg>
