<svg width="177" height="210" viewBox="0 0 177 210" fill="none" xmlns="http://www.w3.org/2000/svg">
<path d="M9.42323 157.575C3.65674 149.074 0.626891 138.813 0.138206 126.793C-0.35048 114.676 2.4839 101.386 8.44586 86.8255C17.4377 64.9361 29.4594 50.1804 44.5109 42.6559C59.5624 35.1314 75.689 34.8382 92.9885 41.9718C101.198 45.392 107.747 49.9849 112.438 55.9458C114.491 58.1934 116.445 61.0273 118.302 64.3498L138.827 14.2191L124.949 4.05624L126.512 0.245117L159.938 13.926C175.381 20.2778 179.877 31.1248 173.524 46.5647L112.34 195.589L126.219 205.751L124.655 209.563L101.492 200.084C91.2292 195.882 84.5831 189.432 81.4555 180.735C80.0872 177.217 79.5985 173.113 79.794 168.618C75.7867 171.94 71.3886 174.676 66.5994 176.728C55.7506 181.224 44.5109 181.224 33.0756 176.435C23.1064 172.331 15.1897 165.979 9.42323 157.575ZM68.5542 168.52C71.4863 166.761 74.9071 164.123 78.7189 160.702L115.077 72.0697C114.002 69.4313 112.731 66.8905 111.265 64.5452C108.04 59.2683 104.326 55.6527 100.026 53.8937C92.6953 50.8644 85.1695 52.8188 77.6437 59.757C70.118 66.6951 61.6149 81.6464 52.1344 104.806C43.0448 126.891 38.5489 143.015 38.7444 153.178C38.8421 163.341 41.6765 169.497 47.1497 171.745C53.5026 174.285 60.6375 173.211 68.5542 168.52Z" fill="#7F9A9C"/>
</svg>
