<svg width="134" height="188" viewBox="0 0 134 188" fill="none" xmlns="http://www.w3.org/2000/svg">
<path d="M50.4507 187.622C41.4588 187.525 34.6173 186.059 30.0236 183.323C25.3322 180.587 22.4979 177.166 21.325 172.964C19.9567 167.883 20.3476 163.388 22.5956 159.577C24.8435 155.668 28.4598 153.127 33.5422 151.759C34.715 151.466 36.9629 151.075 40.1883 150.684L42.7294 150.489L51.1348 181.759C53.0896 181.857 56.1194 181.857 60.2244 181.662C67.4569 181.271 74.103 180.293 80.2605 178.632C98.4396 173.746 111.048 167.59 118.085 160.163C125.122 152.736 127.565 145.31 125.513 137.687C122.874 128.013 112.709 125.57 94.8233 130.358L52.4054 141.889C41.2634 144.919 32.0761 144.919 24.8435 141.889C17.611 138.86 13.1151 133.778 11.1603 126.645C9.20559 119.511 11.0626 112.28 16.5359 104.853C18.7838 102.019 21.9114 99.1854 25.7232 96.3515C19.2725 94.3971 14.1902 91.4655 10.4762 87.3612C6.76218 83.3547 4.02554 78.0777 2.26628 71.5304C-0.665838 60.488 1.09342 50.5205 7.54407 41.4325C14.0925 32.4422 25.3322 25.6995 41.4588 21.3998C48.4959 19.5431 55.0443 18.4682 61.2995 18.2727C67.5547 18.0773 72.8325 18.7613 77.0352 20.1294C77.5239 17.2955 78.5012 14.6571 79.9673 12.2141C83.1926 6.54626 88.1772 2.83288 94.7256 1.07391C99.8079 -0.294174 104.499 0.292144 108.897 2.9306C113.296 5.47133 116.228 9.5756 117.694 15.2434C118.867 19.5431 118.671 23.3542 117.107 26.6767C115.544 29.9992 112.905 32.1491 109.386 33.0286C107.725 33.5172 105.868 33.8103 103.717 34.1035L101.274 34.0058L94.0414 7.23033C90.1319 8.30525 87.0043 11.1391 84.5609 15.732C83.5835 17.3932 82.8994 19.6408 82.5084 22.2793C91.6957 26.8722 97.7554 34.3966 100.59 44.9504C103.522 55.9929 101.763 65.9604 95.312 75.0484C88.7636 84.0387 77.5239 90.7814 61.3972 95.0811C50.6461 98.0127 40.4815 98.6968 30.9032 97.3287L26.9938 100.749C25.7232 102.019 24.8435 103.192 24.3548 104.267C23.8662 105.244 23.7684 106.417 24.0616 107.589C24.7458 110.13 26.6028 111.694 29.5349 112.378C32.467 113.062 37.3539 112.475 44 110.619L86.4179 99.1854C97.5599 96.156 107.236 97.0355 115.25 101.824C123.363 106.612 128.934 114.821 132.061 126.352C135.286 138.274 132.941 149.218 125.024 159.381C117.107 169.446 103.326 177.166 83.6813 182.443C70.4868 186.059 59.4425 187.818 50.4507 187.622ZM69.8026 80.423C71.2687 74.9507 70.389 66.1558 67.1637 54.0385C63.9384 42.0188 60.2244 33.908 56.2171 29.9015C52.2099 25.8949 47.714 24.5268 42.8272 25.8949C37.9403 27.263 34.715 30.6832 33.2489 36.1556C31.7829 41.6279 32.6625 50.4228 35.8878 62.5401C39.1132 74.5598 42.8272 82.6706 46.8344 86.6771C50.8416 90.6837 55.3375 92.0518 60.2244 90.6837C65.1112 89.3156 68.3365 85.8954 69.8026 80.423Z" fill="white"/>
</svg>
