<svg width="98" height="104" viewBox="0 0 98 104" fill="none" xmlns="http://www.w3.org/2000/svg">
<path d="M78.8976 83.5141C76.4541 85.4685 74.0107 86.8366 71.7627 87.7161C73.3265 90.4523 74.3039 93.0907 74.6949 95.6314C74.8903 96.9018 74.9881 98.1722 74.9881 99.5403L73.2288 103.449L46.5465 91.5272L49.3809 85.2731C54.3655 85.8594 59.3501 85.664 64.3347 84.7845C74.8903 82.8301 82.0251 77.7486 85.6414 69.4423C87.5961 65.0449 87.9871 61.2338 86.912 58.009C85.7392 54.7842 83.198 52.2436 79.093 50.4846C75.6722 48.9211 72.056 49.2142 68.3419 51.2663C64.6279 53.3185 59.5456 56.8364 53.1927 61.9178C47.8172 66.3153 43.2235 69.7355 39.4117 72.2763C35.6 74.817 31.3973 76.4782 26.9014 77.4554C22.4055 78.4326 17.8118 77.8463 13.2182 75.7942C6.96301 72.9603 3.05353 68.0743 1.48973 60.8429C-0.0740618 53.7093 1.68519 44.5236 6.66979 33.2857C9.11322 27.7157 12.925 23.2205 17.9096 19.898C20.2552 18.2367 22.601 16.8687 24.8489 15.7938C23.5783 13.5462 22.601 11.0054 21.9168 7.87838C21.6236 5.6308 21.5258 4.36044 21.6236 3.96955L23.3829 0.06073L50.0651 11.9827L47.2307 18.2368C42.0506 17.8459 37.1638 17.9436 32.5701 18.6276C22.1123 20.1912 15.1729 24.5886 11.9476 31.8199C10.677 34.6538 10.677 37.4877 11.8498 40.4193C13.0227 43.3509 15.2707 45.5008 18.3982 46.8689C22.4055 48.6279 26.4127 48.4324 30.6154 46.2826C34.8181 44.1327 40.0959 40.4193 46.5465 35.1424C51.8243 30.8427 56.3202 27.5202 59.9365 25.1749C63.5528 22.8296 67.4623 21.1684 71.665 20.1912C75.8677 19.214 80.0704 19.7026 84.2731 21.5593C99.4223 28.302 101.67 43.7418 90.9192 67.7811C87.9871 74.4261 83.9799 79.6053 78.8976 83.5141Z" fill="white"/>
</svg>
