<svg width="94" height="124" viewBox="0 0 94 124" fill="none" xmlns="http://www.w3.org/2000/svg">
<path d="M7.28188 28.405C7.15248 28.7361 7.06759 28.8598 6.98211 29.025C14.364 27.2983 21.854 26.7382 29.3844 26.2619C30.0915 26.2303 30.5499 26.1536 30.8532 25.284C32.3644 21.3105 34.0822 17.4231 35.717 13.5345C36.0601 12.7903 36.5272 12.0895 36.8294 11.3031C37.217 10.3515 37.4389 9.35593 37.8675 8.44649C38.3388 7.45443 38.9348 6.46413 39.5296 5.55704C40.4219 4.19641 41.4376 2.92076 42.3713 1.56071C42.7958 0.942506 43.3033 0.325474 44.0461 0.710478C44.8304 1.09607 45.8254 1.27657 45.8903 2.56749C45.9569 3.73359 46.3559 4.9044 46.5893 6.03125C49.3208 18.5953 53.5127 30.7639 58.0815 42.7298C59.7241 47.0807 62.0772 51.1504 64.1371 55.3824C65.874 58.944 67.6524 62.5062 69.5145 66.028C70.2033 67.2861 71.1848 68.4236 72.1217 69.7684C72.3799 69.1478 72.6387 68.4857 72.9795 67.9079C73.2347 67.4954 73.7375 67.2112 73.9934 66.7571C76.1245 63.042 78.2555 59.3269 80.3866 55.6118C80.4721 55.4466 80.5576 55.2813 80.6425 55.1577C80.8965 54.8284 81.1922 54.4996 81.4878 54.1709C81.7318 54.5489 82.1017 54.8454 82.1374 55.262C82.7457 59.2655 83.3539 63.2689 83.8375 67.2706C84.7661 75.0653 85.7357 82.9023 86.4559 90.7357C87.0317 97.0274 88.3169 103.121 89.7263 109.258C90.7044 113.558 91.4748 117.855 92.2446 122.194C92.3616 122.736 92.2257 123.525 91.8885 123.853C91.6356 124.099 90.7231 123.962 90.2695 123.705C85.9793 121.398 81.6469 119.131 77.4842 116.617C73.4867 114.189 69.6601 111.43 65.7059 108.877C60.9275 105.814 56.0649 102.832 51.3281 99.7691C47.086 97.0044 42.9702 94.1166 38.7702 91.3108C37.5762 90.5033 36.3412 89.6536 35.1466 88.8877C34.8996 88.7178 34.5238 88.8373 34.2763 88.709C33.9046 88.5373 33.41 88.239 33.3726 87.9472C33.3352 87.6553 33.7175 87.0782 34.0511 86.9996C36.0969 86.3627 38.1831 85.8096 40.2688 85.2981C43.0638 84.5885 45.8993 83.9627 48.9443 83.2151C48.0863 82.1626 47.4349 81.1963 46.6144 80.4357C41.8152 75.9154 37.7325 70.6977 33.4806 65.6857C28.5756 59.8322 23.7976 53.8141 18.8511 47.9601C16.6435 45.3489 14.183 42.9838 11.7231 40.5771C9.01685 37.9589 6.14315 35.4216 3.35257 32.8854C2.90132 32.4629 2.28148 32.2045 1.7875 31.8646C1.58206 31.6952 1.29528 31.3999 1.29824 31.1919C1.30178 30.9422 1.55585 30.6129 1.80698 30.4916C3.60522 29.7264 5.36014 29.0853 7.28188 28.405ZM53.5529 36.7151C53.2329 35.8368 52.952 35.1254 52.7548 34.3736C52.5565 33.7049 52.1848 33.5332 51.562 33.4828C50.3568 33.4658 49.1124 33.2818 47.9072 33.2648C44.4168 33.1739 40.8855 33.0408 37.3946 32.9915C34.901 32.9563 32.3636 33.0869 29.8701 33.0517C24.1765 32.9713 18.4426 32.8072 12.749 32.7268C10.962 32.7015 9.21413 32.8433 7.38436 32.9007C8.57481 33.9578 9.64177 34.93 10.7509 35.8611C10.9973 36.0727 11.3707 36.1196 11.7032 36.1243C13.7396 36.153 15.8181 36.1408 17.8545 36.1695C27.6612 36.3912 37.4257 36.6539 47.2324 36.8756C49.2267 36.9454 51.3076 36.7667 53.5529 36.7151ZM55.11 41.2313C54.7507 40.1859 54.3891 39.307 54.1521 38.4297C53.9935 37.8865 53.746 37.7582 53.2057 37.7506C50.5442 37.8378 47.9242 37.9257 45.2644 37.8881C35.8306 37.7549 26.3967 37.6217 16.9629 37.4885C15.5083 37.468 14.0537 37.4475 12.2667 37.4222C13.2096 38.351 13.8223 39.1087 14.5615 39.7433C15.0134 40.1242 15.5905 40.4653 16.1723 40.4735C19.0796 40.6394 22.0297 40.7227 24.9383 40.8053C29.5501 40.9537 34.121 41.0598 38.7334 41.1666C41.601 41.2071 44.5113 41.1649 47.3788 41.2054C49.873 41.199 52.4081 41.2348 55.11 41.2313ZM82.7283 72.2069C69.1778 72.182 55.6847 71.0344 41.9502 72.2553C43.0136 73.4771 43.8722 74.4879 44.7729 75.4578C44.9368 75.6265 45.2687 75.6728 45.518 75.6763C52.4221 75.3993 59.3689 75.0396 66.2718 74.8458C70.5548 74.7398 74.8347 74.8419 79.1159 74.8607C80.3626 74.8783 81.6106 74.8127 82.9411 74.7899C82.8709 73.8734 82.7984 73.1233 82.7283 72.2069ZM36.9016 88.2467C38.0955 89.0542 39.128 89.5265 40.4193 89.3367C41.0854 89.2628 41.7925 89.2312 42.4984 89.2828C47.3584 89.5179 52.2594 89.7951 57.1195 90.0302C64.8465 90.3474 72.574 90.6229 80.301 90.9401C81.7966 91.0028 83.2523 90.9401 84.7906 90.9202C84.6777 90.0864 84.6046 89.3779 84.49 88.6689C82.4132 88.5563 80.4617 88.404 78.4675 88.3342C75.1439 88.204 71.8608 88.1577 68.5373 88.0275C61.1422 87.7567 53.7898 87.4032 46.3947 87.1323C44.9407 87.0702 43.482 87.3409 42.0286 87.2371C40.2838 87.1709 38.6969 87.6894 36.9016 88.2467ZM24.3857 50.4518C25.2027 51.462 25.9384 52.3463 26.7156 53.2311C26.8795 53.3999 27.2114 53.4462 27.4613 53.4081C32.1183 53.3074 36.7776 53.0403 41.4322 53.106C47.9147 53.2391 54.4359 53.5809 61.0824 53.8828C60.3948 52.5415 59.706 51.2834 59.0594 49.9842C58.978 49.8582 58.8141 49.6895 58.6895 49.6877C56.9861 49.6221 55.325 49.5154 53.6211 49.4913C52.8314 49.4802 52.0383 49.7186 51.2481 49.7491C49.0443 49.8012 46.8832 49.7707 44.6794 49.8228C41.0199 49.9376 37.3586 50.1772 33.699 50.292C30.6213 50.415 27.5869 50.4137 24.3857 50.4518ZM65.6956 62.7283C65.4527 62.2671 65.2496 61.9313 65.1297 61.5968C64.809 60.76 64.3174 60.2537 63.2784 60.239C62.0732 60.222 60.8715 59.9553 59.6675 59.8551C56.2229 59.4736 52.739 58.925 49.2902 58.8347C43.6809 58.6723 38.067 58.8427 32.4969 58.8473C32.206 58.8432 31.8723 58.9217 31.4562 58.9574C32.6389 60.5554 33.45 61.9817 35.9032 61.9331C40.6433 61.8336 45.3751 62.3165 50.1116 62.4666C54.0169 62.605 57.9235 62.6602 61.7878 62.7563C63.0346 62.7739 64.3235 62.7505 65.6956 62.7283ZM86.5269 103.304C86.2543 102.01 86.3136 100.762 85.7436 99.9221C85.3766 99.4176 84.086 99.5658 83.2156 99.3871C83.0084 99.3425 82.8006 99.3396 82.5934 99.2951C78.4387 99.1532 74.3255 99.0119 70.1696 98.9532C67.0943 98.9098 64.0593 98.9501 60.984 98.9067C58.7404 98.8334 56.4564 98.6763 54.2134 98.5615C53.9225 98.5573 53.6726 98.5954 53.1733 98.63C54.8203 99.7352 56.2618 100.671 57.745 101.607C58.0335 101.778 58.4064 101.866 58.7388 101.871C60.6915 101.94 62.6454 101.926 64.5975 102.037C69.6237 102.275 74.6909 102.554 79.7166 102.833C81.8765 102.947 84.0773 103.103 86.5269 103.304ZM5.82638 31.3806C21.202 31.6809 36.5045 31.2728 51.9526 32.3232C51.7138 31.5708 51.4716 31.068 51.3546 30.5254C51.1984 29.8157 50.7442 29.6013 50.0798 29.5503C46.8394 29.4213 43.6411 29.2513 40.4001 29.1639C35.7052 29.0144 30.9722 28.6147 26.3135 28.8402C21.0308 29.0985 15.782 29.8983 10.5361 30.49C8.95333 30.7174 7.41034 31.0701 5.82638 31.3806ZM38.6014 68.0467C39.2955 68.9304 39.824 69.7701 40.5211 70.4458C40.8488 70.7833 41.4687 71.0417 41.9258 71.0482C43.6309 70.989 45.3401 70.6387 47.0446 70.6211C53.2796 70.6259 59.514 70.6723 65.7485 70.7187C67.4524 70.7428 69.1147 70.7663 70.9855 70.7511C69.8442 69.1537 69.1614 67.4795 67.1256 67.4091C62.5974 67.2204 58.0705 66.9484 53.5809 66.9682C49.7979 66.998 46.0101 67.3607 42.2236 67.6401C41.0587 67.7069 39.9337 67.8991 38.6014 68.0467ZM63.6713 58.9129C63.1049 57.823 62.5799 56.7336 62.0129 55.6853C61.8906 55.5171 61.602 55.3466 61.3527 55.3431C58.985 55.2264 56.6173 55.1098 54.2485 55.0763C46.3113 54.9226 38.3736 54.8106 30.4358 54.6985C29.6462 54.6873 28.897 54.76 27.899 54.7875C28.716 55.7978 29.3276 56.6387 30.024 57.3559C30.2289 57.5669 30.6848 57.6565 31.0589 57.6618C32.4303 57.6812 33.7614 57.6168 35.1328 57.6361C41.5317 57.8097 47.9447 56.9847 54.3312 58.032C57.4001 58.5331 60.4748 58.6181 63.6713 58.9129ZM20.8695 46.324C21.6871 47.2927 22.2583 48.0498 22.9138 48.7249C23.1186 48.9358 23.4903 49.1075 23.8228 49.1122C30.1421 49.035 36.421 48.8739 42.7397 48.8383C46.689 48.8109 50.6781 48.9088 54.6267 48.9229C55.8735 48.9405 57.0805 48.8327 58.4525 48.8105C58.0891 48.0563 57.7233 47.4686 57.525 46.8C57.1669 45.6714 56.4212 45.4944 55.3816 45.5213C53.4266 45.6186 51.4727 45.6326 49.5587 45.772C47.3121 45.9067 45.0621 46.2911 42.8173 46.301C35.5427 46.3232 28.3519 46.3048 20.8695 46.324ZM40.857 90.7161C42.463 91.7791 43.945 92.7987 45.4281 93.7351C45.6341 93.8629 45.9678 93.7844 46.2171 93.7879C48.504 93.737 50.8331 93.645 53.1182 93.7189C58.395 93.8766 63.7116 94.1597 68.9884 94.3175C74.3068 94.4758 79.6257 94.5925 85.0693 94.711C85.0372 94.0447 84.9647 93.2946 84.932 92.67C70.2267 92.0046 55.646 91.341 40.857 90.7161ZM48.0373 85.6158C48.0367 85.6574 48.0361 85.699 48.0771 85.7412C60.1239 86.2858 72.2128 86.7894 84.3842 87.3358C84.2374 85.9605 84.1287 84.8354 84.0188 83.7935C82.4384 83.8544 80.9826 83.9171 79.5281 83.8966C74.4169 83.7828 69.3063 83.6274 64.1946 83.5552C60.6205 83.5048 57.0435 83.6623 53.4267 83.6945C52.7618 83.6851 52.2619 83.7613 51.7971 84.2957C51.4172 84.7064 50.7077 84.9045 50.1229 85.1043C49.4544 85.3445 48.7462 85.4594 48.0373 85.6158ZM55.5898 42.5697C42.5819 42.3861 29.6571 42.2036 16.6492 42.0199C17.5095 42.9059 18.3698 43.792 19.3139 44.6376C19.6422 44.9335 20.1386 45.1069 20.5542 45.1128C23.9216 45.0771 27.292 44.8334 30.6992 44.9231C37.8883 45.0663 45.0429 44.7095 52.197 44.3944C53.528 44.33 54.8169 44.3066 56.2311 44.2433C56.0328 43.5747 55.7905 43.0719 55.5898 42.5697ZM85.2196 95.8366C72.6706 95.5346 60.2041 95.2754 47.7383 94.9745C47.7371 95.0577 47.6943 95.1404 47.6932 95.2236C49.6768 96.0422 51.0585 98.2672 53.6891 97.4305C53.9396 97.3508 54.2299 97.3965 54.5209 97.4006C57.8444 97.5308 61.2083 97.7447 64.533 97.7917C68.772 97.8515 73.0134 97.7449 77.2933 97.847C80.0362 97.8857 82.7755 98.1741 85.5998 98.3388C85.4459 97.4627 85.3337 96.5873 85.2196 95.8366ZM46.1237 76.9333C46.819 77.7338 47.3914 78.4076 48.0053 79.0821C48.1282 79.2087 48.4601 79.255 48.6679 79.2579C49.9158 79.1923 51.1632 79.1683 52.4117 79.0611C56.073 78.8215 59.7789 78.3745 63.4366 78.3845C70.0878 78.3536 76.7764 78.6145 83.5084 78.7511C83.3937 78.0421 83.3628 77.2926 83.1656 76.5408C83.127 76.3322 82.7156 76.0351 82.4662 76.0316C77.7695 76.0069 73.0727 75.9822 68.3742 76.0823C61.3051 76.2738 54.2342 76.5901 47.206 76.8237C46.9145 76.8612 46.623 76.8987 46.1237 76.9333ZM83.6973 80.0854C77.8381 79.9611 72.1059 79.6721 66.3678 79.7991C60.6719 79.8852 54.9291 80.345 49.1471 80.6379C49.3502 80.9737 49.5129 81.2257 49.6346 81.4355C49.9267 81.3564 50.2188 81.2773 50.7193 81.1595C50.5032 81.739 50.3744 82.0285 50.1168 82.6074C61.4397 81.4357 72.6025 82.7585 83.8673 82.7511C83.8791 81.919 83.8084 81.0441 83.6973 80.0854ZM67.601 66.1258C67.3582 65.6647 67.1557 65.2873 66.9947 64.9105C66.6747 64.0321 66.0548 63.7737 65.1399 63.8024C63.3939 63.8193 61.649 63.7531 59.9041 63.6868C53.2553 63.5514 46.6065 63.4159 39.9582 63.2388C38.2128 63.2141 36.4281 63.0225 34.3098 62.9093C35.5365 64.3415 36.5168 65.5621 37.5808 66.7423C37.7037 66.8689 38.0367 66.832 38.2861 66.8355C40.9072 66.6644 43.488 66.4096 46.1086 66.2801C50.518 66.0511 54.9285 65.7389 59.3355 65.6762C62.038 65.6312 64.7768 65.9611 67.601 66.1258ZM65.3269 106.292C66.8094 107.27 68.0444 108.12 69.2805 108.886C69.8576 109.227 70.5612 109.445 71.2249 109.538C76.7012 110.281 82.1776 111.024 87.6545 111.726C87.8617 111.77 88.0291 111.689 88.3622 111.652C88.1656 110.859 87.9268 110.107 87.8544 109.356C87.7456 108.231 87.124 108.098 86.1687 108.043C82.4302 107.865 78.6501 107.687 74.9134 107.384C71.7994 107.132 68.73 106.673 65.3269 106.292ZM60.5082 103.145C61.7396 104.244 62.9312 105.218 64.679 105.076C65.4283 105.003 66.2155 105.181 66.9624 105.275C73.397 105.865 79.8736 106.414 86.3082 107.004C86.5575 107.008 86.849 106.97 87.1399 106.974C86.9831 106.306 86.9504 105.682 86.7503 105.138C86.6298 104.845 86.302 104.507 86.0111 104.503C84.4337 104.356 82.8972 104.251 81.3185 104.187C76.6247 103.955 71.9303 103.764 67.236 103.572C65.0351 103.417 62.7927 103.26 60.5082 103.145ZM50.3908 28.1398C50.1294 26.0555 50.0059 25.9705 48.2183 25.9869C48.052 25.9845 47.8858 25.9822 47.678 25.9793C43.3208 25.46 38.912 25.6474 34.5442 25.8771C33.3379 25.9432 32.4188 26.2632 31.9446 27.4633C38.0935 27.6749 44.2003 27.9276 50.3908 28.1398ZM49.4002 24.7136C49.2019 24.045 48.9584 23.6254 48.9234 23.1672C48.8146 22.0421 48.1087 21.9905 47.1529 21.977C43.3704 21.9652 39.5897 21.8286 35.7663 21.7746C35.517 21.7711 35.1435 21.7242 35.1002 21.8484C34.5903 22.6319 34.1629 23.4581 33.6506 24.408C39.0597 24.0266 44.1358 23.6821 49.4002 24.7136ZM35.6166 20.6073C39.8568 20.584 43.9302 20.5999 48.1288 20.5759C47.8105 19.5727 47.5314 18.7365 47.333 18.0679C46.1688 18.0931 45.1702 18.1622 44.1728 18.1481C41.9708 18.0754 39.7289 17.8773 37.5269 17.8046C37.236 17.8005 36.818 17.9611 36.6904 18.1673C36.2648 18.8687 36.0042 19.6557 35.6166 20.6073ZM72.3726 110.678C73.724 112.111 75.1691 112.798 76.9116 113.03C79.5667 113.401 82.2211 113.813 84.834 114.224C86.12 114.409 87.4054 114.635 88.8154 114.863C88.661 114.029 88.5867 113.403 88.4703 112.819C88.4311 112.652 88.1853 112.399 88.0191 112.397C86.7747 112.213 85.4887 112.028 84.2431 111.927C82.4163 111.776 80.5461 111.75 78.7199 111.558C76.6449 111.32 74.5711 111 72.3726 110.678ZM46.9773 16.7729C46.7011 15.7287 46.5455 14.9774 46.2652 14.2244C46.1851 14.0152 45.814 13.8019 45.6062 13.799C43.7776 13.7732 41.9069 13.7884 40.0771 13.8458C38.2479 13.8616 37.7 14.3948 37.5084 16.1814C40.582 16.3497 43.6549 16.5595 46.9773 16.7729ZM82.3623 68.7062C81.1981 68.7314 80.2001 68.7589 79.2027 68.7448C78.2468 68.7313 77.3343 68.5936 76.3784 68.5801C74.9239 68.5596 74.1658 69.2563 73.7687 70.8736C76.6773 70.9563 79.5864 70.9973 82.6196 71.0818C82.55 70.1237 82.436 69.3731 82.3623 68.7062ZM89.4729 118.326C89.3998 117.618 89.3659 117.076 89.2074 116.533C89.1688 116.324 88.8398 116.07 88.5911 116.025C86.8901 115.793 85.147 115.602 83.4039 115.411C81.8686 115.223 80.3742 115.077 78.8389 114.889C78.7956 115.013 78.7938 115.138 78.7505 115.262C82.1816 116.6 85.7011 117.565 89.4729 118.326ZM75.7739 67.24C77.9748 67.3959 80.051 67.55 82.2102 67.7053C82.1372 66.9969 82.1027 66.4971 82.0682 65.9972C82.0367 65.2893 81.7083 64.9934 81.0007 65.0666C80.293 65.1399 79.5871 65.0883 78.9221 65.0789C76.7617 65.0068 76.7623 64.9652 75.7739 67.24ZM45.8768 12.3047C45.799 11.9291 45.6796 11.5529 45.6428 11.2195C45.5733 10.2614 45.0763 10.1296 44.2428 10.2843C43.3261 10.4378 42.3691 10.5075 41.4536 10.5778C39.7889 10.7207 39.7046 10.8028 39.2648 12.5027C41.3434 12.4904 43.4219 12.4782 45.501 12.4243C45.5841 12.4255 45.6684 12.3434 45.8768 12.3047ZM81.9285 64.1227C81.8958 63.498 81.8631 62.8733 81.7889 62.2481C81.7497 62.0811 81.5454 61.8285 81.3804 61.743C80.2208 61.4353 78.2528 62.4478 77.8219 63.5237C79.1494 63.7089 80.4769 63.8941 81.9285 64.1227ZM44.9296 8.75426C44.8921 8.46244 44.8951 8.25443 44.8143 8.08684C44.6956 7.66903 44.6178 7.29341 44.4984 6.91721C41.4183 7.20662 41.2088 7.32851 40.7654 9.27806C42.1398 9.0894 43.5136 8.94234 44.9296 8.75426ZM89.8858 121.453C89.9695 121.412 90.0538 121.33 90.1375 121.29C90.0187 120.872 89.9837 120.414 89.8233 119.996C89.7028 119.703 89.5009 119.284 89.2937 119.239C88.0487 119.097 86.8025 119.037 85.3486 118.975C86.9985 119.872 88.4424 120.642 89.8858 121.453ZM79.3172 60.6735C80.1507 60.5188 80.859 60.404 81.6088 60.2897C81.3748 59.2045 81.1806 58.2446 80.9864 57.2848C80.9033 57.2836 80.8201 57.2825 80.737 57.2813C80.3055 58.3987 79.833 59.474 79.3172 60.6735ZM42.6887 5.56004C42.7291 5.64384 42.7285 5.68545 42.7689 5.76924C43.2266 5.73409 43.6849 5.65733 44.2258 5.62335C44.148 5.24773 44.0696 4.91373 43.9508 4.49592C43.4462 4.90493 43.0675 5.23249 42.6887 5.56004Z" fill="white"/>
</svg>
