<svg width="88" height="91" viewBox="0 0 88 91" fill="none" xmlns="http://www.w3.org/2000/svg">
<g clip-path="url(#clip0_100_262)">
<path d="M85.8843 19.0508C85.3016 23.7333 83.0763 27.1822 78.706 29.1978C78.2814 29.4054 77.6113 29.8006 77.6198 30.0662C77.8634 33.8455 74.5419 34.9436 72.4387 36.8219C59.2616 48.6343 44.353 58.2312 30.1197 68.712C25.9626 71.77 22.2991 75.423 18.3238 78.7698C17.5323 79.4131 16.6251 80.2614 15.6923 80.3129C11.5973 80.6022 7.49371 80.6258 3.38436 80.6928C0.999031 80.7261 0.0351844 79.3629 0.466572 77.1285C0.886366 74.9808 1.51693 72.9053 2.06087 70.8183C2.32994 69.7964 2.47487 68.7138 2.99223 67.8133C4.5617 64.982 3.15443 61.0028 6.39849 58.8364C9.05901 57.0768 11.7253 55.2738 14.3483 53.4651C26.8249 44.909 39.3824 36.4078 51.7464 27.7045C56.1749 24.5947 60.2341 20.9506 64.5125 17.6444C67.5141 15.3133 70.5215 12.9389 73.6789 10.7609C77.4632 8.182 78.6702 8.38766 82.134 11.4961C85.6237 14.7403 86.1834 15.829 85.8843 19.0508ZM56.4373 31.1976C55.8313 30.4553 55.2194 29.7562 54.4199 28.8117C54.1396 29.2591 53.6714 30.122 53.2089 30.9417C52.6915 31.8422 52.1742 32.7427 51.6568 33.6431C51.1575 33.0914 50.7015 32.5455 49.8212 31.5461C49.1535 32.9113 48.4281 34.0484 48.0001 35.2694C47.4101 37.0417 46.6765 37.2521 45.3634 35.5335C44.8573 37.0085 44.4293 38.2295 44.0446 39.4563C46.9303 37.9913 49.38 36.1594 51.7373 34.3592C51.8356 34.2842 51.7145 33.8712 51.7001 33.6489C53.2686 32.801 54.8371 31.9531 56.4489 31.111C57.587 30.514 58.7684 29.9228 60.3253 29.1615C59.0146 28.413 58.238 27.9564 57.499 27.5489C57.1027 28.8623 56.7671 30.0516 56.4373 31.1976ZM13.3214 68.7112C16.3001 65.8922 19.0217 63.3473 21.6999 60.7967C22.0004 60.5283 22.3817 60.3149 22.7947 60.1939C24.1435 59.6692 25.7117 59.4824 26.873 58.7122C32.2922 55.1179 37.7231 51.4371 42.9981 47.6031C49.6799 42.8114 56.2059 37.8666 62.8127 32.9767C62.1206 30.9005 60.9045 31.7515 59.7923 32.4842C53.5555 36.5861 47.2697 40.7256 41.0213 44.9141C37.7339 47.0747 34.4783 49.3277 31.2284 51.5374C24.6247 56.075 17.9776 60.6069 11.319 65.2254C12.0028 66.3748 12.4674 67.1864 13.3214 68.7112ZM77.5327 25.1177C78.9399 23.4988 79.9722 20.7278 79.6099 17.5056C79.2678 14.4624 76.658 12.8788 73.8822 14.1822C72.3311 14.9002 70.9877 16.0428 69.0465 17.3697C71.9936 20.0564 74.704 22.535 77.5327 25.1177ZM7.0995 66.1151C5.79538 69.5991 4.56936 72.8291 3.07153 76.772C7.17509 76.7483 10.4441 76.7011 14.1953 76.6743C11.7339 72.9948 10.9245 68.8311 7.0995 66.1151ZM16.7528 73.0496C16.4237 72.8733 16.1437 72.6595 15.8146 72.4832C15.9104 71.4381 16.0062 70.393 16.0819 69.1689C14.1059 70.7557 14.5813 72.8029 16.9974 74.8455C19.4096 72.9644 21.8219 71.0834 24.1908 69.1966C22.2979 66.2103 25.8448 64.7456 26.106 62.1359C21.8773 64.0823 22.9088 68.8927 20.2882 71.6715C19.7425 71.4662 19.116 71.206 18.3653 70.8852C17.9202 71.5749 17.3394 72.2906 16.7528 73.0496ZM66.6193 20.3507C68.9334 24.1428 71.1783 27.7933 73.605 31.7327C74.7416 28.1822 69.5418 20.2571 66.6193 20.3507ZM61.9649 36.3455C59.5527 38.2265 60.5332 40.7821 59.6111 42.7304C59.8853 42.9875 60.2028 43.2504 60.477 43.5075C62.5168 41.4444 64.5133 39.3754 66.5589 37.269C66.4897 37.1275 66.4579 37.0351 66.3887 36.8936C65.0658 37.554 63.7804 38.2635 62.1744 39.0623C62.1112 38.2164 62.074 37.5061 61.9649 36.3455ZM11.6092 62.3991C13.3458 60.2954 17.2965 59.7664 16.1839 55.5622C13.1107 56.7817 11.8533 59.2581 11.6092 62.3991ZM44.7153 49.5962C40.9576 50.9885 42.3131 54.6963 40.9257 57.1553C42.1535 56.2177 43.3813 55.2801 44.6523 54.3483C44.4358 54.3193 44.2683 54.2528 44.0517 54.2238C44.2488 52.7515 44.4459 51.2792 44.7153 49.5962ZM23.6039 53.1614C27.8093 51.3882 28.2861 50.7908 27.9413 47.4387C25.0126 48.2368 23.8998 50.2918 23.6039 53.1614ZM53.1392 43.3186C49.6356 44.789 50.711 48.283 49.5027 50.7219C50.5341 49.9343 51.6029 49.1958 52.6342 48.4082C52.4668 48.3417 52.256 48.2694 52.0944 48.1596C52.433 46.6181 52.7774 45.0333 53.1392 43.3186ZM30.8327 63.3857C30.9944 63.4955 31.1502 63.6486 31.3119 63.7584C31.6874 63.5883 32.1004 63.4673 32.4759 63.2972C35.4164 61.7513 33.7462 58.0896 36.1468 56.2952C35.7744 56.1131 35.402 55.931 35.0729 55.7547C33.6306 58.2945 32.2316 60.8401 30.8327 63.3857ZM62.5482 24.7426C62.7937 24.5551 63.0335 24.4109 63.2358 24.2175C64.5809 25.3674 65.9693 26.523 67.3087 27.7161C67.5109 27.5228 67.7074 27.3727 67.9529 27.1852C66.8158 25.7988 65.8984 24.0891 64.4867 23.1067C64.0017 22.7773 62.277 24.1333 60.567 25.0504C61.3839 25.865 61.8515 26.3243 62.7116 27.1447C62.6024 25.9841 62.5537 25.3604 62.5482 24.7426ZM37.9596 40.449C35.0801 41.2095 34.588 43.568 34.2459 46.1229C37.4662 45.452 37.9525 43.1368 37.9596 40.449ZM58.4316 39.3547C54.3216 40.744 55.2439 44.3938 53.9432 46.8644C54.1915 46.9858 54.4773 47.1563 54.7256 47.2777C55.9455 44.7522 57.1278 42.1775 58.4316 39.3547ZM17.9857 55.9356C18.2282 56.1003 18.4274 56.2592 18.6699 56.4239C20.9113 55.4898 22.7485 54.2811 21.8869 50.5072C20.3727 52.5966 19.1763 54.2878 17.9857 55.9356ZM30.4943 58.668C28.6271 62.0766 27.0634 64.8647 25.4997 67.6527C26.7995 67.1656 28.1657 66.5109 28.608 65.5123C29.4753 63.6448 29.7594 61.523 30.4943 58.668ZM39.5615 41.9858C39.8906 42.1621 40.2198 42.3384 40.5547 42.4714C41.3814 40.907 42.1647 39.3369 42.9972 37.7293C42.5815 37.5414 42.2148 37.316 41.7991 37.1281C41.0474 38.7906 40.3016 40.4099 39.5615 41.9858Z" fill="white"/>
</g>
<defs>
<clipPath id="clip0_100_262">
<rect width="77" height="81" fill="white" transform="translate(10.7476 6.10352e-05) rotate(7.62493)"/>
</clipPath>
</defs>
</svg>
