<svg width="80" height="80" viewBox="0 0 80 80" fill="none" xmlns="http://www.w3.org/2000/svg">
<g clip-path="url(#clip0_100_248)">
<path d="M25.9401 60.5246C25.8826 60.1847 25.8728 59.9776 25.8227 59.793C23.3778 53.4253 25.3424 47.465 27.2617 41.4237C29.2656 35.2022 33.8276 31.6178 39.5157 29.2914C41.9537 28.3017 44.6726 28.4308 47.195 29.4403C51.4162 31.122 54.8702 33.6573 56.6826 38.0397C58.6971 42.9735 57.4113 47.3057 54.3784 51.2585C50.4381 56.3824 46.3354 61.3578 42.1909 66.5426C43.0757 68.1743 42.9404 68.5954 41.3568 70.3568C40.225 71.6001 39.3952 73.1 38.2181 74.2623C37.4662 75.0011 36.3148 75.8303 35.38 75.7677C31.7691 75.6053 28.4192 74.3937 25.4232 72.3466C23.5714 71.0689 23.4426 70.317 24.088 68.2027C24.1057 68.1396 24.1549 68.0856 24.1436 68.0653C23.5106 66.5055 24.1741 64.9922 24.2265 63.4748C24.2474 61.9484 24.6352 61.1737 25.9401 60.5246ZM36.3506 63.905C37.3542 64.3277 37.9864 64.5592 38.5896 64.8335C39.7015 65.3552 40.4061 65.1477 41.3661 64.2129C46.1108 59.6762 49.972 54.4105 53.7475 49.0863C55.7179 46.3116 56.5701 43.0985 55.3677 39.5713C53.8014 34.9186 50.3311 32.2595 45.9583 30.875C44.1813 30.2997 41.9081 30.4 40.1132 30.9773C36.8599 32.0237 34.1294 34.0536 31.8416 36.6866C29.3392 39.599 28.5987 43.2015 27.6151 46.7006C26.7531 49.7066 25.9251 52.7733 26.7285 55.9653C26.9842 56.9917 27.3634 58.0024 27.4011 59.0177C27.4481 60.6657 28.3564 60.8227 29.6051 60.7365C29.6452 58.9602 29.5554 57.283 29.7353 55.6147C30.0693 52.6112 30.1717 49.5246 32.0575 46.93C33.6997 44.6576 34.8554 44.3575 37.2755 45.6102C39.8815 43.3574 41.6418 44.2345 42.3805 45.8415C43.8654 46.3675 45.1352 46.5087 45.9332 47.1791C47.0218 48.0858 46.8927 49.5133 46.1491 50.6461C44.6329 52.9545 43.031 55.2045 41.3864 57.4252C39.8514 59.558 38.197 61.5716 36.3506 63.905ZM35.6512 46.73C35.3904 46.6896 35.1183 46.629 34.8576 46.5886C30.4509 50.8302 32.0107 56.6558 31.1257 61.8006C32.4733 62.2704 33.6949 62.7042 34.7591 63.0931C37.1822 60.039 39.561 57.1425 41.8316 54.147C42.9335 52.7078 43.81 51.1021 44.7293 49.5257C44.9011 49.2172 44.7698 48.4135 44.547 48.2988C44.1755 48.1077 43.4725 48.1283 43.1634 48.3806C42.5277 48.9483 42.1221 49.786 41.4775 50.3852C41.1306 50.7118 40.5446 50.8 40.0668 50.9871C39.9931 50.5234 39.7934 50.0237 39.8973 49.5936C40.0784 48.8281 40.5115 48.1344 40.704 47.3891C40.7813 47.0536 40.6195 46.4796 40.3627 46.3042C40.1059 46.1287 39.3827 46.1606 39.2375 46.3746C38.6745 47.1673 38.0623 48.0142 37.8053 48.9284C37.5548 49.7592 37.5925 50.7746 36.4801 50.6784C35.2215 50.5575 35.451 49.4992 35.5731 48.5806C35.6269 47.966 35.6176 47.3334 35.6512 46.73ZM25.7288 62.184C25.6377 62.4474 25.5782 62.7199 25.4871 62.9833C26.1114 63.485 26.68 64.1241 27.3777 64.4254C31.1039 65.9318 34.8568 67.3436 38.621 68.7756C39.0957 68.9622 39.6399 69.0835 40.1452 69.0404C40.527 69.0132 41.02 68.7113 41.1918 68.4027C41.3055 68.1798 40.9912 67.6644 40.7496 67.3741C40.5735 67.1536 40.207 67.066 39.9325 66.9536C36.2062 65.4472 32.4976 63.8778 28.7448 62.466C27.8469 62.0905 26.7468 62.2532 25.7288 62.184ZM39.2622 70.7294C34.7842 68.8722 30.7697 67.1814 26.6946 65.5244C26.2513 65.3468 25.6879 65.4754 25.1802 65.4667C25.4517 65.9529 25.5894 66.6732 25.9923 66.8733C29.1753 68.4971 32.4278 70.0555 35.6665 71.5418C36.2382 71.8072 37.0269 71.845 37.6621 71.7028C38.2368 71.5945 38.7402 71.0741 39.2622 70.7294ZM37.1845 73.6437C33.0125 71.908 29.2838 70.3499 25.5236 68.7827C24.746 69.8548 25.5351 70.5568 26.3596 71.1327C28.9931 72.9571 32.007 73.8514 35.1313 74.2325C35.6528 74.3132 36.2152 73.946 37.1845 73.6437Z" fill="white"/>
<path d="M53.0171 16.17C52.4786 17.4806 52.0144 18.8294 51.3589 20.0725C51.1403 20.4868 50.4333 20.6426 49.9604 20.9332C49.8641 20.429 49.5562 19.8303 49.723 19.4182C50.7419 16.8827 51.835 14.3854 52.9911 11.906C53.1984 11.4714 53.8941 11.2954 54.3758 10.9732C54.4343 11.5518 54.6817 12.1843 54.5197 12.6999C54.1515 13.8888 53.5944 15.0238 53.1317 16.1857C53.08 16.188 53.0485 16.179 53.0171 16.17Z" fill="white"/>
<path d="M62.6072 53.386C63.9905 54.3938 65.403 55.3589 66.7485 56.441C67.0392 56.6772 67.0484 57.3099 67.1827 57.7398C66.7291 57.7806 66.1189 58.015 65.7991 57.8216C64.0807 56.7351 62.4317 55.5834 60.7802 54.3798C60.5549 54.2133 60.4924 53.7698 60.3744 53.4637C60.6996 53.3352 61.02 53.1032 61.3211 53.121C61.7255 53.1343 62.0994 53.3772 62.4886 53.5054C62.5289 53.4828 62.5781 53.4288 62.6072 53.386Z" fill="white"/>
<path d="M18.7589 19.9438C19.4757 19.9952 20.3668 19.7899 20.8804 20.1408C22.4414 21.1823 23.8863 22.395 25.2504 23.6527C25.5864 23.97 25.5287 24.7197 25.6679 25.2532C25.1665 25.1612 24.5377 25.22 24.1727 24.9456C22.2644 23.5665 20.4029 22.0817 18.5324 20.6283C18.6058 20.4279 18.688 20.196 18.7589 19.9438Z" fill="white"/>
<path d="M64.095 43.9183C63.9616 43.727 63.6798 43.4593 63.6788 43.2206C63.6779 42.982 63.948 42.5653 64.1636 42.5247C66.0765 42.2535 67.9807 42.0138 69.8986 41.8462C70.1569 41.8348 70.6463 42.3321 70.6699 42.6112C70.6822 42.8701 70.2619 43.3971 69.9633 43.4311C68.2141 43.6639 66.4399 43.8045 64.677 43.9653C64.5131 44.0036 64.3557 43.9587 64.095 43.9183Z" fill="white"/>
<path d="M60.2973 32.3798C60.4214 31.9386 60.3832 31.3489 60.614 31.1934C62.2117 30.1683 63.8523 29.1723 65.538 28.2573C65.8003 28.1109 66.3581 28.304 66.6262 28.4997C66.7659 28.6076 66.6767 29.3482 66.4951 29.4496C64.7222 30.4929 62.9041 31.4553 61.0658 32.4288C60.9649 32.4852 60.776 32.4313 60.2973 32.3798Z" fill="white"/>
<path d="M12.3798 36.1028C12.1422 35.6774 11.8151 35.3286 11.8634 35.0359C11.9116 34.7432 12.3457 34.2882 12.6153 34.2971C14.5946 34.3343 16.5765 34.4232 18.5607 34.564C18.7787 34.5751 19.1107 35.0275 19.123 35.2864C19.1239 35.525 18.7844 36.007 18.5979 36.0048C16.5314 36.096 14.4915 36.0926 12.3798 36.1028Z" fill="white"/>
<path d="M34.4684 9.07044C34.946 9.97296 35.2328 10.3443 35.3444 10.7337C35.6729 11.9852 35.9812 13.2481 36.166 14.5267C36.2284 14.9702 35.8485 15.4747 35.6752 15.9701C35.2472 15.6777 34.5948 15.4574 34.4517 15.059C33.9899 13.6161 33.629 12.1169 33.4029 10.6222C33.3341 10.262 33.9433 9.78889 34.4684 9.07044Z" fill="white"/>
</g>
<defs>
<clipPath id="clip0_100_248">
<rect width="59" height="58" fill="white" transform="translate(50.7087) rotate(60.816)"/>
</clipPath>
</defs>
</svg>
