<svg width="82" height="89" viewBox="0 0 82 89" fill="none" xmlns="http://www.w3.org/2000/svg">
<path d="M33.3463 7.78951C36.877 7.05339 40.5563 7.75386 43.5749 9.73683C46.5934 11.7198 48.7039 14.8228 49.442 18.3633L49.4736 18.5482L49.561 18.4673C52.0253 16.2512 55.2175 15.0217 58.5299 15.0129L59.3576 15.0354C61.1337 15.1407 62.8719 15.5969 64.4722 16.3778C66.0726 17.1588 67.5035 18.249 68.6827 19.5858C71.0771 22.2834 72.3113 25.8196 72.1159 29.423C71.9206 33.0264 70.3116 36.4046 67.64 38.8206L67.4388 38.9879L67.7022 39.0688C70.9942 40.1772 73.7419 42.5023 75.3849 45.5699C77.028 48.6376 77.4426 52.2167 76.5443 55.5775L76.3376 56.2683C75.7909 57.9672 74.914 59.5405 73.7576 60.8974C72.6012 62.2543 71.188 63.368 69.5997 64.1744C68.0113 64.9807 66.2791 65.4638 64.5029 65.5957C62.7268 65.7276 60.9417 65.5058 59.2507 64.943L59.1369 64.897L59.1833 65.0859C59.8973 68.5108 59.2713 72.0784 57.4348 75.0507C55.5982 78.0231 52.6916 80.1728 49.3161 81.0553L48.6539 81.2107C45.1232 81.9468 41.4439 81.2464 38.4254 79.2634C35.4069 77.2804 33.2964 74.1774 32.5582 70.637L32.5226 70.4494L32.4393 70.5329C29.9756 72.7501 26.7836 73.9808 23.4711 73.9907L22.6467 73.9675C20.8701 73.8627 19.1313 73.4068 17.5303 72.626C15.9294 71.8452 14.4979 70.7548 13.3182 69.4177C10.9246 66.7212 9.69026 63.1865 9.88446 59.5842C10.0787 55.982 11.6856 52.6043 14.3549 50.1877L14.5615 50.0123L14.2987 49.9348C11.0067 48.8264 8.25904 46.5013 6.616 43.4337C4.97296 40.366 4.5583 36.7868 5.4566 33.4261L5.6593 32.7326C6.20578 31.0324 7.08284 29.4579 8.23986 28.0999C9.39688 26.742 10.811 25.6275 12.4005 24.8208C13.99 24.0141 15.7235 23.5312 17.5009 23.3999C19.2783 23.2686 21.0644 23.4916 22.7562 24.0559L22.8553 24.0979L22.817 23.9144C22.1029 20.4894 22.7289 16.9219 24.5655 13.9495C26.402 10.9771 29.3087 8.82742 32.6841 7.94497L33.3463 7.78951ZM38.9127 34.4881C36.2647 35.0402 33.945 36.6245 32.4641 38.8925C30.9831 41.1605 30.4621 43.9264 31.0157 46.5818C31.5693 49.2371 33.1522 51.5644 35.4161 53.0516C37.68 54.5388 40.4395 55.0642 43.0875 54.5121C45.7355 53.96 48.0552 52.3757 49.5362 50.1077C51.0171 47.8397 51.5381 45.0738 50.9845 42.4185C50.4309 39.7631 48.848 37.4358 46.5841 35.9486C44.3202 34.4614 41.5607 33.936 38.9127 34.4881Z" fill="#C2BBB6"/>
</svg>
