<svg width="90" height="85" viewBox="0 0 90 85" fill="none" xmlns="http://www.w3.org/2000/svg">
<g clip-path="url(#clip0_100_237)">
<path d="M55.8695 16.9354C55.8754 16.6741 55.9089 16.622 55.8806 16.5743C55.2394 14.4082 55.2625 14.5557 57.5035 13.774C59.3925 13.1046 61.338 12.5305 63.2694 11.9325C64.2779 11.6243 65.1451 12.109 65.4065 13.1466C65.4907 13.4512 65.5272 13.7841 65.6203 14.2124C66.2098 14.1205 66.7613 14.0189 67.327 13.9412C68.8148 13.7354 69.8621 14.3066 70.9259 15.4483C72.6091 17.2541 72.5796 19.5924 73.3495 21.6498C74.4619 24.6645 75.1271 27.8478 76.0348 30.9516C77.1108 34.6648 78.2822 38.3214 79.2964 42.039C80.0069 44.6474 80.5841 47.3027 81.0995 49.9624C81.4712 51.8371 80.4345 53.129 78.9014 53.9098C77.2491 54.7611 75.4696 55.3979 73.7704 56.1159C73.3134 56.3226 72.9272 56.6484 72.456 56.8313C72.0943 56.9814 71.6671 56.9126 71.2912 57.0388C66.4921 58.339 61.7071 59.663 56.9221 60.987C54.1586 61.7563 51.3861 62.4019 48.6412 63.2569C42.2002 65.2088 35.754 67.2605 29.2989 69.1886C27.1963 69.8237 25.014 70.2159 22.837 70.5083C21.9148 70.6364 20.8853 70.3124 19.9601 70.0555C19.6564 69.9778 19.407 69.4489 19.2425 69.063C18.8151 67.9627 18.3877 66.8625 18.1315 65.7251C17.4232 62.6319 16.8385 59.5298 16.1302 56.4365C15.3937 53.2956 14.5953 50.159 13.7256 47.0649C12.6316 43.1045 11.4283 39.1768 10.3008 35.2685C9.76763 33.393 10.8131 31.1932 12.6782 30.5379C14.5627 29.8066 16.5649 29.3279 18.5104 28.7538C21.8306 27.7831 25.1606 26.7745 28.4711 25.8418C29.2749 25.6227 29.3717 25.243 29.2324 24.5198C29.0655 23.5873 28.8465 22.6213 28.9268 21.6711C29.0739 19.5854 30.5757 18.372 32.2749 17.6539C34.274 16.7902 36.419 16.2267 38.5075 15.5678C40.6197 14.8948 42.7275 14.16 44.8964 13.5823C47.1984 12.9579 48.9253 13.4805 49.897 16.0952C50.7138 18.2859 50.7756 18.2815 53.0062 17.6995C53.9857 17.5051 54.9324 17.2013 55.8695 16.9354ZM59.8333 51.6203C60.9892 51.2891 62.0877 51.0241 63.1535 50.6496C66.051 49.6719 68.944 48.6324 71.8273 47.6309C73.7163 46.9614 75.6008 46.2301 77.5084 45.6463C78.3457 45.3752 78.656 45.0299 78.3321 44.1583C78.1445 43.625 78.09 43.0448 77.9262 42.4973C76.8122 38.7745 75.6744 35.0658 74.608 31.3147C73.593 27.7587 72.7351 24.1418 71.6583 20.5903C71.1854 19.0335 70.2988 17.5933 69.5833 16.116C69.2207 15.3963 68.5426 15.1218 67.8437 15.2463C65.7232 15.6341 63.5648 16.0122 61.4815 16.5713C58.2044 17.4519 54.9787 18.5276 51.7061 19.47C50.612 19.7968 49.7449 19.3121 49.2602 18.2781C48.9214 17.5443 48.6779 16.754 48.3391 16.0202C47.8686 15.01 47.2054 14.5977 46.0978 14.739C45.1757 14.8671 44.2624 15.1189 43.3871 15.3803C41.7222 15.8846 40.0334 16.4031 38.3968 16.9551C36.4936 17.6007 34.5057 18.1033 32.706 18.9776C30.7635 19.9367 29.799 21.0247 30.4618 23.6614C30.616 24.2469 30.6466 24.8411 30.6296 25.4637C30.6408 26.1339 30.2635 26.5834 29.6212 26.8033C28.1513 27.2564 26.6999 27.7952 25.2396 28.2103C21.7579 29.1801 18.2479 30.1022 14.7802 31.0959C13.5388 31.4456 12.3301 31.9049 11.7207 33.2657C11.2839 34.2662 11.4031 35.2269 11.7077 36.1744C12.3347 38.3167 13.0473 40.4403 13.6981 42.5684C15.4964 48.3673 17.1236 54.2032 18.1516 60.169C18.2626 60.8445 18.4592 61.5015 18.6223 62.2106C20.3207 61.6542 21.7549 60.7066 23.4757 60.4592C24.8876 60.2339 26.2861 59.8232 27.7032 59.4982C31.0652 58.7606 34.4033 58.0372 37.7511 57.2758C38.0697 57.2158 38.3555 57.0462 38.6457 56.9384C38.7082 56.7724 38.761 56.6444 38.8235 56.4784C37.9653 56.1173 36.9828 55.9266 36.2726 55.3809C33.4038 53.1505 31.1072 50.4194 30.0401 46.8299C29.661 45.5398 29.1019 44.1631 29.2215 42.8995C29.4408 40.6098 29.9071 38.3023 30.6437 36.1247C31.6407 33.0834 33.3582 30.3883 35.9607 28.4251C38.0677 26.8205 40.5044 25.826 43.0819 25.2316C44.1566 24.9807 45.3922 24.8923 46.4647 25.1263C50.6695 26.0806 54.6339 27.661 57.7791 30.7912C59.2925 32.3108 60.8676 33.826 61.6234 35.8596C62.088 37.1312 62.2527 38.5485 62.3891 39.918C62.6633 42.334 62.5148 44.743 61.7396 47.0725C61.2054 48.6143 60.5149 50.0555 59.8333 51.6203ZM31.3313 45.9671C31.9324 48.6082 33.326 50.3601 34.7151 52.0502C37.1345 54.934 40.3628 56.4677 44.0465 57.0865C46.1209 57.4351 48.1737 57.3131 50.2048 56.7205C52.2978 56.1234 54.0609 54.9162 55.8098 53.6851C58.7406 51.6239 59.9847 48.565 60.7501 45.242C61.2589 43.0061 61.1172 40.7049 60.8281 38.4267C60.6723 37.133 60.2546 35.9948 59.4945 34.9308C57.2947 31.82 54.5076 29.3476 51.0084 27.8458C49.3157 27.1094 47.4601 26.6954 45.6759 26.239C45.1824 26.1127 44.5743 26.1189 44.0652 26.292C39.8459 27.5383 35.9005 29.1377 33.5163 33.2599C31.0845 37.4104 29.6263 41.6279 31.3313 45.9671ZM63.9598 57.3272C65.537 57.3262 66.7167 56.9809 67.099 55.4002C67.128 55.2863 67.233 55.1918 67.2761 55.1017C68.1445 53.2004 68.9987 51.2754 69.9392 49.1701C69.2254 49.4324 68.7022 49.5817 68.2214 49.8025C67.9691 49.9199 67.6833 50.0895 67.5635 50.3218C66.5337 52.2221 65.5559 54.1561 64.5402 56.0803C64.3817 56.4644 64.1756 56.8768 63.9598 57.3272ZM32.7088 59.8484C31.3839 59.732 30.5786 60.2742 29.961 61.3498C28.6736 63.4674 27.3058 65.5038 25.9664 67.5879C25.7655 67.9005 25.5645 68.2131 25.2966 68.6299C26.1049 68.4727 26.6803 68.357 27.2794 68.2271C27.4506 68.19 27.6508 68.039 27.7275 67.8968C28.895 66.0115 30.0484 64.1022 31.216 62.2169C31.6803 61.4256 32.1826 60.6441 32.7088 59.8484ZM57.4756 59.3692C58.2653 59.1263 58.8168 59.0247 59.3356 58.8136C59.5403 58.7244 59.774 58.5213 59.8699 58.3032C60.2003 57.7204 60.4548 57.1181 60.7472 56.5256C61.5092 55.042 62.2332 53.5487 63.0718 51.923C61.7552 52.0917 60.8561 52.3673 60.499 53.6107C60.3301 54.1944 59.9856 54.7533 59.679 55.322C58.9892 56.6016 58.2994 57.8812 57.4756 59.3692ZM59.8513 52.899C58.5816 53.201 57.681 53.7998 57.2978 54.5107C56.4257 56.1885 55.5157 57.8566 54.6436 59.5345C54.5334 59.7288 54.4851 59.9186 54.3891 60.1367C54.4553 60.1941 54.5119 60.2895 54.5782 60.3469C55.1259 60.0219 55.8725 59.8691 56.1738 59.4002C57.0825 58.0552 57.8489 56.6335 58.6392 55.1976C59.0462 54.4726 59.4153 53.7379 59.8513 52.899ZM29.2233 60.5948C29.1287 60.4898 29.058 60.3706 28.9634 60.2655C28.4536 60.6002 27.8017 60.8581 27.5003 61.327C26.1801 63.3351 24.9501 65.3865 23.6962 67.452C23.3852 67.9589 23.1642 68.5091 22.8911 69.0257C22.9715 69.1069 23.0519 69.1881 23.1323 69.2694C23.485 68.9956 23.8661 68.7695 24.1668 68.4622C24.4198 68.1831 24.5783 67.799 24.803 67.4723C26.2526 65.1939 27.7498 62.8873 29.2233 60.5948ZM26.1188 61.1151C25.3016 61.1487 24.6019 61.4349 24.209 62.1837C23.0594 64.3164 21.9239 66.4728 20.731 68.6955C21.1293 68.8783 21.5513 69.0469 21.7553 69.1193C23.245 66.3659 24.6581 63.7547 26.1188 61.1151ZM42.4166 58.2469C41.8955 57.9114 41.5345 57.8999 41.1714 58.3732C40.2776 59.5804 39.3176 60.7302 38.438 61.9612C37.5822 63.1781 36.7785 64.4285 35.8937 65.7594C36.7452 65.512 37.4634 65.3116 37.9628 65.1764C39.1765 62.5546 40.9573 60.5632 42.4166 58.2469ZM70.447 55.6702C70.5274 55.7514 70.5698 55.8229 70.6502 55.9042C71.2456 55.5509 72.0733 55.3177 72.3702 54.787C72.9975 53.6735 73.3404 52.4063 73.8255 51.2159C74.2913 50.1015 74.8189 48.9826 75.3085 47.8541C75.2281 47.7728 75.1477 47.6916 75.0911 47.5962C74.6527 47.8885 74.0484 48.1182 73.8281 48.5067C73.2195 49.7059 72.7671 51.0058 72.1964 52.2147C71.6495 53.4095 71.046 54.5089 70.447 55.6702ZM66.3324 50.472C65.4989 50.9665 64.5536 50.9471 64.1362 51.8717C63.244 53.7871 62.3236 55.6548 61.4173 57.5463C61.3213 57.7645 61.2015 57.9967 61.0623 58.3049C61.7806 58.1044 62.3514 57.9269 62.8129 57.782C63.3998 55.0807 65.4084 53.1476 66.3324 50.472ZM64.2277 14.3617C64.1144 13.1396 64.0482 13.0822 63.3679 13.2924C61.9217 13.7314 60.4756 14.1703 59.0533 14.5952C58.3492 14.8195 57.631 15.02 56.8748 15.2108C57.0245 15.7344 57.1228 16.0629 57.2069 16.3676C59.5804 15.7007 61.8683 15.0524 64.2277 14.3617ZM72.6119 48.5192C71.4955 48.5369 71.0422 48.967 70.7104 49.873C69.8927 52.131 68.8949 54.3024 67.9872 56.5172C68.5097 56.5295 68.9994 56.4323 69.3015 55.8018C70.1699 53.9006 71.1 51.9949 71.9921 50.0795C72.2176 49.5912 72.4051 49.0931 72.6119 48.5192ZM73.5781 54.4894C73.6965 54.5803 73.791 54.6854 73.9094 54.7763C74.2912 54.3886 74.801 54.0539 75.0264 53.5656C75.9476 51.5363 76.7549 49.4779 77.6098 47.3912C77.682 47.1872 77.7162 46.9735 77.7839 46.7077C76.8572 46.774 76.4375 47.152 76.1913 48.0394C75.8818 49.2545 75.3446 50.4113 74.8453 51.5779C74.4465 52.5881 74.0052 53.5268 73.5781 54.4894ZM28.7501 67.6124C28.8446 67.7175 28.9154 67.8367 29.0099 67.9418C29.5056 67.5832 30.1717 67.3492 30.4969 66.8661C31.4345 65.4073 32.2538 63.8575 33.1393 62.3651C33.7473 61.3275 34.3835 60.3376 35.0436 59.3335C34.5873 59.3786 34.1497 59.5093 33.9488 59.8219C32.1844 62.3837 30.4624 65.017 28.7501 67.6124ZM51.0637 61.2072C51.8392 60.9405 52.6564 60.9069 52.9243 60.49C53.9334 58.9888 54.7482 57.3772 55.6151 55.7991C54.687 56.1886 53.7068 56.5446 53.1859 57.2404C52.3591 58.3434 51.8494 59.7095 51.0637 61.2072ZM76.5902 53.3792C78.6928 52.7441 80.1339 48.1178 78.91 46.652C78.1735 48.8296 77.3796 51.0735 76.5902 53.3792ZM39.3189 64.6942C40.5358 64.5202 41.5912 64.3452 41.7637 62.9536C41.7786 62.8158 41.8932 62.6833 41.984 62.565C42.845 61.2483 43.6918 59.9078 44.6726 58.3589C44.1539 58.57 43.6358 58.6195 43.4304 58.8703C42.0634 60.745 40.7388 62.6914 39.3189 64.6942ZM22.87 62.0434C22.0007 62.0435 21.4715 62.4541 21.1121 63.1509C20.772 63.7717 20.4603 64.4402 20.0443 65.0415C19.4512 65.9414 19.5473 66.7547 20.1846 67.6659C21.0767 65.7506 21.9637 63.935 22.87 62.0434ZM39.6998 58.1181C39.6954 58.0563 39.6671 58.0086 39.6484 57.923C39.2198 58.1773 38.6727 58.3407 38.4145 58.7196C36.9411 61.012 35.5198 63.3381 34.0746 65.6782C33.9072 65.9387 33.7636 66.1851 33.5865 66.4836C34.7074 66.5277 34.8063 65.6632 35.1985 65.0759C36.6815 62.7455 38.1788 60.4389 39.6998 58.1181ZM31.6938 66.9296C33.0394 66.647 33.0028 65.2827 33.6524 64.4782C34.3453 63.5836 34.9056 62.5743 35.518 61.5985C36.1066 60.6368 36.6714 59.6893 37.2601 58.7276C37.1558 58.6605 37.0137 58.5837 36.9095 58.5166C35.0446 61.2347 33.3219 64.0296 31.6938 66.9296ZM49.0135 58.62C48.971 58.5485 48.9048 58.4911 48.8623 58.4196C48.4485 58.5361 47.8263 58.5185 47.635 58.7932C46.7458 60.0622 45.989 61.4459 45.099 62.8765C46.4968 62.6274 46.4826 62.6036 47.1382 61.5377C47.7365 60.5381 48.401 59.5958 49.0135 58.62ZM51.876 58.0176C51.7956 57.9364 51.739 57.841 51.6586 57.7598C51.1637 57.9567 50.47 57.9815 50.2356 58.3462C49.4564 59.4209 48.8716 60.606 48.2108 61.7716C48.2532 61.8432 48.3195 61.9006 48.3619 61.9721C48.9476 61.6568 49.718 61.4899 50.0953 61.0404C50.7598 60.0981 51.2777 59.0172 51.876 58.0176ZM46.4709 58.8392C46.3905 58.7579 46.3101 58.6767 46.2536 58.5813C45.9819 58.7747 45.6582 58.9346 45.4528 59.1854C45.1328 59.5686 44.8932 60.0331 44.6014 60.4641C43.9079 61.5202 43.1764 62.5667 42.3586 63.7933C43.4519 63.6281 43.9759 63.3172 44.374 62.4686C44.9782 61.2076 45.7625 60.0331 46.4709 58.8392ZM19.2954 64.6477C19.5737 64.0314 19.8133 63.5669 20.0723 63.0264C18.7408 63.3329 18.7311 63.3709 19.2954 64.6477Z" fill="white"/>
<path d="M42.3239 23.6828C39.9593 24.4732 37.5948 25.2637 35.2205 26.0921C33.5839 26.6441 33.1097 26.442 32.6659 24.7713C32.4231 23.8194 32.2421 22.863 32.1467 21.8882C32.0371 20.8894 32.6809 20.3463 33.5941 20.0946C35.5062 19.5726 37.4607 19.1221 39.3258 18.4668C41.2766 17.7929 43.3063 17.5235 45.2853 16.8973C46.0988 16.6402 46.7583 16.8292 47.1112 17.5868C47.6101 18.6447 48.0374 19.7449 48.4031 20.8496C48.6279 21.5542 48.2931 22.0752 47.551 22.2899C45.8243 22.7986 44.0834 23.2835 42.3567 23.7922C42.3381 23.7066 42.3239 23.6828 42.3239 23.6828ZM39.2245 23.0719C40.7726 22.1534 41.3454 20.4597 42.2354 19.0291C40.7254 19.9573 40.3088 21.7517 39.2245 23.0719ZM41.6605 22.239C41.703 22.3105 41.7313 22.3582 41.7499 22.4439C42.0974 22.2699 42.6393 22.2063 42.7926 21.9219C43.3722 20.8366 43.8618 19.7081 44.3514 18.5795C44.2993 18.546 44.2472 18.5124 44.1951 18.4789C43.3535 19.7196 42.5022 20.9983 41.6605 22.239ZM33.6371 24.2917C33.7131 24.3111 33.789 24.3306 33.8649 24.35C34.6969 23.1472 35.5527 21.9303 36.3705 20.7037C36.3042 20.6463 36.2238 20.5651 36.1576 20.5077C35.8331 20.8292 35.4424 21.0932 35.17 21.4482C34.6491 22.1441 34.1661 22.8497 33.7211 23.565C33.611 23.7592 33.6572 24.0542 33.6371 24.2917ZM35.0193 24.342C35.1235 24.4091 35.2039 24.4903 35.3082 24.5574C36.3552 23.0659 37.3784 21.5885 38.4255 20.0969C38.3592 20.0396 38.293 19.9822 38.2029 19.9389C37.1558 21.4304 36.0805 22.8743 35.0193 24.342ZM37.0847 23.5356C37.1509 23.593 37.2075 23.6884 37.2738 23.7458C38.5442 23.2821 38.5173 21.8798 39.1059 20.9181C38.4465 21.7606 37.7537 22.6552 37.0847 23.5356ZM34.2828 21.201C32.9564 21.4077 33.418 22.2943 33.4293 22.9645C33.7024 22.4479 33.9613 21.9075 34.2828 21.201Z" fill="white"/>
<path d="M22.1994 38.8786C20.8626 39.2848 19.033 38.3719 18.6115 37.0103C18.3635 36.1581 18.7512 35.5091 19.3287 34.9086C19.9539 34.2798 20.687 33.9415 21.5884 34.2126C22.6178 34.5366 23.6094 35.8823 23.5999 36.9517C23.6238 37.9689 23.1602 38.5986 22.1994 38.8786Z" fill="white"/>
<path d="M56.539 19.1492C57.4381 18.8736 58.3954 19.4016 58.6478 20.3156C58.863 21.0582 58.4366 21.8592 57.6849 22.1117C56.8952 22.3546 56.0802 21.9035 55.7942 21.0416C55.5276 20.1038 55.8208 19.3497 56.539 19.1492Z" fill="white"/>
<path d="M49.0935 54.5757C46.0122 55.2434 43.1599 54.6149 40.4593 52.9938C39.9003 52.6485 39.2214 52.5355 38.6527 52.2283C38.3684 52.0746 38.1942 51.7267 37.953 51.483C36.5624 50.1162 35.1004 48.7917 33.791 47.3445C32.1316 45.5246 31.7904 43.2128 32.157 40.9001C32.9601 35.5241 35.6905 31.5511 40.7649 29.2496C41.655 28.8504 42.4558 28.2463 43.477 28.2851C44.1372 28.3124 44.7684 28.4537 45.4048 28.4951C46.2027 28.5375 47.0199 28.5039 47.8082 28.5842C50.2347 28.8207 52.1864 30.048 54.0898 31.4652C55.4014 32.4276 56.6796 33.4421 57.2566 35.066C57.8196 36.6661 58.6914 38.244 58.7459 39.8556C58.8177 41.876 58.3758 44.0077 57.797 45.9628C56.6491 49.835 54.1568 52.6353 50.3826 54.1976C49.9591 54.3522 49.5311 54.4449 49.0935 54.5757ZM42.5753 52.5442C46.6607 46.1878 50.7267 39.9073 54.7883 33.565C54.1444 33.0767 53.6427 32.6653 52.9846 32.1531C49.1449 38.8151 45.3483 45.3869 41.5324 52.0347C42.0349 52.2846 42.3572 52.4479 42.5753 52.5442ZM38.3443 50.026C42.3403 43.4647 46.2694 37.0076 50.1888 30.5886C49.1936 30.0508 49.1936 30.0508 48.6898 31.1556C48.4978 31.5918 48.2679 32.0183 48 32.4351C46.2401 35.0588 44.3759 37.6153 42.6823 40.2963C40.845 43.2237 39.164 46.2518 37.4168 49.2225C37.8664 49.6004 38.1835 49.8635 38.3443 50.026ZM52.0906 31.2975C51.7006 31.4 51.3537 31.4124 51.1915 31.5731C50.8097 31.9608 50.5083 32.4297 50.2308 32.8845C47.3167 37.5789 44.3788 42.2875 41.4789 47.0058C40.7325 48.19 40.0382 49.4078 39.3298 50.6017C39.9648 50.9663 40.3533 51.1871 40.6756 51.3504C44.4439 44.7309 48.2025 38.1493 52.0906 31.2975ZM44.786 53.231C45.8382 51.6397 46.7855 50.1429 47.7708 48.6558C50.3917 44.7155 53.0126 40.7752 55.6998 36.8923C56.2594 36.0445 56.1864 35.3787 55.558 34.5911C51.5545 40.7055 47.5748 46.8058 43.5281 53.0104C44.0692 53.1083 44.4726 53.1913 44.786 53.231ZM36.921 48.5496C37.2283 47.8193 37.5117 47.1032 37.8473 46.4205C40 42.0167 42.8159 38.0251 45.5038 33.9806C46.3886 32.6498 47.2734 31.319 48.2014 29.8981C46.6167 29.4523 46.1076 29.6254 45.4706 30.7769C45.1067 31.4119 44.7667 32.0327 44.4028 32.6676C41.8021 37.4018 39.2155 42.1598 36.5389 46.8745C36.0745 47.6657 36.0344 48.1408 36.921 48.5496ZM42.7619 29.902C42.6957 29.8446 42.6294 29.7872 42.587 29.7157C42.2052 30.1034 41.6954 30.4381 41.4417 30.8787C40.2064 33.0299 38.995 35.167 37.8498 37.3614C36.6711 39.6079 35.5304 41.8642 34.4797 44.1637C33.8994 45.4106 34.2523 46.1682 35.508 46.8737C38.5358 41.177 41.5636 35.4803 44.5914 29.7836C44.0288 30.2463 43.5704 30.7762 43.2541 31.3828C40.8261 35.7567 38.4359 40.1403 36.0317 44.5C35.8114 44.8886 35.411 45.1906 35.0769 45.55C35.117 45.075 35.0291 44.5469 35.2114 44.1486C36.8127 40.8777 38.4281 37.6307 40.1195 34.403C40.9008 32.8435 41.8764 31.3944 42.7619 29.902ZM56.6422 37.558C53.0271 42.8618 49.4454 48.1135 45.8638 53.3652C45.9918 53.4182 46.0722 53.4994 46.1578 53.4809C46.5709 53.5259 46.9937 53.5329 47.3785 53.5302C47.6277 53.0278 47.8294 52.5536 48.0831 52.1129C50.9295 47.6843 53.7759 43.2556 56.6081 38.8031C56.8567 38.4622 57.2481 38.0366 56.6422 37.558ZM57.6264 39.4883C54.5508 44.1819 51.5564 48.7951 48.5813 53.3324C49.7699 53.1106 50.8788 52.6461 51.5069 51.3709C51.6988 50.9347 52.0188 50.5514 52.2488 50.1249C53.8821 47.1251 55.5393 44.1112 57.1443 41.0637C57.3743 40.6372 57.4434 40.0482 57.6264 39.4883ZM40.0104 31.1799C38.7147 31.9809 37.9586 33.2031 37.3068 34.4924C36.1616 36.6868 35.0923 38.9007 33.933 41.0713C33.5929 41.6921 33.4858 42.2714 33.797 42.7959C35.8523 38.9333 37.9313 35.0566 40.0104 31.1799ZM53.0862 50.8852C54.5093 50.2987 57.2826 45.2043 57.0182 43.7817C55.8015 46.0185 54.384 48.568 53.0862 50.8852ZM36.0028 35.0082C35.8986 34.9411 35.7847 34.912 35.6805 34.8448C35.0235 36.2339 34.3285 37.6133 33.6714 39.0023C33.7995 39.0553 33.9037 39.1224 34.0317 39.1754C34.6887 37.7863 35.3458 36.3973 36.0028 35.0082Z" fill="white"/>
</g>
<defs>
<clipPath id="clip0_100_237">
<rect width="72" height="55" fill="white" transform="translate(0 36.7386) rotate(-30.681)"/>
</clipPath>
</defs>
</svg>
