<svg width="83" height="84" viewBox="0 0 83 84" fill="none" xmlns="http://www.w3.org/2000/svg">
<g clip-path="url(#clip0_100_271)">
<path d="M45.9861 20.611C46.5651 19.828 47.0895 19.0708 47.7158 18.3592C48.3254 17.6688 48.9989 17.0285 49.8309 16.5811C50.5915 16.1807 51.3586 15.9916 52.1896 15.8526C55.0291 15.4321 57.5851 16.1635 60.042 17.5042C61.3213 18.1974 62.5507 18.9543 63.5679 20.026C64.649 21.1478 65.5754 22.4232 66.3712 23.7336C68.0146 26.4638 69.3134 29.3706 70.301 32.4114C70.9874 34.5636 71.294 36.7618 71.1068 39.0198C70.9762 40.6349 70.3712 42.1533 69.4132 43.4639C69.2131 43.7194 69.0176 44.0128 68.8175 44.2682C67.9976 45.4465 66.8868 46.2938 65.549 46.8603C64.9265 47.1283 64.2826 47.3796 63.686 47.7023C63.3793 47.8742 63.1245 48.1556 62.8105 48.4248C62.8624 48.5341 62.8976 48.6647 62.9707 48.7908C63.8721 50.4931 64.8115 52.1908 65.7129 53.8932C66.0362 54.49 65.8824 55.1252 65.648 55.7316C65.232 56.7454 64.5603 57.5589 63.7868 58.3269C61.5827 60.4819 59.1471 62.3181 56.6216 64.0495C52.9381 66.5569 49.0304 68.6482 45.1014 70.7228C42.6389 72.0226 39.9856 72.8638 37.3536 73.7217C36.3345 74.0569 35.2849 74.2995 34.2398 74.58C33.3801 74.7997 32.6927 74.5359 32.1489 73.8695C30.9362 72.3011 29.6522 70.78 28.4896 69.1478C26.5849 66.4877 24.7515 63.7805 22.9562 61.0686C21.4443 58.785 19.9871 56.4754 18.5845 54.14C17.6164 52.5228 16.7956 50.8493 15.9202 49.2016C14.7566 47.0878 13.5764 44.9953 12.4128 42.8815C11.4735 41.1837 10.5721 39.4814 9.67069 37.7791C9.61882 37.6698 9.60029 37.5178 9.64569 37.416C10.0728 36.6514 10.5638 35.9368 11.1827 35.3224C13.2607 33.2404 15.3647 31.2132 17.6909 29.4288C19.6485 27.9395 21.7006 26.5929 23.7527 25.2463C26.2281 23.5788 28.7462 21.9446 31.4625 20.6719C33.2116 19.8437 34.9867 19.0702 36.7663 18.3346C37.9781 17.8412 39.1945 17.3858 40.4415 17.023C41.0187 16.8568 41.6783 16.8927 42.2832 16.9544C42.7316 16.9965 43.1226 17.1997 43.4394 17.5853C44.1509 18.5206 44.917 19.4299 45.6619 20.3226C45.7897 20.4228 45.8796 20.5275 45.9861 20.611ZM10.7741 37.8191C10.8398 38.0424 10.8676 38.2702 10.9668 38.4509C11.3725 39.2497 11.7616 40.0698 12.2053 40.864C13.041 42.343 13.9859 43.7703 14.7835 45.254C16.0036 47.5151 17.081 49.8706 18.3724 52.0846C20.2446 55.2688 22.2049 58.3847 24.2198 61.4746C26.1356 64.3838 28.1987 67.2367 30.2238 70.0942C30.9659 71.1221 31.8126 72.0602 32.5167 73.0927C32.9206 73.7183 33.5608 73.9107 34.1593 73.7612C35.4109 73.4364 36.6625 73.1116 37.8835 72.6941C39.5678 72.1243 41.2613 71.6304 42.8631 70.8586C47.1859 68.852 51.3576 66.5553 55.3358 63.9352C58.1345 62.0744 60.8435 60.1089 63.2568 57.7744C63.9637 57.0915 64.6067 56.3586 64.956 55.4299C65.0708 55.1077 65.1718 54.6716 65.0421 54.3982C63.9286 52.2205 62.7817 50.0854 61.5969 47.9549C60.8604 46.6566 59.9599 45.4359 59.2234 44.1376C58.0052 42.0496 56.8583 39.9145 55.6568 37.8053C55.0454 36.7423 54.4506 35.6581 53.8012 34.5997C51.8863 31.3821 49.9168 28.1903 48.0566 24.9467C46.5883 22.388 44.7512 20.1244 42.7715 17.9552C42.7075 17.9051 42.6269 17.8763 42.6056 17.8596C42.0081 18.4907 41.4059 19.0838 40.825 19.6936C39.5919 20.9604 38.0373 21.8036 36.6032 22.8442C34.0536 24.6941 31.4003 26.3254 28.709 27.9612C26.5384 29.2836 24.3205 30.5346 22.1239 31.8023C20.3766 32.8037 18.608 33.7884 16.8561 34.7518C16.0455 35.216 15.2302 35.6422 14.4409 36.123C13.2949 36.8397 12.1443 37.5185 10.7741 37.8191ZM54.4766 34.1326C55.9755 36.784 57.543 39.5234 59.0558 42.2887C59.431 42.9948 59.9544 43.3362 60.6613 43.4434C60.9577 43.5039 61.2829 43.4838 61.5701 43.4683C62.8115 43.376 63.9399 42.989 64.6598 41.9385C65.1628 41.1646 65.5593 40.3074 65.8799 39.4593C66.4877 37.8056 66.4145 36.0995 66.0755 34.4255C65.2853 30.4744 63.3139 27.1094 60.5866 24.1827C59.7232 23.2659 58.7597 22.4767 57.6007 21.981C56.4251 21.5066 55.217 21.5563 54.0201 21.8553C53.253 22.0444 52.3961 22.1288 51.7494 22.5153C50.7248 23.121 49.8419 23.9407 49.2786 25.0109C49.1998 25.1553 49.2109 25.4045 49.2841 25.5305C49.6547 26.1987 50.0966 26.8197 50.5051 27.4832C51.7752 29.6805 53.1 31.8519 54.4766 34.1326ZM48.6681 24.4296C48.7514 24.3231 48.8135 24.2 48.8802 24.1149C49.8428 22.8423 50.8906 21.6364 52.5647 21.2991C53.619 21.0945 54.702 20.8093 55.7794 20.7946C57.258 20.7507 58.6041 21.3586 59.738 22.2813C61.4732 23.7094 62.9489 25.3808 64.094 27.3427C64.7313 28.4603 65.352 29.5992 65.8634 30.7899C67.2863 34.2405 67.7884 37.7254 66.0429 41.2702C65.3027 42.7856 64.1984 43.8442 62.541 44.1602C61.8239 44.2855 61.093 44.2968 60.4426 44.337C61.0188 45.2693 61.621 46.2563 62.2278 47.2813C62.426 47.6427 62.59 47.565 62.8114 47.3263C62.9828 47.1514 63.1542 46.9765 63.3728 46.873C63.9361 46.5929 64.504 46.3508 65.0719 46.1087C66.1531 45.6503 67.1231 45.0705 67.8188 44.1385C68.119 43.7553 68.3766 43.3388 68.7147 42.9511C69.5031 41.9886 69.9645 40.8729 70.1674 39.6922C70.602 37.2502 70.2129 34.85 69.4866 32.5291C68.6214 29.859 67.4615 27.3015 66.0831 24.8475C65.2215 23.3138 64.2173 21.8744 62.9824 20.5979C62.0078 19.5595 60.847 18.8906 59.6269 18.2096C58.1984 17.3996 56.6957 16.7721 55.0587 16.6232C53.3031 16.4501 51.5114 16.4549 49.9587 17.4713C49.3334 17.8745 48.7766 18.3658 48.2837 18.9071C47.7408 19.5123 47.2831 20.1843 46.8255 20.8563C46.6967 21.0646 46.5299 21.2774 46.7402 21.5796C47.3377 22.5286 47.9899 23.4518 48.6681 24.4296ZM41.8895 17.6765C41.5263 17.7011 41.2086 17.6239 40.9306 17.7153C40.2562 17.874 39.6031 18.0493 38.9759 18.2794C38.0541 18.6221 37.1582 19.0195 36.2623 19.4169C34.6513 20.1128 33.0402 20.8086 31.4551 21.5592C28.71 22.9125 26.1799 24.6059 23.6285 26.2826C22.3065 27.1363 20.9678 28.0111 19.693 28.9361C17.0007 30.8804 14.5781 33.1389 12.2027 35.4688C11.7385 35.9296 11.2744 36.3904 10.7722 36.8558C10.7982 36.9105 10.8195 36.9272 10.8454 36.9818C11.09 36.933 11.3179 36.9054 11.5365 36.8019C11.9738 36.5949 12.4111 36.3878 12.8271 36.1641C13.7637 35.6269 14.6957 35.0517 15.6323 34.5144C17.2202 33.6287 18.8387 32.8356 20.4053 31.9331C22.0099 31.026 23.5626 30.0097 25.1246 29.0692C28.0846 27.266 31.1039 25.4748 34.0425 23.6549C35.1172 22.9854 36.14 22.2065 37.2313 21.5157C38.974 20.4763 40.435 19.182 41.8895 17.6765Z" fill="white"/>
</g>
<defs>
<clipPath id="clip0_100_271">
<rect width="61.8697" height="55.7592" fill="white" transform="translate(0.405273 49.0356) rotate(-51.9246)"/>
</clipPath>
</defs>
</svg>
