<svg width="119" height="105" viewBox="0 0 119 105" fill="none" xmlns="http://www.w3.org/2000/svg">
<g clip-path="url(#clip0_100_222)">
<path d="M16.9347 76.2742C15.4278 74.8088 14.0939 73.3898 12.6273 72.1196C5.61086 66.3149 4.12542 57.5239 8.2409 49.4539C13.2308 39.6823 21.7235 34.8174 31.9265 33.5936C35.81 33.1155 37.1429 31.2604 39.263 29.0635C50.7291 16.9284 64.5693 12.3477 81.1808 16.258C88.8164 18.0331 95.8921 20.8566 102.079 25.6084C105.038 27.8791 107.631 30.6508 110.071 33.4736C115.185 39.4586 113.318 52.7898 107.737 58.2065C101.78 63.9835 94.9892 67.6918 86.882 68.8794C84.4228 69.233 84.1339 70.3081 84.6776 72.2525C85.158 74.0876 85.7912 75.8716 86.0871 77.7033C86.4807 80.2067 85.4683 81.0413 83.024 80.4767C79.0433 79.5915 75.3743 78.2367 72.3404 75.2082C69.7876 72.6318 66.2993 72.8472 63.0983 74.7536C54.8535 79.7313 46.0362 82.5263 36.1892 81.2175C33.2432 80.7947 30.6513 81.2971 27.886 82.4446C23.7107 84.1814 19.2137 83.6647 15.0143 82.2135C13.8268 81.8022 13.0493 80.21 12.0669 79.2082C13.0878 78.5143 14.077 77.7657 15.0979 77.0717C15.6142 76.7032 16.2023 76.5846 16.9347 76.2742ZM81.6566 77.1121C81.8124 76.8774 81.9797 76.5996 82.1355 76.3648C81.7476 74.1856 81.3596 72.0064 81.0149 69.8389C80.6415 67.433 81.7694 66.1684 84.2488 65.9124C86.1083 65.7205 88.0111 65.5401 89.7901 64.9576C98.4661 62.1708 106.194 58.2532 109.152 48.6271C110.997 42.6216 109.156 36.363 104.58 31.9981C98.6796 26.3549 91.8581 22.5853 83.969 20.3732C75.1288 17.9056 66.4984 16.5548 57.4645 19.9832C46.0057 24.3278 38.1202 31.2464 36.1641 44.0464C34.7229 53.8955 38.8894 62.7153 48.3058 65.7989C54.4825 67.8276 61.0145 68.7067 67.4455 69.7892C70.5961 70.313 73.1959 71.3344 75.5932 73.454C77.3047 75.0206 79.6133 75.9176 81.6566 77.1121ZM18.0398 79.7527C21.7439 80.2869 24.6843 80.3854 27.7321 79.2217C29.9063 78.3765 32.3539 78.0659 34.6689 77.9041C39.4834 77.5839 44.4042 78.0762 49.0864 77.2133C53.0708 76.5318 56.7851 74.4405 60.9689 72.8443C55.6193 71.3607 50.8372 70.3524 46.3813 68.6478C38.925 65.8604 30.7086 56.4134 32.7555 46.0354C33.3944 42.795 34.0651 39.6092 34.8311 35.8957C33.7558 35.9295 32.6719 35.8227 31.7233 36.075C29.2264 36.7413 26.6546 37.3413 24.2613 38.312C15.9569 41.6137 10.9287 47.7323 9.24595 56.4099C8.87578 58.4775 9.09636 60.9345 9.86785 62.894C12.0988 68.5655 16.1931 72.4784 22.1336 74.3513C22.8138 74.5802 23.7907 75.2577 23.7933 75.7656C23.7929 76.4571 23.2013 77.4509 22.5438 77.8275C21.3817 78.5296 20.0178 78.947 18.0398 79.7527Z" fill="white"/>
<path d="M45.1959 44.0757C45.0276 41.0794 48.4686 37.762 52.0349 37.4292C54.5027 37.2163 56.1449 39.0408 56.2786 42.1661C56.4637 46.1351 53.9828 49.1573 50.3532 49.3808C47.5279 49.5438 45.4132 47.4078 45.1959 44.0757Z" fill="white"/>
<path d="M86.6123 41.4178C86.47 38.1519 88.192 36.4013 91.7005 36.2836C95.3934 36.1693 97.3357 37.5673 97.4522 40.4113C97.6318 44.0561 95.3413 46.7144 91.8098 46.9181C88.6587 47.0859 86.7486 45.051 86.6123 41.4178Z" fill="white"/>
<path d="M69.5745 47.0298C66.9568 47.1103 65.3806 45.9029 65.2752 43.7074C65.0725 40.1486 67.568 36.8999 70.6094 36.7949C73.9334 36.6737 76.7459 38.6283 76.8253 41.0934C76.8669 43.8712 73.2242 46.9039 69.5745 47.0298Z" fill="white"/>
</g>
<defs>
<clipPath id="clip0_100_222">
<rect width="81" height="101" fill="white" transform="translate(0 78.2251) rotate(-74.9594)"/>
</clipPath>
</defs>
</svg>
