<svg width="60" height="60" viewBox="0 0 60 60" fill="none" xmlns="http://www.w3.org/2000/svg">
<path d="M30.5 1C33.311 1 36.007 2.1185 37.9947 4.10945C39.9824 6.1004 41.099 8.80071 41.099 11.6163L41.0938 11.7623L41.1732 11.7145C43.4061 10.4171 46.0373 9.98728 48.5661 10.5069L49.1941 10.6556C50.5325 11.018 51.7862 11.642 52.883 12.4914C53.9798 13.3409 54.8982 14.3992 55.5853 15.6054C56.9831 18.0418 57.3622 20.933 56.64 23.6483C55.9177 26.3636 54.1527 28.6826 51.7299 30.0994L51.5497 30.1949L51.7378 30.2984C54.0733 31.6663 55.8 33.8749 56.5656 36.474C57.3313 39.0731 57.0783 41.8668 55.8582 44.2854L55.5906 44.7791C54.9032 45.987 53.9838 47.0467 52.8856 47.8971C51.7874 48.7475 50.532 49.3718 49.1918 49.734C47.8516 50.0961 46.4531 50.1891 45.0769 50.0074C43.7007 49.8257 42.374 49.3729 41.1732 48.6753L41.0938 48.6222L41.099 48.7735C41.099 51.4972 40.0539 54.1168 38.1797 56.0903C36.3056 58.0638 33.7458 59.2404 31.03 59.3766L30.5 59.3898C27.689 59.3898 24.993 58.2713 23.0053 56.2804C21.0176 54.2894 19.901 51.5891 19.901 48.7735L19.9036 48.6249L19.8268 48.6753C17.5942 49.9737 14.963 50.4044 12.4339 49.8856L11.8086 49.7369C10.4697 49.3748 9.2155 48.751 8.11818 47.9015C7.02087 47.052 6.10209 45.9936 5.4147 44.7871C4.01727 42.3516 3.6378 39.4615 4.35902 36.7469C5.08024 34.0323 6.84366 31.7134 9.26481 30.2958L9.45029 30.1949L9.26216 30.0941C6.92667 28.7262 5.20005 26.5176 4.4344 23.9185C3.66875 21.3194 3.92174 18.5257 5.14178 16.107L5.40675 15.6107C6.09419 14.4018 7.01386 13.3411 8.1127 12.49C9.21153 11.6389 10.4678 11.0142 11.8089 10.652C13.15 10.2898 14.5495 10.1972 15.9266 10.3795C17.3036 10.5619 18.631 11.0156 19.8321 11.7145L19.901 11.7623V11.6163C19.9009 8.8926 20.9461 6.27306 22.8203 4.29952C24.6944 2.32599 27.2542 1.14946 29.97 1.01327L30.5 1ZM30.5 22.2327C28.3917 22.2327 26.3698 23.0715 24.879 24.5648C23.3882 26.058 22.5507 28.0832 22.5507 30.1949C22.5507 32.3066 23.3882 34.3319 24.879 35.8251C26.3698 37.3183 28.3917 38.1572 30.5 38.1572C32.6083 38.1572 34.6302 37.3183 36.121 35.8251C37.6118 34.3319 38.4493 32.3066 38.4493 30.1949C38.4493 28.0832 37.6118 26.058 36.121 24.5648C34.6302 23.0715 32.6083 22.2327 30.5 22.2327Z" fill="#606060"/>
</svg>
