<svg width="688" height="596" viewBox="0 0 688 596" fill="none" xmlns="http://www.w3.org/2000/svg">
<path d="M675.708 138.577L675.709 138.578C690.393 169.291 690.688 196.51 676.983 220.378C666.778 238.047 653.305 249.104 636.632 253.619C619.96 258.075 602.731 255.317 585.066 245.115C580.935 242.73 576.979 239.937 573.255 236.737C569.55 233.554 566.849 231.438 565.15 230.476L556.515 223.58L624.325 105.883L624.614 105.381L624.322 104.88C621.807 100.57 618.859 97.0637 615.35 94.3281C607.866 86.4983 599.085 79.6819 589.013 73.8763C557.145 55.5051 525.706 54.6555 494.814 71.3811C464.004 88.0621 433.822 122.178 404.205 173.533L405.071 174.033L404.205 173.533L190.355 544.53L189.965 545.206L190.527 545.749L230.507 584.333L224.562 594.634L1.36622 465.997L7.31184 455.695L60.7755 470.92L61.526 471.133L61.9157 470.457L275.765 99.5196L275.766 99.5192C307.181 44.9709 348.266 13.0818 398.949 3.65976C449.644 -5.76473 510.441 9.84276 581.415 50.7425C629.72 78.6305 661.103 107.907 675.708 138.577Z" stroke="#B9C9CA" stroke-width="2"/>
</svg>
