<svg width="480" height="366" viewBox="0 0 480 366" fill="none" xmlns="http://www.w3.org/2000/svg">
<path d="M1.5 -5.25486C2.83169 18.278 1.64219 94.3237 17.4802 128.315C37.9549 172.256 68.9166 200.219 106.37 200.219C143.824 200.219 171.789 182.089 190.766 157.122C202.348 141.883 219.73 112.336 213.238 90.8642C209.313 77.8815 186.771 75.4294 184.773 98.6261C182.776 121.823 181.777 133.925 190.766 131.908C199.755 129.891 172.788 85.3715 152.813 93.5833C136.383 100.338 147.819 120.276 152.813 125.319C157.807 130.361 187.27 157.706 217.233 164.766C247.196 171.826 265.673 164.151 265.673 151.284C265.673 148.288 265.673 143.295 255.686 143.295C245.164 143.295 238.454 164.818 251.691 188.235C264.674 211.205 301.129 236.27 334.089 226.185C367.048 216.099 387.523 202.217 402.504 157.122C412.708 126.409 420.482 35.4377 423.977 -11.5L427.473 265.632" stroke="#494949" stroke-width="2" stroke-linecap="round" stroke-linejoin="round"/>
<path d="M428.624 277.667C405.612 277.667 386.958 296.321 386.958 319.334H470.291C470.291 296.321 451.637 277.667 428.624 277.667Z" fill="#494949" stroke="#494949" stroke-width="8.33333" stroke-linecap="round" stroke-linejoin="round"/>
<path d="M428.624 269.333V277.667M466.5 340.167L454.5 333.5M404 336.048L391 340.167M454.5 355.5L446.5 344.202M413 344.202L404 355.5M430.5 349V362M428.624 340.167C417.118 340.167 407.791 330.84 407.791 319.333H449.458C449.458 330.84 440.13 340.167 428.624 340.167Z" stroke="#494949" stroke-width="4" stroke-linecap="round" stroke-linejoin="round"/>
</svg>
