<svg width="479" height="379" viewBox="0 0 479 379" fill="none" xmlns="http://www.w3.org/2000/svg">
<path d="M1 7.24514C2.33169 30.778 1.14219 106.824 16.9802 140.815C37.4549 184.756 68.4166 212.719 105.87 212.719C143.324 212.719 171.289 194.589 190.266 169.622C201.848 154.383 219.23 124.836 212.738 103.364C208.813 90.3815 186.271 87.9294 184.273 111.126C182.276 134.323 181.277 146.425 190.266 144.408C199.255 142.391 172.288 97.8715 152.313 106.083C135.883 112.838 147.319 132.776 152.313 137.819C157.307 142.861 186.77 170.206 216.733 177.266C246.696 184.326 265.173 176.651 265.173 163.784C265.173 160.788 265.173 155.795 255.186 155.795C244.664 155.795 237.954 177.318 251.191 200.735C264.174 223.705 300.629 248.77 333.589 238.685C366.548 228.599 387.023 214.717 402.004 169.622C412.208 138.909 419.982 47.9377 423.477 1L426.973 278.132" stroke="#494949" stroke-width="2" stroke-linecap="round" stroke-linejoin="round"/>
<path d="M428.124 290.167C405.112 290.167 386.458 308.821 386.458 331.834H469.791C469.791 308.821 451.137 290.167 428.124 290.167Z" fill="#494949" stroke="#494949" stroke-width="8.33333" stroke-linecap="round" stroke-linejoin="round"/>
<path d="M428.124 281.833V290.167V281.833ZM428.124 352.667C416.618 352.667 407.291 343.34 407.291 331.833H448.958C448.958 343.34 439.63 352.667 428.124 352.667ZM466 352.667L454 346L466 352.667ZM403.5 348.548L390.5 352.667L403.5 348.548ZM454 368L446 356.702L454 368ZM412.5 356.702L403.5 368L412.5 356.702Z" fill="#FFE839"/>
<path d="M428.124 281.833V290.167M466 352.667L454 346M403.5 348.548L390.5 352.667M454 368L446 356.702M412.5 356.702L403.5 368M430 361.5V374.5M428.124 352.667C416.618 352.667 407.291 343.34 407.291 331.833H448.958C448.958 343.34 439.63 352.667 428.124 352.667Z" stroke="#494949" stroke-width="4" stroke-linecap="round" stroke-linejoin="round"/>
</svg>
