<svg width="1126" height="951" viewBox="0 0 1126 951" fill="none" xmlns="http://www.w3.org/2000/svg">
<g clip-path="url(#clip0_258_624)">
<path d="M31.9108 729.349C8.64947 680.609 8.09342 637.161 29.9646 599.005C46.1827 570.875 67.6832 553.143 94.3734 545.902C121.064 538.753 148.588 543.21 176.668 559.456C183.248 563.262 189.55 567.719 195.481 572.825C201.413 577.931 205.583 581.18 208.085 582.573L222.82 594.363L115.503 780.967C119.396 787.651 123.937 793.036 129.312 797.214C140.989 809.468 154.705 820.145 170.459 829.243C269.806 886.616 365.91 834.442 458.955 672.811L795.271 88.3046L731.511 26.6604L742.261 8L1096 212.243L1085.25 230.903L999.989 206.58L663.673 790.993C614.092 877.24 549.127 927.836 468.871 942.783C388.615 957.73 292.604 932.942 180.839 868.42C104.753 824.415 55.0794 778.089 31.9108 729.349Z" fill="#494949"/>
<path d="M130.202 785.427L129.923 785.927L130.212 786.421C134.277 793.35 138.806 798.716 144.512 802.867C156.321 815.028 170.365 825.66 186.636 834.767C237.351 863.151 286.861 863.915 335.119 837.045C383.295 810.222 430.141 755.907 475.792 674.339L805.733 84.8158L806.116 84.1323L805.544 83.5972L741.066 23.2728L750.813 5.85738L751.58 6.28698L752.399 6.7448L753.215 7.20183L754.03 7.65809L754.844 8.11359L755.657 8.56829L756.468 9.02225L757.277 9.47543L758.086 9.92785L758.893 10.3795L759.699 10.8304L760.503 11.2806L761.306 11.73L762.107 12.1787L762.908 12.6266L763.707 13.0738L764.505 13.5202L765.301 13.9659L766.096 14.4109L766.89 14.8552L767.682 15.2987L768.473 15.7415L769.263 16.1836L770.052 16.625L770.839 17.0656L771.625 17.5056L772.41 17.9448L773.194 18.3834L773.976 18.8212L774.757 19.2583L775.537 19.6948L776.316 20.1306L777.093 20.5656L777.869 21L778.644 21.4337L779.418 21.8668L780.19 22.2991L780.962 22.7308L781.732 23.1619L782.501 23.5922L783.268 24.0219L784.035 24.4509L784.8 24.8793L785.565 25.307L786.328 25.7341L787.09 26.1605L787.85 26.5863L788.61 27.0114L789.368 27.4359L790.126 27.8598L790.882 28.283L791.637 28.7056L792.391 29.1276L793.144 29.549L793.896 29.9697L794.646 30.3898L795.396 30.8093L796.144 31.2282L796.892 31.6465L797.638 32.0642L798.383 32.4813L799.127 32.8977L799.87 33.3136L800.612 33.7289L801.353 34.1436L802.093 34.5578L802.832 34.9713L803.57 35.3843L804.307 35.7967L805.043 36.2085L805.778 36.6197L806.511 37.0304L807.244 37.4405L807.976 37.85L808.707 38.259L809.436 38.6675L810.165 39.0753L810.893 39.4827L811.62 39.8895L812.346 40.2957L813.071 40.7014L813.795 41.1066L814.518 41.5112L815.24 41.9154L815.961 42.3189L816.681 42.722L817.4 43.1245L818.118 43.5265L818.836 43.9281L819.552 44.329L820.268 44.7295L820.982 45.1295L821.696 45.529L822.409 45.928L823.121 46.3264L823.832 46.7244L824.542 47.1219L825.252 47.5189L825.96 47.9155L826.668 48.3115L827.375 48.7071L828.081 49.1022L828.786 49.4968L829.49 49.8909L830.193 50.2846L830.896 50.6779L831.598 51.0706L832.299 51.4629L832.999 51.8548L833.698 52.2462L834.397 52.6372L835.095 53.0277L835.792 53.4178L836.488 53.8074L837.183 54.1966L837.878 54.5854L838.572 54.9737L839.265 55.3616L839.957 55.7491L840.649 56.1362L841.34 56.5229L842.03 56.9091L842.719 57.295L843.408 57.6804L844.096 58.0654L844.783 58.45L845.47 58.8343L846.155 59.2181L846.84 59.6015L847.525 59.9846L848.209 60.3673L848.892 60.7496L849.574 61.1315L850.256 61.513L850.937 61.8942L851.617 62.2749L852.297 62.6554L852.976 63.0354L853.654 63.4151L854.332 63.7944L855.009 64.1734L855.686 64.5521L856.362 64.9304L857.037 65.3083L857.712 65.6859L858.386 66.0632L859.059 66.4401L859.732 66.8167L860.404 67.1929L861.076 67.5689L861.747 67.9445L862.418 68.3198L863.088 68.6947L863.757 69.0694L864.426 69.4438L865.094 69.8178L865.762 70.1915L866.429 70.5649L867.096 70.9381L867.762 71.3109L868.428 71.6835L869.093 72.0557L869.758 72.4277L870.422 72.7994L871.085 73.1708L871.748 73.5419L872.411 73.9127L873.073 74.2833L873.735 74.6536L874.396 75.0237L875.057 75.3935L875.717 75.763L876.377 76.1323L877.036 76.5013L877.695 76.8701L878.353 77.2386L879.011 77.6069L879.669 77.9749L880.326 78.3427L880.983 78.7103L881.639 79.0776L882.295 79.4447L882.951 79.8116L883.606 80.1782L884.261 80.5447L884.915 80.9109L885.569 81.2769L886.223 81.6427L886.876 82.0083L887.529 82.3737L888.181 82.7389L888.833 83.1039L889.485 83.4687L890.137 83.8333L890.788 84.1977L891.439 84.562L892.089 84.926L892.739 85.2899L893.389 85.6536L894.039 86.0171L894.688 86.3805L895.337 86.7437L895.985 87.1067L896.634 87.4696L897.282 87.8323L897.93 88.1948L898.577 88.5572L899.224 88.9195L899.871 89.2816L900.518 89.6436L901.165 90.0054L901.811 90.3671L902.457 90.7287L903.103 91.0901L903.748 91.4514L904.394 91.8126L905.039 92.1737L905.684 92.5346L906.328 92.8955L906.973 93.2562L907.617 93.6168L908.261 93.9773L908.905 94.3377L909.549 94.698L910.193 95.0582L910.836 95.4184L911.48 95.7784L912.123 96.1383L912.766 96.4982L913.408 96.858L914.051 97.2177L914.694 97.5773L915.336 97.9369L915.979 98.2964L916.621 98.6558L917.263 99.0152L917.905 99.3745L918.547 99.7337L919.189 100.093L919.83 100.452L920.472 100.811L921.113 101.17L921.755 101.529L922.396 101.888L923.038 102.247L923.679 102.606L924.32 102.965L924.961 103.324L925.603 103.683L926.244 104.042L926.885 104.4L927.526 104.759L928.167 105.118L928.808 105.477L929.449 105.836L930.09 106.194L930.731 106.553L931.372 106.912L932.013 107.271L932.655 107.629L933.296 107.988L933.937 108.347L934.578 108.706L935.219 109.065L935.861 109.424L936.502 109.783L937.143 110.142L937.785 110.501L938.426 110.86L939.068 111.219L939.71 111.578L940.352 111.937L940.993 112.297L941.635 112.656L942.278 113.015L942.92 113.375L943.562 113.734L944.205 114.094L944.847 114.453L945.49 114.813L946.133 115.173L946.776 115.533L947.419 115.893L948.062 116.253L948.705 116.613L949.349 116.973L949.993 117.333L950.637 117.694L951.281 118.054L951.925 118.415L952.57 118.776L953.215 119.136L953.859 119.497L954.505 119.858L955.15 120.22L955.796 120.581L956.441 120.942L957.087 121.304L957.734 121.666L958.38 122.027L959.027 122.389L959.674 122.752L960.321 123.114L960.969 123.476L961.617 123.839L962.265 124.202L962.913 124.564L963.562 124.927L964.21 125.291L964.86 125.654L965.509 126.017L966.159 126.381L966.809 126.745L967.46 127.109L968.111 127.473L968.762 127.838L969.413 128.202L970.065 128.567L970.717 128.932L971.37 129.297L972.022 129.663L972.676 130.028L973.329 130.394L973.983 130.76L974.638 131.126L975.292 131.493L975.948 131.86L976.603 132.226L977.259 132.593L977.915 132.961L978.572 133.328L979.229 133.696L979.887 134.064L980.545 134.433L981.203 134.801L981.862 135.17L982.522 135.539L983.181 135.908L983.842 136.278L984.502 136.647L985.163 137.017L985.825 137.388L986.487 137.758L987.15 138.129L987.813 138.5L988.477 138.872L989.141 139.243L989.805 139.615L990.47 139.988L991.136 140.36L991.802 140.733L992.469 141.106L993.136 141.48L993.804 141.853L994.472 142.227L995.141 142.602L995.811 142.976L996.481 143.351L997.151 143.727L997.822 144.102L998.494 144.478L999.166 144.854L999.839 145.231L1000.51 145.608L1001.19 145.985L1001.86 146.363L1002.54 146.741L1003.21 147.119L1003.89 147.498L1004.57 147.877L1005.24 148.256L1005.92 148.636L1006.6 149.016L1007.28 149.396L1007.96 149.777L1008.64 150.158L1009.32 150.54L1010.01 150.922L1010.69 151.304L1011.37 151.686L1012.06 152.07L1012.74 152.453L1013.43 152.837L1014.12 153.221L1014.8 153.606L1015.49 153.991L1016.18 154.376L1016.87 154.762L1017.56 155.148L1018.25 155.535L1018.94 155.922L1019.63 156.309L1020.33 156.697L1021.02 157.086L1021.72 157.474L1022.41 157.864L1023.11 158.253L1023.8 158.643L1024.5 159.034L1025.2 159.425L1025.9 159.816L1026.6 160.208L1027.3 160.6L1028 160.993L1028.7 161.386L1029.41 161.78L1030.11 162.174L1030.82 162.569L1031.52 162.964L1032.23 163.36L1032.94 163.756L1033.65 164.152L1034.36 164.549L1035.07 164.947L1035.78 165.345L1036.49 165.743L1037.2 166.142L1037.92 166.542L1038.63 166.942L1039.35 167.342L1040.06 167.743L1040.78 168.145L1041.5 168.547L1042.22 168.949L1042.94 169.352L1043.66 169.756L1044.38 170.16L1045.1 170.564L1045.83 170.97L1046.55 171.375L1047.28 171.782L1048.01 172.188L1048.73 172.596L1049.46 173.004L1050.19 173.412L1050.92 173.821L1051.65 174.231L1052.39 174.641L1053.12 175.051L1053.86 175.463L1054.59 175.874L1055.33 176.287L1056.07 176.7L1056.8 177.113L1057.54 177.527L1058.29 177.942L1059.03 178.357L1059.77 178.773L1060.52 179.19L1061.26 179.607L1062.01 180.025L1062.75 180.443L1063.5 180.862L1064.25 181.281L1065 181.701L1065.75 182.122L1066.51 182.543L1067.26 182.965L1068.02 183.388L1068.77 183.811L1069.53 184.235L1070.29 184.66L1071.05 185.085L1071.81 185.511L1072.57 185.937L1073.33 186.364L1074.1 186.792L1074.86 187.22L1075.63 187.649L1076.4 188.079L1077.17 188.509L1077.94 188.94L1078.71 189.372L1079.48 189.804L1080.25 190.237L1081.03 190.671L1081.81 191.105L1082.58 191.541L1083.36 191.976L1084.14 192.413L1084.92 192.85L1085.7 193.288L1086.49 193.726L1087.27 194.166L1088.06 194.605L1088.85 195.046L1089.64 195.487L1090.42 195.93L1091.22 196.372L1092.01 196.816L1092.8 197.26L1093.6 197.705L1094.39 198.151L1095.19 198.597L1095.99 199.044L1096.79 199.492L1097.59 199.941L1098.4 200.39L1099.2 200.841L1100.01 201.292L1100.81 201.743L1101.62 202.196L1102.43 202.649L1103.24 203.103L1104.05 203.558L1104.87 204.013L1105.68 204.469L1106.5 204.926L1107.32 205.384L1108.09 205.814L1098.34 223.232L1013 200.168L1012.25 199.964L1011.87 200.645L681.926 790.168C633.271 877.101 569.174 928.074 488.906 943.786C408.621 959.502 311.961 935.835 198.848 872.528C121.691 829.345 71.1751 783.553 47.1013 735.206C23.2009 686.46 21.9622 643.64 43.392 605.35C59.2149 577.078 80.2639 559.183 106.876 551.725C133.49 544.266 160.86 548.592 189.243 564.477C195.876 568.19 202.133 572.604 208.212 577.382C214.106 582.518 218.517 585.467 221.066 586.902L235.175 597.867L130.202 785.427Z" stroke="#B9C9CA" stroke-width="2"/>
</g>
<defs>
<clipPath id="clip0_258_624">
<rect width="1126" height="952" fill="white" transform="translate(0 -1)"/>
</clipPath>
</defs>
</svg>
