<svg width="273" height="365" viewBox="0 0 273 365" fill="none" xmlns="http://www.w3.org/2000/svg">
<g clip-path="url(#clip0_365_70)">
<path d="M82.6513 351.008C78.0977 353.175 74.0302 353.245 70.4661 351.187C67.8383 349.67 66.1778 347.664 65.502 345.137C64.8261 342.611 65.2625 340.042 66.7808 337.412C67.1473 336.777 67.5568 336.207 68.0441 335.642C68.5314 335.077 68.8361 334.689 68.9583 334.477L70.0725 333.105L87.5305 343.185C88.1467 342.815 88.6722 342.393 89.0468 341.884C90.2073 340.78 91.1914 339.494 92.0465 338.013C97.4218 328.703 92.5457 319.641 77.4135 310.904L22.6837 279.306L16.8829 285.307L15.1311 284.296L34.3111 251.075L36.0629 252.087L33.7833 260.081L88.5131 291.679C96.5776 296.335 101.303 302.449 102.708 309.991C104.113 317.533 101.772 326.539 95.7161 337.028C91.5973 344.162 87.2525 348.828 82.6513 351.008Z" fill="white"/>
<path d="M129.35 258.266C125.86 259.637 122.56 259.424 119.449 257.628C117.395 256.442 115.603 254.803 114.102 252.727C113.345 251.807 112.779 250.835 112.295 249.79C113.008 247.299 113.916 244.68 114.959 241.897C117.291 235.625 119.649 230.216 121.968 225.711L119.582 224.333C113.692 220.933 109.226 219.321 106.201 219.469C103.146 219.599 100.784 221.178 99.074 224.141C98.4283 225.259 98.0081 226.266 97.8087 227.239L97.5557 228.584L109.486 235.472L109.135 236.639C108.767 237.556 108.378 238.299 108.046 238.873C106.999 240.687 105.635 241.793 103.92 242.254C102.204 242.714 100.44 242.421 98.6581 241.392C96.2116 239.98 94.8733 237.555 94.5955 234.13C94.3351 230.675 95.6011 226.529 98.411 221.662C100.802 217.521 103.586 214.372 106.764 212.217C109.941 210.061 113.274 208.962 116.749 208.873C120.224 208.783 123.637 209.706 126.96 211.624L148.405 224.006L152.34 219.91L153.518 220.59L149.382 227.754C147.549 230.928 145.152 232.848 142.176 233.468C140.955 233.771 139.596 233.752 138.144 233.478C139.036 235.001 139.708 236.557 140.189 238.165C141.197 241.931 140.664 245.573 138.605 249.14C135.93 253.843 132.809 256.878 129.35 258.266ZM137.594 237.15C137.14 236.123 136.432 234.908 135.47 233.506L123.962 226.862C122.548 229.31 121.325 231.707 120.323 234.071C119.592 235.825 119.067 237.014 118.796 237.623C119.213 238.226 119.871 238.969 120.728 239.786C122.438 241.499 124.261 242.874 126.225 244.008C129.185 245.717 131.651 246.536 133.595 246.449C135.538 246.362 136.908 245.662 137.711 244.271C138.841 242.384 138.783 239.973 137.594 237.15Z" fill="white"/>
<path d="M155.046 215.224L156.625 209.768L121.649 189.575L117.713 193.671L116.535 192.991L120.672 185.826C122.469 182.713 124.897 180.81 127.968 180.164C129.154 179.923 130.483 179.924 131.91 180.103C130.957 178.545 130.267 177.018 129.864 175.415C128.857 171.649 129.389 168.007 131.448 164.44C133.159 161.478 135.329 159.184 137.928 157.541C140.528 155.898 143.224 154.996 146.015 154.834C148.807 154.673 151.305 155.228 153.51 156.501L178.942 171.184L182.877 167.088L184.055 167.768L178.086 178.106C175.329 182.883 171.564 183.893 166.792 181.138L146.132 169.21C142.81 167.292 139.894 166.414 137.431 166.564C134.968 166.714 133.289 167.599 132.364 169.201C131.195 171.226 131.223 173.62 132.412 176.443C132.917 177.661 133.642 178.846 134.571 180.027L163.96 196.995L167.895 192.899L169.073 193.579L156.228 215.827L155.08 215.164L155.046 215.224Z" fill="white"/>
<path d="M190.064 154.431C187.049 155.955 183.546 156.512 179.555 156.102C175.593 155.709 171.338 154.22 166.838 151.621C160.072 147.715 155.754 143.127 153.945 137.89C152.136 132.654 152.784 127.345 155.873 121.995C157.339 119.456 159.174 117.533 161.331 116.239C162.147 115.662 163.162 115.16 164.363 114.684L148.868 105.739L144.933 109.835L143.755 109.154L149.723 98.8164C152.481 94.0404 156.246 93.03 161.018 95.7852L207.109 122.396L211.045 118.3L212.223 118.98L208.086 126.144C206.254 129.318 203.856 131.239 200.881 131.859C199.659 132.161 198.301 132.142 196.848 131.868C197.776 133.331 198.448 134.887 198.894 136.556C199.901 140.321 199.369 143.964 197.31 147.531C195.512 150.644 193.091 152.954 190.064 154.431ZM196.251 135.554C195.797 134.526 195.089 133.311 194.126 131.909L166.731 116.092C165.826 116.335 164.933 116.626 164.083 116.982C162.206 117.792 160.86 118.869 160.092 120.199C158.783 122.466 159.082 125.017 161.024 127.791C162.967 130.564 167.493 134.024 174.652 138.157C181.478 142.098 186.582 144.279 189.903 144.665C193.254 145.068 195.403 144.415 196.381 142.722C197.515 140.757 197.458 138.346 196.251 135.554Z" fill="white"/>
<path d="M213.947 113.204L215.526 107.748L164.663 78.3821L160.697 82.4606L159.519 81.7805L165.488 71.4425C168.245 66.6664 172.01 65.656 176.782 68.4113L222.874 95.0222L226.809 90.9262L227.987 91.6063L215.125 113.884L213.947 113.204Z" fill="white"/>
<path d="M247.669 92.5311C245.633 93.1288 243.497 92.7824 241.262 91.4919C239.238 90.3236 238.012 88.8901 237.523 87.1567C237.033 85.4232 237.328 83.6584 238.357 81.8749C238.602 81.4517 238.876 81.046 239.211 80.6751C239.546 80.3042 239.751 80.0194 239.838 79.8682L240.582 78.9277L251.335 85.1357C251.953 83.4371 251.893 81.5886 251.136 79.6203C250.397 77.6218 248.671 74.8921 245.988 71.4485L242.926 67.5445L192.841 66.196L189.359 69.506L188.181 68.8259L193.923 58.8809C195.511 56.1301 197.342 54.285 199.432 53.3153C201.504 52.3759 203.986 51.9143 206.884 52.0561L230.99 52.7135L214.271 31.937L208.447 36.5143L207.269 35.8342L215.768 21.1131L216.946 21.7932L215.668 29.5188L247.414 69.0477C250.786 73.2516 252.88 76.8789 253.714 79.8993C254.547 82.9197 254.257 85.6542 252.844 88.1026C251.452 90.443 249.736 91.9509 247.669 92.5311Z" fill="white"/>
<path d="M92.4805 267.369C93.0913 266.311 94.1377 265.545 95.3164 265.177C96.5555 264.845 97.8093 265.045 98.8664 265.655L98.9268 265.69L98.9443 265.66C98.9497 264.534 99.3444 263.432 100.102 262.539L100.319 262.302C100.767 261.875 101.257 261.514 101.816 261.312C102.376 261.111 102.995 260.945 103.588 260.965C104.808 260.944 105.995 261.468 106.865 262.333C107.735 263.198 108.21 264.399 108.26 265.637L108.255 265.715L108.32 265.672C109.34 265.092 110.57 264.915 111.741 265.188C112.912 265.462 113.9 266.193 114.574 267.187L114.685 267.412C115.012 267.963 115.195 268.553 115.27 269.12C115.375 269.705 115.308 270.311 115.162 270.912C115.016 271.513 114.75 272.044 114.375 272.553C114.018 273.032 113.51 273.424 112.989 273.768L112.942 273.781L113.002 273.816C114.029 274.409 114.799 275.377 115.135 276.539C115.458 277.653 115.366 278.929 114.803 279.974L114.698 280.156C114.087 281.214 113.041 281.98 111.862 282.347C110.623 282.68 109.369 282.48 108.312 281.869L108.252 281.835L108.264 281.882C108.259 283.008 107.864 284.11 107.107 285.003L106.924 285.179C106.477 285.606 105.986 285.968 105.427 286.169C104.868 286.37 104.248 286.536 103.656 286.517C102.435 286.538 101.248 286.013 100.378 285.148C99.5083 284.283 99.0338 283.082 98.9835 281.844L98.9882 281.766L98.9231 281.809C97.9035 282.389 96.6738 282.566 95.5026 282.293C94.3313 282.02 93.344 281.289 92.6694 280.295L92.558 280.069C92.2318 279.518 92.0486 278.929 91.9734 278.361C91.8204 277.789 91.8882 277.183 92.0339 276.582C92.1796 275.981 92.446 275.45 92.8206 274.941C93.1777 274.462 93.6858 274.07 94.2067 273.726L94.2241 273.696L94.1939 273.678C93.167 273.085 92.3971 272.117 92.0609 270.955C91.7374 269.842 91.83 268.565 92.3932 267.52L92.4805 267.369ZM100.575 272.042C100.104 272.858 99.9999 273.806 100.212 274.694C100.442 275.552 101.065 276.355 101.85 276.809C102.636 277.262 103.613 277.383 104.501 277.17C105.359 276.94 106.145 276.346 106.616 275.53C107.087 274.714 107.191 273.766 106.979 272.878C106.75 272.02 106.126 271.217 105.341 270.763C104.555 270.31 103.578 270.189 102.69 270.402C101.802 270.614 101.046 271.226 100.575 272.042Z" fill="white"/>
</g>
<defs>
<clipPath id="clip0_365_70">
<rect width="358.539" height="107.734" fill="white" transform="translate(0 310.504) rotate(-60)"/>
</clipPath>
</defs>
</svg>
