<svg width="131" height="35" viewBox="0 0 131 35" fill="none" xmlns="http://www.w3.org/2000/svg">
<path d="M2.28303 29.8236C0.765261 28.8948 0 27.7621 0 26.4256C0 25.4401 0.331613 24.6472 1.00759 24.0469C1.68357 23.4466 2.57638 23.1521 3.68601 23.1521C3.95385 23.1521 4.20894 23.1748 4.47678 23.2201C4.74462 23.2654 4.92318 23.288 5.01246 23.288L5.65018 23.3786V29.9256C5.87976 30.0388 6.10934 30.1181 6.33891 30.1408C6.90011 30.288 7.48681 30.356 8.11177 30.356C12.0401 30.356 14.017 27.5129 14.017 21.8382V1.31392L11.058 0.656958V0H25.0751V0.656958L22.1288 1.31392V21.8382C22.1288 24.8625 21.0574 27.1845 18.9275 28.8042C16.7975 30.4239 13.5196 31.2282 9.09386 31.2282C6.08383 31.2282 3.81355 30.7637 2.28303 29.8236Z" fill="#7A7A7A"/>
<path d="M40.1634 27.8981C39.0921 27.1392 38.5564 26.1764 38.5564 25.0097C38.5564 24.2395 38.7477 23.4693 39.1303 22.7104C39.2834 22.3479 39.4875 22.0308 39.7298 21.7249C40.6481 21.521 41.643 21.3511 42.7143 21.1926C45.1249 20.8301 47.2676 20.6149 49.117 20.5356V19.6408C49.117 17.4321 48.8109 15.9143 48.2114 15.0874C47.612 14.2492 46.6809 13.8414 45.431 13.8414C44.9591 13.8414 44.5637 13.8867 44.2193 13.9887L43.7474 14.1359V18.61L43.3138 18.7007C42.9567 18.746 42.6505 18.7573 42.4082 18.7573C41.643 18.7573 41.0435 18.5534 40.5843 18.1456C40.1252 17.7379 39.8956 17.1942 39.8956 16.5259C39.8956 15.6084 40.4185 14.8382 41.4516 14.2039C42.4975 13.5696 44.0408 13.2524 46.0942 13.2524C47.8416 13.2524 49.3466 13.5243 50.6093 14.068C51.8719 14.6117 52.8285 15.3706 53.4917 16.3333C54.155 17.2961 54.4866 18.4062 54.4866 19.6521V27.6942L56.5018 28.1359V28.5777H53.479C52.1398 28.5777 51.0939 28.2152 50.3542 27.479C50.0353 27.1845 49.793 26.7994 49.6144 26.3463C49.2956 26.8447 48.9257 27.2864 48.5048 27.6829C47.4972 28.5777 46.2473 29.0194 44.7423 29.0194C42.7653 29.0308 41.2348 28.6456 40.1634 27.8981ZM48.3517 26.788C48.5941 26.4935 48.8492 26.0971 49.117 25.5987V21.2832C48.0839 21.2832 47.1018 21.3285 46.1707 21.4304C45.482 21.5097 45.0101 21.555 44.7678 21.5777C44.653 21.7929 44.5382 22.0987 44.4362 22.4725C44.2066 23.2314 44.1045 23.9677 44.1045 24.7039C44.1045 25.8139 44.2959 26.6408 44.6785 27.1731C45.0611 27.7055 45.533 27.9774 46.1197 27.9774C46.9233 27.9887 47.6758 27.5809 48.3517 26.788Z" fill="#7A7A7A"/>
<path d="M58.4788 28.1359L60.4939 27.6942V14.5777L58.4788 14.1359V13.6942H61.5015C62.8152 13.6942 63.8611 14.068 64.6264 14.8269C64.9197 15.1214 65.162 15.4952 65.3661 15.9256C65.685 15.4045 66.0421 14.9628 66.4757 14.589C67.4833 13.6942 68.7333 13.2524 70.2383 13.2524C71.4882 13.2524 72.6106 13.4903 73.6054 13.9547C74.6003 14.4191 75.3783 15.0308 75.9395 15.7897C76.5007 16.5486 76.7813 17.3414 76.7813 18.1683V27.7055L78.7964 28.1473V28.589H74.4345C72.4193 28.589 71.4117 27.6942 71.4117 25.9045V18.157C71.4117 16.911 71.1566 15.9482 70.6592 15.2799C70.1617 14.6117 69.5751 14.2832 68.8991 14.2832C68.0445 14.2832 67.292 14.6796 66.616 15.4725C66.3227 15.8123 66.0804 16.2088 65.8763 16.6618V27.6829L67.8915 28.1246V28.5664H58.5043V28.1359H58.4788Z" fill="#7A7A7A"/>
<path d="M84.1149 28.1132C83.0818 27.5129 82.2655 26.6181 81.6661 25.4288C81.0666 24.2508 80.7605 22.8123 80.7605 21.1246C80.7605 18.5873 81.4237 16.6278 82.7502 15.2686C84.0766 13.9093 85.875 13.2297 88.1325 13.2297C89.2039 13.2297 90.1477 13.4336 90.9512 13.8301C91.2828 13.966 91.6272 14.1699 91.9971 14.4304V8.6197L89.9819 8.17795V7.73621H94.3439C96.3591 7.73621 97.3667 8.63103 97.3667 10.4207V27.7055L99.3819 28.1472V28.589H96.3591C95.0199 28.589 93.974 28.2265 93.2343 27.4902C92.9154 27.1958 92.6731 26.8106 92.4945 26.3576C92.2012 26.8559 91.8313 27.2977 91.3849 27.6941C90.3773 28.589 89.1274 29.0307 87.6223 29.0307C86.3086 29.0307 85.1352 28.7249 84.1149 28.1132ZM91.2191 26.788C91.4614 26.4935 91.7165 26.097 91.9843 25.5987V15.3252C91.742 15.11 91.4869 14.9061 91.2191 14.7249C90.6196 14.3284 90.0329 14.1246 89.4717 14.1246C88.5151 14.1246 87.7626 14.6229 87.2397 15.6197C86.7168 16.6165 86.4489 18.4514 86.4489 21.1359C86.4489 23.6958 86.6913 25.4854 87.1759 26.4822C87.6606 27.4902 88.2601 27.9886 88.9743 27.9886C89.8033 27.9886 90.5558 27.5809 91.2191 26.788Z" fill="#7A7A7A"/>
<path d="M101.525 28.1359L103.54 27.6941V8.61968L101.525 8.1666V7.72485H105.887C107.902 7.72485 108.909 8.61968 108.909 10.4093V27.6941L110.925 28.1359V28.5776H101.525V28.1359Z" fill="#7A7A7A"/>
<path d="M114.228 34.2638C113.667 33.788 113.386 33.1311 113.386 32.2929C113.386 31.534 113.616 30.9563 114.075 30.5372C114.534 30.1181 115.146 29.9143 115.899 29.9143C116.077 29.9143 116.256 29.9256 116.434 29.9596C116.613 29.9935 116.741 30.0049 116.804 30.0049L117.238 30.0615V34.0939C117.888 33.9919 118.462 33.6748 118.947 33.1424C119.445 32.61 119.993 31.6812 120.592 30.3673L121.268 28.8722L112.544 14.5664L110.861 14.1246V13.6829H115.057C116.218 13.6829 117.136 13.8981 117.825 14.3285C118.501 14.7589 119.1 15.3819 119.585 16.2201L123.781 23.1068L127.301 15.0308L124.789 14.1359V13.6942H131V14.1359L128.322 15.0308L121.613 30.3787C120.899 32.0097 120.133 33.1877 119.33 33.9126C118.526 34.6376 117.608 35 116.575 35C115.58 34.9887 114.789 34.7508 114.228 34.2638Z" fill="#7A7A7A"/>
<path d="M30.5467 19.0065C30.9931 19.0065 31.4268 19.1764 31.7584 19.4482C32.09 19.7427 32.2558 20.1278 32.2558 20.5243V20.5469H32.2685C32.6257 20.3657 33.0466 20.2977 33.4675 20.3657L33.5822 20.3883C33.7991 20.445 34.0031 20.5243 34.1689 20.6489C34.3348 20.7735 34.5006 20.9207 34.6026 21.0906C34.8322 21.4304 34.8832 21.8495 34.7684 22.2346C34.6536 22.6197 34.3603 22.9482 33.9776 23.1634L33.9521 23.1748L33.9776 23.1861C34.3475 23.3786 34.6281 23.6958 34.7556 24.0696C34.8832 24.4434 34.8322 24.8398 34.6409 25.1909L34.5898 25.2589C34.4751 25.4401 34.322 25.5874 34.1562 25.7006C33.9904 25.8252 33.7863 25.9045 33.5695 25.9612C33.3527 26.0178 33.1358 26.0291 32.9063 26.0065C32.6894 25.9838 32.4726 25.9045 32.2685 25.8139L32.2558 25.8026V25.8252C32.2558 26.2104 32.09 26.5841 31.7839 26.8673C31.4905 27.1392 31.0696 27.3204 30.636 27.3317H30.5595C30.1131 27.3317 29.6794 27.1618 29.3478 26.89C29.0162 26.5955 28.8504 26.2104 28.8504 25.8139V25.7913L28.8376 25.8026C28.4805 25.9838 28.0596 26.0518 27.6387 25.9838L27.5494 25.9612C27.3326 25.9045 27.1285 25.8252 26.9627 25.7006C26.7969 25.576 26.6311 25.4288 26.5291 25.2589C26.2995 24.9191 26.2485 24.5 26.3633 24.1149C26.4781 23.7298 26.7714 23.4013 27.1541 23.1861L27.1796 23.1748L27.1541 23.1634C26.7842 22.9709 26.5036 22.6537 26.376 22.2799C26.2485 21.9061 26.2995 21.5097 26.4908 21.1586L26.5418 21.0906C26.6566 20.9094 26.8097 20.7621 26.9755 20.6489C27.1285 20.5129 27.3326 20.4337 27.5494 20.377C27.7663 20.3204 27.9831 20.3091 28.2127 20.3317C28.4295 20.3544 28.6463 20.4337 28.8504 20.5243H28.8631V20.5129C28.8631 20.1278 29.0289 19.754 29.335 19.4709C29.6284 19.199 30.0493 19.0178 30.4829 19.0065H30.5467ZM30.5467 22.0421C30.2023 22.0421 29.8835 22.1667 29.6412 22.3705C29.4116 22.5744 29.2713 22.8803 29.2713 23.1748C29.2713 23.4693 29.4116 23.7637 29.6412 23.979C29.8707 24.1828 30.2023 24.3074 30.5467 24.3074C30.8911 24.3074 31.2099 24.1828 31.4523 23.979C31.6818 23.7751 31.8221 23.4693 31.8221 23.1748C31.8221 22.8803 31.6818 22.5858 31.4523 22.3705C31.2227 22.1553 30.8911 22.0421 30.5467 22.0421Z" fill="#7A7A7A"/>
</svg>
