<svg width="70" height="70" viewBox="0 0 70 70" fill="none" xmlns="http://www.w3.org/2000/svg">
<path d="M62.9177 25.1935H8.08233C7.79528 25.1935 7.51999 25.078 7.31701 24.8723C7.11403 24.6666 7 24.3877 7 24.0968C7 23.8059 7.11403 23.5269 7.31701 23.3212C7.51999 23.1156 7.79528 23 8.08233 23H62.9177C63.2047 23 63.48 23.1156 63.683 23.3212C63.886 23.5269 64 23.8059 64 24.0968C64 24.3877 63.886 24.6666 63.683 24.8723C63.48 25.078 63.2047 25.1935 62.9177 25.1935ZM62.9177 46H8.08233C7.79528 46 7.51999 45.8844 7.31701 45.6788C7.11403 45.4731 7 45.1941 7 44.9032C7 44.6123 7.11403 44.3334 7.31701 44.1277C7.51999 43.922 7.79528 43.8065 8.08233 43.8065H62.9177C63.2047 43.8065 63.48 43.922 63.683 44.1277C63.886 44.3334 64 44.6123 64 44.9032C64 45.1941 63.886 45.4731 63.683 45.6788C63.48 45.8844 63.2047 46 62.9177 46Z" fill="black"/>
</svg>
