<svg width="721" height="191" viewBox="0 0 721 191" fill="none" xmlns="http://www.w3.org/2000/svg">
<mask id="path-1-outside-1_131_2" maskUnits="userSpaceOnUse" x="-1" y="-1" width="723" height="193" fill="black">
<rect fill="white" x="-1" y="-1" width="723" height="193"/>
<path d="M0.444 142L0.444 139.98L4.484 138.566C7.17733 137.758 8.928 136.546 9.736 134.93C10.6787 133.314 11.15 131.159 11.15 128.466L11.15 22.618C11.15 19.9247 10.6787 17.77 9.736 16.154C8.79333 14.538 6.97533 13.2587 4.282 12.316L0.444 10.7L0.444 8.67999L49.53 8.67999C69.5953 8.67999 84.072 12.3833 92.96 19.79C101.983 27.062 106.494 36.6907 106.494 48.676C106.494 56.352 104.609 63.422 100.838 69.886C97.202 76.2153 91.142 81.2653 82.658 85.036C74.174 88.8067 62.7273 90.692 48.318 90.692H41.45L41.45 127.86C41.45 133.112 44.076 136.546 49.328 138.162L55.388 139.98V142H0.444ZM41.45 86.652H49.126C55.7247 86.652 61.1113 85.5747 65.286 83.42C69.4607 81.2653 72.558 77.4947 74.578 72.108C76.598 66.7213 77.608 59.2473 77.608 49.686C77.608 39.99 76.4633 32.4487 74.174 27.062C72.0193 21.6753 68.7873 17.972 64.478 15.952C60.1687 13.7973 54.782 12.72 48.318 12.72L41.45 12.72L41.45 86.652ZM113.468 142V139.98L116.498 139.172C119.191 138.364 121.009 137.152 121.952 135.536C123.029 133.92 123.568 131.833 123.568 129.274V66.048C123.568 63.0853 123.029 60.9307 121.952 59.584C121.009 58.1027 119.191 57.0927 116.498 56.554L113.468 55.746V53.726L148.212 42.01L150.232 44.03L152.05 61.402V63.018C153.935 59.2473 156.359 55.8133 159.322 52.716C162.419 49.484 165.786 46.858 169.422 44.838C173.192 42.818 176.896 41.808 180.532 41.808C185.649 41.808 189.554 43.222 192.248 46.05C194.941 48.878 196.288 52.4467 196.288 56.756C196.288 61.3347 194.941 64.9033 192.248 67.462C189.689 69.886 186.592 71.098 182.956 71.098C177.3 71.098 172.317 68.27 168.008 62.614L167.604 62.21C166.257 60.3247 164.708 59.3147 162.958 59.18C161.207 58.9107 159.591 59.7187 158.11 61.604C156.763 62.816 155.618 64.2973 154.676 66.048C153.868 67.664 153.06 69.5493 152.252 71.704L152.252 128.062C152.252 133.449 154.608 136.815 159.322 138.162L165.786 139.98V142H113.468ZM250.582 145.03C240.347 145.03 231.459 142.943 223.918 138.768C216.376 134.459 210.518 128.399 206.344 120.588C202.304 112.777 200.284 103.62 200.284 93.116C200.284 82.612 202.438 73.522 206.748 65.846C211.192 58.17 217.184 52.2447 224.726 48.07C232.402 43.8953 241.02 41.808 250.582 41.808C260.143 41.808 268.694 43.8953 276.236 48.07C283.777 52.11 289.702 57.968 294.012 65.644C298.456 73.32 300.678 82.4773 300.678 93.116C300.678 103.755 298.59 112.979 294.416 120.79C290.376 128.466 284.585 134.459 277.044 138.768C269.637 142.943 260.816 145.03 250.582 145.03ZM250.582 140.99C255.295 140.99 259.066 139.643 261.894 136.95C264.722 134.257 266.742 129.476 267.954 122.608C269.3 115.74 269.974 106.044 269.974 93.52C269.974 80.8613 269.3 71.098 267.954 64.23C266.742 57.362 264.722 52.5813 261.894 49.888C259.066 47.1947 255.295 45.848 250.582 45.848C245.868 45.848 242.03 47.1947 239.068 49.888C236.24 52.5813 234.152 57.362 232.806 64.23C231.594 71.098 230.988 80.8613 230.988 93.52C230.988 106.044 231.594 115.74 232.806 122.608C234.152 129.476 236.24 134.257 239.068 136.95C242.03 139.643 245.868 140.99 250.582 140.99ZM335.406 31.304C330.827 31.304 326.989 29.89 323.892 27.062C320.794 24.0993 319.246 20.396 319.246 15.952C319.246 11.3733 320.794 7.66999 323.892 4.842C326.989 2.01399 330.827 0.59999 335.406 0.59999C339.984 0.59999 343.822 2.01399 346.92 4.842C350.152 7.66999 351.768 11.3733 351.768 15.952C351.768 20.396 350.152 24.0993 346.92 27.062C343.822 29.89 339.984 31.304 335.406 31.304ZM305.51 190.48C297.834 190.48 292.312 189.133 288.946 186.44C285.579 183.881 283.896 180.515 283.896 176.34C283.896 172.569 285.242 169.539 287.936 167.25C290.629 164.961 293.794 163.816 297.43 163.816C301.066 163.816 304.365 164.691 307.328 166.442C310.29 168.327 312.58 171.223 314.196 175.128L316.216 179.572C317.158 181.053 318.236 181.525 319.448 180.986C320.794 180.582 321.468 178.495 321.468 174.724V66.048C321.468 62.9507 320.727 60.7287 319.246 59.382C317.899 57.9007 315.879 56.8907 313.186 56.352L310.156 55.948V53.928L347.93 42.01L350.354 44.03L349.748 72.714V128.87C349.748 137.623 349.344 144.963 348.536 150.888C347.862 156.813 346.583 161.796 344.698 165.836C342.947 170.011 340.388 173.849 337.022 177.35C332.308 182.063 327.191 185.43 321.67 187.45C316.148 189.47 310.762 190.48 305.51 190.48ZM417.064 41.808C425.818 41.808 433.292 43.626 439.486 47.262C445.681 50.7633 450.394 55.6113 453.626 61.806C456.993 67.866 458.676 74.8013 458.676 82.612C458.676 84.0933 458.609 85.642 458.474 87.258C458.34 88.7393 458.07 90.086 457.666 91.298H397.47C397.605 105.842 400.164 116.346 405.146 122.81C410.264 129.139 417.805 132.304 427.77 132.304C434.504 132.304 439.958 131.227 444.132 129.072C448.307 126.917 452.212 123.753 455.848 119.578L457.868 121.396C453.694 128.803 448.105 134.593 441.102 138.768C434.234 142.943 425.952 145.03 416.256 145.03C406.695 145.03 398.211 143.01 390.804 138.97C383.398 134.795 377.607 128.87 373.432 121.194C369.258 113.518 367.17 104.361 367.17 93.722C367.17 82.6793 369.594 73.32 374.442 65.644C379.29 57.8333 385.485 51.908 393.026 47.868C400.702 43.828 408.715 41.808 417.064 41.808ZM416.458 45.848C412.553 45.848 409.186 47.06 406.358 49.484C403.665 51.7733 401.51 55.948 399.894 62.008C398.413 67.9333 397.605 76.35 397.47 87.258H432.012C433.359 72.5793 432.82 62.008 430.396 55.544C427.972 49.08 423.326 45.848 416.458 45.848ZM518.839 145.03C509.682 145.03 501.332 143.077 493.791 139.172C486.384 135.132 480.459 129.341 476.015 121.8C471.706 114.124 469.551 104.765 469.551 93.722C469.551 82.814 471.908 73.522 476.621 65.846C481.469 58.0353 487.866 52.11 495.811 48.07C503.891 43.8953 512.712 41.808 522.273 41.808C530.084 41.808 536.682 43.0873 542.069 45.646C547.456 48.2047 551.563 51.5713 554.391 55.746C557.219 59.786 558.633 64.028 558.633 68.472C558.633 72.2427 557.488 75.2053 555.199 77.36C552.91 79.38 549.947 80.39 546.311 80.39C542.406 80.39 539.241 78.976 536.817 76.148C534.393 73.32 532.979 69.6167 532.575 65.038C532.44 62.0753 532.508 59.584 532.777 57.564C533.046 55.4093 533.046 53.2547 532.777 51.1C532.238 48.8107 531.363 47.3293 530.151 46.656C529.074 45.848 527.525 45.444 525.505 45.444C517.29 45.444 510.894 49.0127 506.315 56.15C501.871 63.2873 499.649 74.6667 499.649 90.288C499.649 103.889 502.14 114.326 507.123 121.598C512.24 128.735 520.051 132.304 530.555 132.304C536.884 132.304 542.002 131.159 545.907 128.87C549.812 126.581 553.583 123.147 557.219 118.568L559.239 120.184C555.872 128.129 550.688 134.257 543.685 138.566C536.682 142.875 528.4 145.03 518.839 145.03ZM605.756 145.03C597.137 145.03 590.404 142.875 585.556 138.566C580.843 134.257 578.486 127.389 578.486 117.962V48.878H564.548V46.858L569.396 46.05C573.571 45.1073 577.139 43.7607 580.102 42.01C583.199 40.2593 586.229 37.9027 589.192 34.94L605.756 16.558H607.776L607.17 44.838H629.794V48.878H606.968V121.598C606.968 126.311 607.978 129.88 609.998 132.304C612.153 134.728 614.846 135.94 618.078 135.94C620.906 135.94 623.397 135.267 625.552 133.92C627.707 132.439 629.861 130.486 632.016 128.062L634.036 130.082C631.343 134.661 627.639 138.297 622.926 140.99C618.213 143.683 612.489 145.03 605.756 145.03ZM676.494 145.03C669.895 145.03 663.97 144.222 658.718 142.606C653.466 141.125 648.618 139.239 644.174 136.95L644.376 112.912H646.396L653.264 125.032C656.226 130.419 659.458 134.459 662.96 137.152C666.596 139.711 671.174 140.99 676.696 140.99C683.16 140.99 688.344 139.576 692.25 136.748C696.29 133.785 698.31 129.88 698.31 125.032C698.31 120.588 696.896 116.952 694.068 114.124C691.24 111.296 685.988 108.737 678.312 106.448L669.828 103.822C661.613 101.398 655.149 97.6273 650.436 92.51C645.722 87.3927 643.366 81.1307 643.366 73.724C643.366 64.836 646.867 57.2947 653.87 51.1C660.872 44.9053 670.905 41.808 683.968 41.808C689.22 41.808 694.135 42.414 698.714 43.626C703.427 44.7033 707.938 46.3867 712.248 48.676L711.036 70.492H709.016L701.946 57.968C699.387 53.524 696.828 50.4267 694.27 48.676C691.846 46.7907 688.142 45.848 683.16 45.848C678.581 45.848 674.272 47.1273 670.232 49.686C666.192 52.2447 664.172 55.8807 664.172 60.594C664.172 65.1727 665.855 68.8087 669.222 71.502C672.723 74.1953 677.84 76.6867 684.574 78.976L693.664 81.602C703.36 84.5647 710.295 88.672 714.47 93.924C718.644 99.0413 720.732 105.236 720.732 112.508C720.732 122.339 716.826 130.217 709.016 136.142C701.34 142.067 690.499 145.03 676.494 145.03Z"/>
</mask>
<path d="M0.444 142H-0.556V143H0.444V142ZM0.444 139.98L0.11365 139.036L-0.556 139.271V139.98H0.444ZM4.484 138.566L4.19665 137.608L4.17499 137.615L4.15365 137.622L4.484 138.566ZM9.736 134.93L8.87222 134.426L8.85598 134.454L8.84157 134.483L9.736 134.93ZM4.282 12.316L3.89394 13.2376L3.92245 13.2496L3.95165 13.2599L4.282 12.316ZM0.444 10.7H-0.556V11.364L0.0559425 11.6216L0.444 10.7ZM0.444 8.67999V7.67999H-0.556L-0.556 8.67999H0.444ZM92.96 19.79L92.3198 20.5582L92.3261 20.5635L92.3325 20.5686L92.96 19.79ZM100.838 69.886L99.9742 69.3821L99.9709 69.3879L100.838 69.886ZM41.45 90.692V89.692H40.45V90.692H41.45ZM49.328 138.162L49.0339 139.118L49.0407 139.12L49.328 138.162ZM55.388 139.98H56.388V139.236L55.6753 139.022L55.388 139.98ZM55.388 142V143H56.388V142H55.388ZM41.45 86.652H40.45V87.652H41.45V86.652ZM65.286 83.42L65.7446 84.3086H65.7447L65.286 83.42ZM74.578 72.108L75.5143 72.4591L74.578 72.108ZM74.174 27.062L73.2455 27.4334L73.2495 27.4433L73.2537 27.4531L74.174 27.062ZM64.478 15.952L64.0308 16.8464L64.0421 16.8521L64.0536 16.8575L64.478 15.952ZM41.45 12.72V11.72H40.45V12.72H41.45ZM1.444 142L1.444 139.98H-0.556L-0.556 142H1.444ZM0.774351 140.924L4.81435 139.51L4.15365 137.622L0.11365 139.036L0.774351 140.924ZM4.77135 139.524C7.5844 138.68 9.64491 137.348 10.6304 135.377L8.84157 134.483C8.21109 135.744 6.77027 136.836 4.19665 137.608L4.77135 139.524ZM10.5998 135.434C11.6625 133.612 12.15 131.263 12.15 128.466H10.15C10.15 131.056 9.69486 133.016 8.87222 134.426L10.5998 135.434ZM12.15 128.466L12.15 22.618H10.15L10.15 128.466H12.15ZM12.15 22.618C12.15 19.8209 11.6625 17.4719 10.5998 15.6501L8.87222 16.6579C9.69486 18.0681 10.15 20.0285 10.15 22.618H12.15ZM10.5998 15.6501C9.48825 13.7446 7.41702 12.3538 4.61235 11.3721L3.95165 13.2599C6.53364 14.1635 8.09842 15.3313 8.87222 16.6579L10.5998 15.6501ZM4.67006 11.3944L0.832058 9.77836L0.0559425 11.6216L3.89394 13.2376L4.67006 11.3944ZM1.444 10.7L1.444 8.67999H-0.556L-0.556 10.7H1.444ZM0.444 9.67999L49.53 9.67999V7.67999L0.444 7.67999L0.444 9.67999ZM49.53 9.67999C69.517 9.67999 83.7028 13.3774 92.3198 20.5582L93.6002 19.0218C84.4412 11.3893 69.6737 7.67999 49.53 7.67999V9.67999ZM92.3325 20.5686C101.11 27.6434 105.494 36.9812 105.494 48.676L107.494 48.676C107.494 36.4002 102.855 26.4806 93.5875 19.0114L92.3325 20.5686ZM105.494 48.676C105.494 56.1797 103.653 63.0751 99.9742 69.3821L101.702 70.3899C105.564 63.7689 107.494 56.5243 107.494 48.676L105.494 48.676ZM99.9709 69.3879C96.4662 75.4886 90.595 80.4141 82.2519 84.1222L83.0641 85.9498C91.689 82.1166 97.9378 76.9421 101.705 70.3841L99.9709 69.3879ZM82.2519 84.1222C73.9467 87.8134 62.6567 89.692 48.318 89.692V91.692C62.798 91.692 74.4013 89.7999 83.0641 85.9498L82.2519 84.1222ZM48.318 89.692H41.45V91.692H48.318V89.692ZM40.45 90.692L40.45 127.86H42.45L42.45 90.692H40.45ZM40.45 127.86C40.45 130.657 41.1521 133.056 42.6251 134.982C44.0951 136.904 46.2631 138.265 49.0339 139.118L49.6221 137.206C47.1409 136.443 45.3699 135.279 44.2139 133.767C43.0609 132.259 42.45 130.315 42.45 127.86H40.45ZM49.0407 139.12L55.1007 140.938L55.6753 139.022L49.6153 137.204L49.0407 139.12ZM54.388 139.98V142H56.388V139.98H54.388ZM55.388 141H0.444L0.444 143H55.388V141ZM41.45 87.652H49.126V85.652H41.45V87.652ZM49.126 87.652C55.8235 87.652 61.3826 86.56 65.7446 84.3086L64.8274 82.5314C60.8401 84.5893 55.6258 85.652 49.126 85.652V87.652ZM65.7447 84.3086C70.1865 82.016 73.4277 78.0234 75.5143 72.4591L73.6417 71.7569C71.6883 76.966 68.7348 80.5146 64.8274 82.5314L65.7447 84.3086ZM75.5143 72.4591C77.5952 66.9101 78.608 59.2986 78.608 49.686H76.608C76.608 59.196 75.6008 66.5325 73.6417 71.7569L75.5143 72.4591ZM78.608 49.686C78.608 39.9324 77.4597 32.2364 75.0943 26.6709L73.2537 27.4531C75.467 32.6609 76.608 40.0475 76.608 49.686H78.608ZM75.1025 26.6906C72.8754 21.1228 69.4895 17.1967 64.9024 15.0465L64.0536 16.8575C68.0852 18.7473 71.1633 22.2279 73.2455 27.4334L75.1025 26.6906ZM64.9252 15.0576C60.4379 12.8139 54.8867 11.72 48.318 11.72V13.72C54.6774 13.72 59.8994 14.7807 64.0308 16.8464L64.9252 15.0576ZM48.318 11.72L41.45 11.72V13.72L48.318 13.72V11.72ZM40.45 12.72L40.45 86.652H42.45L42.45 12.72H40.45ZM113.468 142H112.468V143H113.468V142ZM113.468 139.98L113.21 139.014L112.468 139.212V139.98H113.468ZM116.498 139.172L116.755 140.138L116.77 140.134L116.785 140.13L116.498 139.172ZM121.952 135.536L121.12 134.981L121.103 135.006L121.088 135.032L121.952 135.536ZM121.952 59.584L121.108 60.1209L121.137 60.1665L121.171 60.2087L121.952 59.584ZM116.498 56.554L116.24 57.5202L116.271 57.5284L116.302 57.5346L116.498 56.554ZM113.468 55.746H112.468V56.5143L113.21 56.7122L113.468 55.746ZM113.468 53.726L113.148 52.7784L112.468 53.0079V53.726H113.468ZM148.212 42.01L148.919 41.3029L148.48 40.8642L147.892 41.0624L148.212 42.01ZM150.232 44.03L151.226 43.9259L151.189 43.5735L150.939 43.3229L150.232 44.03ZM152.05 61.402H153.05V61.3498L153.044 61.2979L152.05 61.402ZM152.05 63.018H151.05L152.944 63.4652L152.05 63.018ZM159.322 52.716L158.6 52.0241L158.599 52.0248L159.322 52.716ZM169.422 44.838L168.95 43.9565L168.943 43.9601L168.936 43.9638L169.422 44.838ZM192.248 46.05L192.972 45.3603L192.248 46.05ZM192.248 67.462L192.935 68.188L192.936 68.187L192.248 67.462ZM168.008 62.614L168.803 62.008L168.762 61.9545L168.715 61.9069L168.008 62.614ZM167.604 62.21L166.79 62.7912L166.838 62.8586L166.897 62.9171L167.604 62.21ZM162.958 59.18L162.806 60.1684L162.843 60.1741L162.881 60.177L162.958 59.18ZM158.11 61.604L158.779 62.3473L158.843 62.2896L158.896 62.2218L158.11 61.604ZM154.676 66.048L153.795 65.5739L153.788 65.5872L153.781 65.6008L154.676 66.048ZM152.252 71.704L151.315 71.3529L151.252 71.5227V71.704H152.252ZM159.322 138.162L159.047 139.124L159.051 139.125L159.322 138.162ZM165.786 139.98H166.786V139.222L166.056 139.017L165.786 139.98ZM165.786 142V143H166.786V142H165.786ZM114.468 142V139.98H112.468V142H114.468ZM113.725 140.946L116.755 140.138L116.24 138.206L113.21 139.014L113.725 140.946ZM116.785 140.13C119.602 139.285 121.694 137.963 122.816 136.04L121.088 135.032C120.324 136.341 118.78 137.443 116.21 138.214L116.785 140.13ZM122.784 136.091C124 134.266 124.568 131.968 124.568 129.274H122.568C122.568 131.697 122.058 133.574 121.12 134.981L122.784 136.091ZM124.568 129.274L124.568 66.048H122.568V129.274H124.568ZM124.568 66.048C124.568 63.0058 124.022 60.5717 122.733 58.9593L121.171 60.2087C122.036 61.2897 122.568 63.1649 122.568 66.048H124.568ZM122.795 59.0471C121.642 57.234 119.507 56.136 116.694 55.5734L116.302 57.5346C118.875 58.0493 120.377 58.9713 121.108 60.1209L122.795 59.0471ZM116.755 55.5878L113.725 54.7798L113.21 56.7122L116.24 57.5202L116.755 55.5878ZM114.468 55.746V53.726H112.468V55.746H114.468ZM113.787 54.6736L148.531 42.9576L147.892 41.0624L113.148 52.7784L113.787 54.6736ZM147.505 42.7171L149.525 44.7371L150.939 43.3229L148.919 41.3029L147.505 42.7171ZM149.237 44.1341L151.055 61.5061L153.044 61.2979L151.226 43.9259L149.237 44.1341ZM151.05 61.402V63.018H153.05V61.402H151.05ZM152.944 63.4652C154.784 59.7855 157.15 56.4335 160.044 53.4072L158.599 52.0248C155.568 55.1932 153.086 58.7091 151.155 62.5708L152.944 63.4652ZM160.044 53.4079C163.077 50.2426 166.365 47.68 169.907 45.7122L168.936 43.9638C165.206 46.036 161.761 48.7254 158.6 52.0241L160.044 53.4079ZM169.894 45.7195C173.545 43.7635 177.087 42.808 180.532 42.808V40.808C176.704 40.808 172.84 41.8725 168.95 43.9565L169.894 45.7195ZM180.532 42.808C185.464 42.808 189.073 44.1662 191.524 46.7397L192.972 45.3603C190.036 42.2778 185.834 40.808 180.532 40.808V42.808ZM191.524 46.7397C194.021 49.3618 195.288 52.6745 195.288 56.756H197.288C197.288 52.2188 195.861 48.3942 192.972 45.3603L191.524 46.7397ZM195.288 56.756C195.288 61.1287 194.009 64.4094 191.559 66.737L192.936 68.187C195.873 65.3972 197.288 61.5406 197.288 56.756H195.288ZM191.56 66.736C189.193 68.978 186.345 70.098 182.956 70.098V72.098C186.839 72.098 190.185 70.794 192.935 68.188L191.56 66.736ZM182.956 70.098C177.691 70.098 172.977 67.4862 168.803 62.008L167.212 63.22C171.657 69.0538 176.909 72.098 182.956 72.098V70.098ZM168.715 61.9069L168.311 61.5029L166.897 62.9171L167.301 63.3211L168.715 61.9069ZM168.417 61.6288C166.957 59.5847 165.168 58.3471 163.034 58.1829L162.881 60.177C164.249 60.2823 165.557 61.0646 166.79 62.7912L168.417 61.6288ZM163.11 58.1916C160.879 57.8484 158.938 58.9312 157.323 60.9862L158.896 62.2218C160.244 60.5062 161.535 59.9729 162.806 60.1684L163.11 58.1916ZM157.441 60.8607C156.001 62.1567 154.787 63.7318 153.795 65.5739L155.556 66.5221C156.45 64.8628 157.525 63.4752 158.779 62.3473L157.441 60.8607ZM153.781 65.6008C152.954 67.2551 152.133 69.1738 151.315 71.3529L153.188 72.0551C153.987 69.9248 154.781 68.0728 155.57 66.4952L153.781 65.6008ZM151.252 71.704L151.252 128.062H153.252L153.252 71.704H151.252ZM151.252 128.062C151.252 130.897 151.872 133.304 153.2 135.2C154.534 137.106 156.514 138.4 159.047 139.124L159.596 137.2C157.416 136.578 155.861 135.514 154.838 134.054C153.809 132.584 153.252 130.613 153.252 128.062H151.252ZM159.051 139.125L165.515 140.943L166.056 139.017L159.592 137.199L159.051 139.125ZM164.786 139.98V142H166.786V139.98H164.786ZM165.786 141H113.468V143H165.786V141ZM223.918 138.768L223.421 139.636L223.433 139.643L223.918 138.768ZM206.344 120.588L205.455 121.047L205.462 121.059L206.344 120.588ZM206.748 65.846L205.882 65.3449L205.876 65.3565L206.748 65.846ZM224.726 48.07L224.248 47.1915L224.241 47.1951L224.726 48.07ZM276.236 48.07L275.751 48.945L275.763 48.9515L276.236 48.07ZM294.012 65.644L293.139 66.1336L293.146 66.145L294.012 65.644ZM294.416 120.79L293.534 120.319L293.531 120.324L294.416 120.79ZM277.044 138.768L277.535 139.639L277.54 139.636L277.044 138.768ZM261.894 136.95L262.583 137.674L261.894 136.95ZM267.954 122.608L266.972 122.416L266.97 122.425L266.969 122.434L267.954 122.608ZM267.954 64.23L266.969 64.4038L266.97 64.4131L266.972 64.4224L267.954 64.23ZM261.894 49.888L262.583 49.1639L261.894 49.888ZM239.068 49.888L238.395 49.1481L238.386 49.1559L238.378 49.1639L239.068 49.888ZM232.806 64.23L231.824 64.0376L231.822 64.0469L231.821 64.0562L232.806 64.23ZM232.806 122.608L231.821 122.782L231.822 122.791L231.824 122.8L232.806 122.608ZM239.068 136.95L238.378 137.674L238.386 137.682L238.395 137.69L239.068 136.95ZM250.582 144.03C240.485 144.03 231.769 141.972 224.402 137.893L223.433 139.643C231.148 143.914 240.209 146.03 250.582 146.03V144.03ZM224.414 137.9C217.039 133.686 211.313 127.765 207.225 120.117L205.462 121.059C209.723 129.033 215.713 135.232 223.421 139.636L224.414 137.9ZM207.232 120.129C203.278 112.485 201.284 103.491 201.284 93.116H199.284C199.284 103.749 201.329 113.07 205.455 121.047L207.232 120.129ZM201.284 93.116C201.284 82.7503 203.409 73.8356 207.62 66.3355L205.876 65.3565C201.467 73.2084 199.284 82.4737 199.284 93.116H201.284ZM207.613 66.347C211.969 58.8231 217.832 53.0291 225.21 48.9449L224.241 47.1951C216.537 51.4602 210.414 57.5169 205.882 65.345L207.613 66.347ZM225.203 48.9485C232.719 44.8609 241.171 42.808 250.582 42.808V40.808C240.869 40.808 232.084 42.9297 224.248 47.1915L225.203 48.9485ZM250.582 42.808C259.992 42.808 268.374 44.861 275.751 48.9449L276.72 47.1951C269.015 42.9297 260.293 40.808 250.582 40.808V42.808ZM275.763 48.9515C283.132 52.8988 288.921 58.6185 293.14 66.1335L294.884 65.1545C290.484 57.3175 284.422 51.3211 276.708 47.1885L275.763 48.9515ZM293.146 66.145C297.486 73.641 299.678 82.6181 299.678 93.116H301.678C301.678 82.3365 299.425 72.999 294.877 65.143L293.146 66.145ZM299.678 93.116C299.678 103.623 297.617 112.679 293.534 120.319L295.297 121.261C299.564 113.279 301.678 103.886 301.678 93.116H299.678ZM293.531 120.324C289.579 127.832 283.924 133.685 276.547 137.9L277.54 139.636C285.246 135.233 291.172 129.1 295.3 121.256L293.531 120.324ZM276.553 137.897C269.324 141.971 260.679 144.03 250.582 144.03V146.03C260.953 146.03 269.95 143.914 277.535 139.639L276.553 137.897ZM250.582 141.99C255.495 141.99 259.532 140.58 262.583 137.674L261.204 136.226C258.599 138.707 255.094 139.99 250.582 139.99V141.99ZM262.583 137.674C265.646 134.757 267.715 129.714 268.938 122.782L266.969 122.434C265.768 129.238 263.797 133.757 261.204 136.226L262.583 137.674ZM268.935 122.8C270.3 115.838 270.974 106.067 270.974 93.52H268.974C268.974 106.021 268.3 115.642 266.972 122.416L268.935 122.8ZM270.974 93.52C270.974 80.8396 270.3 71.0004 268.935 64.0376L266.972 64.4224C268.3 71.1956 268.974 80.8831 268.974 93.52H270.974ZM268.938 64.0562C267.715 57.1235 265.646 52.0812 262.583 49.1639L261.204 50.6121C263.797 53.0814 265.768 57.6005 266.969 64.4038L268.938 64.0562ZM262.583 49.1639C259.532 46.2581 255.495 44.848 250.582 44.848V46.848C255.094 46.848 258.599 48.1313 261.204 50.6121L262.583 49.1639ZM250.582 44.848C245.666 44.848 241.574 46.2584 238.395 49.1481L239.74 50.6279C242.487 48.131 246.07 46.848 250.582 46.848V44.848ZM238.378 49.1639C235.322 52.0744 233.183 57.1073 231.824 64.0376L233.787 64.4224C235.121 57.6166 237.157 53.0882 239.757 50.6121L238.378 49.1639ZM231.821 64.0562C230.594 71.0102 229.988 80.8419 229.988 93.52H231.988C231.988 80.8808 232.594 71.1858 233.79 64.4038L231.821 64.0562ZM229.988 93.52C229.988 106.064 230.594 115.828 231.821 122.782L233.79 122.434C232.593 115.652 231.988 106.024 231.988 93.52H229.988ZM231.824 122.8C233.183 129.731 235.322 134.764 238.378 137.674L239.757 136.226C237.157 133.75 235.121 129.221 233.787 122.416L231.824 122.8ZM238.395 137.69C241.574 140.58 245.666 141.99 250.582 141.99V139.99C246.07 139.99 242.487 138.707 239.74 136.21L238.395 137.69ZM323.892 27.062L323.201 27.7846L323.209 27.7927L323.217 27.8005L323.892 27.062ZM323.892 4.842L324.566 5.58048V5.58048L323.892 4.842ZM346.92 4.842L346.245 5.58048L346.253 5.58761L346.261 5.59457L346.92 4.842ZM346.92 27.062L347.594 27.8005L347.595 27.7992L346.92 27.062ZM288.946 186.44L289.57 185.659L289.561 185.651L289.551 185.644L288.946 186.44ZM287.936 167.25L287.288 166.488L287.936 167.25ZM307.328 166.442L307.865 165.598L307.851 165.589L307.836 165.581L307.328 166.442ZM314.196 175.128L313.272 175.51L313.278 175.526L313.285 175.542L314.196 175.128ZM316.216 179.572L315.305 179.986L315.334 180.05L315.372 180.109L316.216 179.572ZM319.448 180.986L319.16 180.028L319.1 180.046L319.042 180.072L319.448 180.986ZM319.246 59.382L318.506 60.0547L318.538 60.0899L318.573 60.1219L319.246 59.382ZM313.186 56.352L313.382 55.3714L313.35 55.3651L313.318 55.3608L313.186 56.352ZM310.156 55.948H309.156V56.8235L310.024 56.9392L310.156 55.948ZM310.156 53.928L309.855 52.9743L309.156 53.1949V53.928H310.156ZM347.93 42.01L348.57 41.2418L348.15 40.8919L347.629 41.0563L347.93 42.01ZM350.354 44.03L351.354 44.0511L351.364 43.5699L350.994 43.2618L350.354 44.03ZM349.748 72.714L348.748 72.6929L348.748 72.7034V72.714H349.748ZM348.536 150.888L347.545 150.753L347.543 150.764L347.542 150.775L348.536 150.888ZM344.698 165.836L343.792 165.413L343.783 165.431L343.776 165.449L344.698 165.836ZM337.022 177.35L337.729 178.057L337.736 178.05L337.743 178.043L337.022 177.35ZM321.67 187.45L322.013 188.389L321.67 187.45ZM335.406 30.304C331.052 30.304 327.462 28.9672 324.566 26.3235L323.217 27.8005C326.517 30.8127 330.602 32.304 335.406 32.304V30.304ZM324.583 26.3394C321.691 23.573 320.246 20.1344 320.246 15.952H318.246C318.246 20.6576 319.898 24.6256 323.201 27.7846L324.583 26.3394ZM320.246 15.952C320.246 11.6255 321.697 8.20044 324.566 5.58048L323.217 4.10351C319.892 7.13955 318.246 11.1211 318.246 15.952H320.246ZM324.566 5.58048C327.462 2.93675 331.052 1.59999 335.406 1.59999V-0.40001C330.602 -0.40001 326.517 1.09124 323.217 4.10351L324.566 5.58048ZM335.406 1.59999C339.76 1.59999 343.35 2.93675 346.245 5.58048L347.594 4.10351C344.295 1.09124 340.209 -0.40001 335.406 -0.40001V1.59999ZM346.261 5.59457C349.26 8.2189 350.768 11.6401 350.768 15.952H352.768C352.768 11.1066 351.043 7.12108 347.578 4.08942L346.261 5.59457ZM350.768 15.952C350.768 20.12 349.266 23.5545 346.244 26.3248L347.595 27.7992C351.037 24.6442 352.768 20.672 352.768 15.952H350.768ZM346.246 26.3235C343.35 28.9672 339.76 30.304 335.406 30.304V32.304C340.209 32.304 344.295 30.8127 347.594 27.8005L346.246 26.3235ZM305.51 189.48C297.903 189.48 292.667 188.136 289.57 185.659L288.321 187.221C291.958 190.13 297.765 191.48 305.51 191.48V189.48ZM289.551 185.644C286.429 183.271 284.896 180.197 284.896 176.34H282.896C282.896 180.832 284.729 184.491 288.341 187.236L289.551 185.644ZM284.896 176.34C284.896 172.84 286.13 170.097 288.583 168.012L287.288 166.488C284.355 168.981 282.896 172.298 282.896 176.34H284.896ZM288.583 168.012C291.09 165.881 294.024 164.816 297.43 164.816V162.816C293.564 162.816 290.168 164.04 287.288 166.488L288.583 168.012ZM297.43 164.816C300.897 164.816 304.019 165.649 306.819 167.303L307.836 165.581C304.711 163.734 301.234 162.816 297.43 162.816V164.816ZM306.791 167.286C309.547 169.04 311.718 171.756 313.272 175.51L315.12 174.746C313.441 170.69 311.034 167.615 307.865 165.598L306.791 167.286ZM313.285 175.542L315.305 179.986L317.126 179.158L315.106 174.714L313.285 175.542ZM315.372 180.109C315.901 180.939 316.54 181.607 317.33 181.953C318.16 182.316 319.028 182.267 319.854 181.9L319.042 180.072C318.656 180.244 318.379 180.228 318.132 180.12C317.844 179.995 317.474 179.686 317.059 179.035L315.372 180.109ZM319.735 181.944C320.87 181.603 321.535 180.6 321.914 179.424C322.298 178.235 322.468 176.65 322.468 174.724H320.468C320.468 176.569 320.301 177.912 320.011 178.811C319.717 179.723 319.372 179.965 319.16 180.028L319.735 181.944ZM322.468 174.724V66.048H320.468V174.724H322.468ZM322.468 66.048C322.468 62.8216 321.699 60.2611 319.918 58.6421L318.573 60.1219C319.755 61.1962 320.468 63.0797 320.468 66.048H322.468ZM319.986 58.7093C318.45 57.0206 316.208 55.9367 313.382 55.3714L312.99 57.3326C315.55 57.8446 317.348 58.7807 318.506 60.0547L319.986 58.7093ZM313.318 55.3608L310.288 54.9568L310.024 56.9392L313.054 57.3432L313.318 55.3608ZM311.156 55.948V53.928H309.156V55.948H311.156ZM310.457 54.8817L348.231 42.9637L347.629 41.0563L309.855 52.9743L310.457 54.8817ZM347.29 42.7782L349.714 44.7982L350.994 43.2618L348.57 41.2418L347.29 42.7782ZM349.354 44.0089L348.748 72.6929L350.748 72.7351L351.354 44.0511L349.354 44.0089ZM348.748 72.714V128.87H350.748V72.714H348.748ZM348.748 128.87C348.748 137.597 348.345 144.888 347.545 150.753L349.527 151.023C350.343 145.038 350.748 137.65 350.748 128.87H348.748ZM347.542 150.775C346.877 156.627 345.619 161.498 343.792 165.413L345.604 166.259C347.547 162.094 348.848 157 349.529 151.001L347.542 150.775ZM343.776 165.449C342.076 169.502 339.588 173.238 336.301 176.657L337.743 178.043C341.188 174.459 343.818 170.519 345.62 166.223L343.776 165.449ZM336.315 176.643C331.69 181.267 326.694 184.547 321.326 186.511L322.013 188.389C327.688 186.313 332.926 182.86 337.729 178.057L336.315 176.643ZM321.326 186.511C315.902 188.495 310.631 189.48 305.51 189.48V191.48C310.892 191.48 316.395 190.445 322.013 188.389L321.326 186.511ZM439.486 47.262L438.98 48.1244L438.987 48.1285L438.994 48.1326L439.486 47.262ZM453.626 61.806L452.74 62.2686L452.746 62.2802L452.752 62.2916L453.626 61.806ZM458.474 87.258L459.47 87.3485L459.471 87.341L458.474 87.258ZM457.666 91.298V92.298H458.387L458.615 91.6142L457.666 91.298ZM397.47 91.298V90.298H396.461L396.47 91.3073L397.47 91.298ZM405.146 122.81L404.354 123.421L404.361 123.43L404.369 123.439L405.146 122.81ZM444.132 129.072L444.591 129.961L444.132 129.072ZM455.848 119.578L456.517 118.835L455.762 118.155L455.094 118.921L455.848 119.578ZM457.868 121.396L458.739 121.887L459.133 121.189L458.537 120.653L457.868 121.396ZM441.102 138.768L440.59 137.909L440.583 137.913L441.102 138.768ZM390.804 138.97L390.313 139.841L390.325 139.848L390.804 138.97ZM373.432 121.194L374.311 120.716L373.432 121.194ZM374.442 65.644L375.288 66.178L375.292 66.1714L374.442 65.644ZM393.026 47.868L392.561 46.9831L392.554 46.9865L393.026 47.868ZM406.358 49.484L407.006 50.2459L407.009 50.2433L406.358 49.484ZM399.894 62.008L398.928 61.7503L398.926 61.7579L398.924 61.7655L399.894 62.008ZM397.47 87.258L396.47 87.2457L396.458 88.258H397.47V87.258ZM432.012 87.258V88.258H432.925L433.008 87.3493L432.012 87.258ZM430.396 55.544L431.333 55.1929L430.396 55.544ZM417.064 42.808C425.678 42.808 432.969 44.5963 438.98 48.1244L439.992 46.3996C433.614 42.6557 425.957 40.808 417.064 40.808V42.808ZM438.994 48.1326C445.024 51.5407 449.599 56.2485 452.74 62.2686L454.513 61.3434C451.19 54.9742 446.338 49.986 439.978 46.3914L438.994 48.1326ZM452.752 62.2916C456.026 68.1851 457.676 74.9494 457.676 82.612H459.676C459.676 74.6533 457.96 67.5469 454.5 61.3204L452.752 62.2916ZM457.676 82.612C457.676 84.0632 457.61 85.584 457.478 87.1749L459.471 87.341C459.608 85.7 459.676 84.1235 459.676 82.612H457.676ZM457.478 87.1675C457.35 88.5842 457.094 89.8537 456.718 90.9818L458.615 91.6142C459.047 90.3183 459.33 88.8944 459.47 87.3485L457.478 87.1675ZM457.666 90.298H397.47V92.298H457.666V90.298ZM396.47 91.3073C396.606 105.918 399.169 116.694 404.354 123.421L405.938 122.199C401.158 115.998 398.604 105.766 398.47 91.2887L396.47 91.3073ZM404.369 123.439C409.718 130.055 417.578 133.304 427.77 133.304V131.304C418.032 131.304 410.809 128.223 405.924 122.181L404.369 123.439ZM427.77 133.304C434.599 133.304 440.226 132.213 444.591 129.961L443.674 128.183C439.689 130.24 434.409 131.304 427.77 131.304V133.304ZM444.591 129.961C448.896 127.739 452.898 124.488 456.602 120.235L455.094 118.921C451.527 123.017 447.718 126.096 443.674 128.183L444.591 129.961ZM455.179 120.321L457.199 122.139L458.537 120.653L456.517 118.835L455.179 120.321ZM456.997 120.905C452.904 128.167 447.437 133.828 440.59 137.909L441.614 139.627C448.773 135.359 454.483 129.439 458.739 121.887L456.997 120.905ZM440.583 137.913C433.901 141.975 425.807 144.03 416.256 144.03V146.03C426.098 146.03 434.568 143.91 441.622 139.623L440.583 137.913ZM416.256 144.03C406.84 144.03 398.524 142.042 391.283 138.092L390.325 139.848C397.898 143.978 406.55 146.03 416.256 146.03V144.03ZM391.295 138.099C384.057 134.019 378.398 128.232 374.311 120.716L372.554 121.672C376.816 129.508 382.738 135.572 390.313 139.841L391.295 138.099ZM374.311 120.716C370.231 113.216 368.17 104.23 368.17 93.722H366.17C366.17 104.492 368.284 113.82 372.554 121.672L374.311 120.716ZM368.17 93.722C368.17 82.8273 370.561 73.6627 375.288 66.178L373.597 65.11C368.628 72.9773 366.17 82.5314 366.17 93.722H368.17ZM375.292 66.1714C380.054 58.4983 386.123 52.7004 393.498 48.7495L392.554 46.9865C384.847 51.1156 378.526 57.1683 373.593 65.1166L375.292 66.1714ZM393.492 48.7529C401.03 44.7855 408.884 42.808 417.064 42.808V40.808C408.546 40.808 400.374 42.8705 392.561 46.9831L393.492 48.7529ZM416.458 44.848C412.327 44.848 408.726 46.1374 405.707 48.7247L407.009 50.2433C409.646 47.9826 412.779 46.848 416.458 46.848V44.848ZM405.711 48.7221C402.783 51.2108 400.561 55.6273 398.928 61.7503L400.861 62.2657C402.46 56.2687 404.547 52.3358 407.006 50.2459L405.711 48.7221ZM398.924 61.7655C397.415 67.803 396.605 76.3105 396.47 87.2457L398.47 87.2703C398.605 76.3895 399.411 68.0637 400.864 62.2505L398.924 61.7655ZM397.47 88.258H432.012V86.258H397.47V88.258ZM433.008 87.3493C434.356 72.6535 433.842 61.8847 431.333 55.1929L429.46 55.8951C431.798 62.1313 432.362 72.5052 431.016 87.1666L433.008 87.3493ZM431.333 55.1929C430.065 51.8132 428.188 49.2064 425.665 47.4511C423.141 45.6955 420.052 44.848 416.458 44.848V46.848C419.732 46.848 422.4 47.6165 424.523 49.0929C426.645 50.5696 428.303 52.8108 429.46 55.8951L431.333 55.1929ZM493.791 139.172L493.312 140.05L493.322 140.055L493.331 140.06L493.791 139.172ZM476.015 121.8L475.143 122.29L475.148 122.299L475.154 122.308L476.015 121.8ZM476.621 65.846L475.771 65.3186L475.769 65.3227L476.621 65.846ZM495.811 48.07L496.264 48.9614L496.27 48.9584L495.811 48.07ZM554.391 55.746L553.563 56.3068L553.568 56.3132L553.572 56.3195L554.391 55.746ZM555.199 77.36L555.861 78.1098L555.873 78.0992L555.885 78.0882L555.199 77.36ZM532.575 65.038L531.576 65.0834L531.577 65.1047L531.579 65.1259L532.575 65.038ZM532.777 57.564L533.768 57.6962L533.769 57.688L532.777 57.564ZM532.777 51.1L533.769 50.976L533.763 50.923L533.751 50.871L532.777 51.1ZM530.151 46.656L529.551 47.456L529.606 47.497L529.665 47.5302L530.151 46.656ZM506.315 56.15L505.473 55.61L505.466 55.6214L506.315 56.15ZM507.123 121.598L506.298 122.163L506.304 122.172L506.31 122.181L507.123 121.598ZM545.907 128.87L545.401 128.007L545.907 128.87ZM557.219 118.568L557.844 117.787L557.06 117.16L556.436 117.946L557.219 118.568ZM559.239 120.184L560.16 120.574L560.456 119.876L559.864 119.403L559.239 120.184ZM543.685 138.566L544.209 139.418L543.685 138.566ZM518.839 144.03C509.829 144.03 501.639 142.11 494.251 138.284L493.331 140.06C501.026 144.045 509.535 146.03 518.839 146.03V144.03ZM494.27 138.294C487.028 134.344 481.233 128.684 476.877 121.292L475.154 122.308C479.686 129.999 485.741 135.92 493.312 140.05L494.27 138.294ZM476.887 121.31C472.68 113.817 470.551 104.636 470.551 93.722H468.551C468.551 104.893 470.731 114.431 475.143 122.29L476.887 121.31ZM470.551 93.722C470.551 82.9596 472.875 73.8575 477.473 66.3693L475.769 65.3227C470.94 73.1865 468.551 82.6684 468.551 93.722H470.551ZM477.471 66.3734C482.226 58.7129 488.487 52.9159 496.264 48.9614L495.358 47.1786C487.244 51.3041 480.713 57.3578 475.771 65.3186L477.471 66.3734ZM496.27 48.9584C504.201 44.8609 512.863 42.808 522.273 42.808V40.808C512.561 40.808 503.581 42.9298 495.352 47.1816L496.27 48.9584ZM522.273 42.808C529.979 42.808 536.422 44.0708 541.64 46.5493L542.498 44.7427C536.943 42.1038 530.188 40.808 522.273 40.808V42.808ZM541.64 46.5493C546.895 49.0455 550.852 52.3048 553.563 56.3068L555.219 55.1852C552.274 50.8378 548.016 47.3638 542.498 44.7427L541.64 46.5493ZM553.572 56.3195C556.296 60.2106 557.633 64.2555 557.633 68.472H559.633C559.633 63.8005 558.143 59.3614 555.21 55.1725L553.572 56.3195ZM557.633 68.472C557.633 72.0264 556.563 74.7033 554.514 76.6318L555.885 78.0882C558.414 75.7074 559.633 72.459 559.633 68.472H557.633ZM554.537 76.6102C552.465 78.4392 549.752 79.39 546.311 79.39V81.39C550.142 81.39 553.355 80.3207 555.861 78.1098L554.537 76.6102ZM546.311 79.39C542.682 79.39 539.8 78.0916 537.576 75.4972L536.058 76.7988C538.682 79.8604 542.13 81.39 546.311 81.39V79.39ZM537.576 75.4972C535.317 72.8614 533.961 69.3703 533.571 64.9501L531.579 65.1259C531.997 69.863 533.469 73.7786 536.058 76.7988L537.576 75.4972ZM533.574 64.9926C533.441 62.0651 533.51 59.6374 533.768 57.6962L531.786 57.4318C531.506 59.5306 531.44 62.0856 531.576 65.0834L533.574 64.9926ZM533.769 57.688C534.049 55.451 534.049 53.213 533.769 50.976L531.785 51.224C532.044 53.2963 532.044 55.3677 531.785 57.44L533.769 57.688ZM533.751 50.871C533.19 48.4892 532.221 46.6619 530.637 45.7818L529.665 47.5302C530.505 47.9967 531.287 49.1321 531.804 51.329L533.751 50.871ZM530.751 45.856C529.433 44.8677 527.639 44.444 525.505 44.444V46.444C527.412 46.444 528.714 46.8283 529.551 47.456L530.751 45.856ZM525.505 44.444C516.937 44.444 510.229 48.1972 505.473 55.61L507.157 56.69C511.559 49.8281 517.644 46.444 525.505 46.444V44.444ZM505.466 55.6214C500.87 63.003 498.649 74.6162 498.649 90.288H500.649C500.649 74.7172 502.872 63.5717 507.164 56.6786L505.466 55.6214ZM498.649 90.288C498.649 103.989 501.155 114.657 506.298 122.163L507.948 121.033C503.126 113.995 500.649 103.789 500.649 90.288H498.649ZM506.31 122.181C511.654 129.633 519.8 133.304 530.555 133.304V131.304C520.302 131.304 512.827 127.837 507.936 121.015L506.31 122.181ZM530.555 133.304C536.995 133.304 542.305 132.141 546.413 129.733L545.401 128.007C541.699 130.178 536.774 131.304 530.555 131.304V133.304ZM546.413 129.733C550.451 127.366 554.311 123.838 558.002 119.19L556.436 117.946C552.855 122.455 549.174 125.796 545.401 128.007L546.413 129.733ZM556.594 119.349L558.614 120.965L559.864 119.403L557.844 117.787L556.594 119.349ZM558.318 119.794C555.029 127.558 549.978 133.519 543.161 137.714L544.209 139.418C551.398 134.994 556.716 128.701 560.16 120.574L558.318 119.794ZM543.161 137.714C536.34 141.912 528.246 144.03 518.839 144.03V146.03C528.555 146.03 537.025 143.839 544.209 139.418L543.161 137.714ZM585.556 138.566L584.881 139.304L584.892 139.313L585.556 138.566ZM578.486 48.878H579.486V47.878H578.486V48.878ZM564.548 48.878H563.548V49.878H564.548V48.878ZM564.548 46.858L564.384 45.8716L563.548 46.0109V46.858H564.548ZM569.396 46.05L569.56 47.0364L569.588 47.0317L569.616 47.0254L569.396 46.05ZM580.102 42.01L579.61 41.1394L579.602 41.1442L579.593 41.1491L580.102 42.01ZM589.192 34.94L589.899 35.6471L589.917 35.6287L589.935 35.6094L589.192 34.94ZM605.756 16.558V15.558H605.311L605.013 15.8886L605.756 16.558ZM607.776 16.558L608.776 16.5794L608.798 15.558H607.776V16.558ZM607.17 44.838L606.17 44.8166L606.148 45.838H607.17V44.838ZM629.794 44.838H630.794V43.838H629.794V44.838ZM629.794 48.878V49.878H630.794V48.878H629.794ZM606.968 48.878V47.878H605.968V48.878H606.968ZM609.998 132.304L609.23 132.944L609.24 132.956L609.251 132.968L609.998 132.304ZM625.552 133.92L626.082 134.768L626.1 134.756L626.118 134.744L625.552 133.92ZM632.016 128.062L632.723 127.355L631.973 126.605L631.269 127.398L632.016 128.062ZM634.036 130.082L634.898 130.589L635.29 129.922L634.743 129.375L634.036 130.082ZM622.926 140.99L622.43 140.122L622.926 140.99ZM605.756 144.03C597.3 144.03 590.832 141.918 586.22 137.819L584.892 139.313C589.976 143.833 596.974 146.03 605.756 146.03V144.03ZM586.231 137.828C581.807 133.783 579.486 127.243 579.486 117.962H577.486C577.486 127.535 579.879 134.73 584.881 139.304L586.231 137.828ZM579.486 117.962V48.878H577.486V117.962H579.486ZM578.486 47.878H564.548V49.878H578.486V47.878ZM565.548 48.878V46.858H563.548V48.878H565.548ZM564.712 47.8444L569.56 47.0364L569.232 45.0636L564.384 45.8716L564.712 47.8444ZM569.616 47.0254C573.869 46.0652 577.54 44.6856 580.611 42.8709L579.593 41.1491C576.739 42.8357 573.272 44.1495 569.176 45.0746L569.616 47.0254ZM580.594 42.8806C583.783 41.0783 586.883 38.6627 589.899 35.6471L588.485 34.2329C585.575 37.1426 582.616 39.4403 579.61 41.1394L580.594 42.8806ZM589.935 35.6094L606.499 17.2274L605.013 15.8886L588.449 34.2706L589.935 35.6094ZM605.756 17.558H607.776V15.558H605.756V17.558ZM606.776 16.5366L606.17 44.8166L608.17 44.8594L608.776 16.5794L606.776 16.5366ZM607.17 45.838H629.794V43.838H607.17V45.838ZM628.794 44.838V48.878H630.794V44.838H628.794ZM629.794 47.878H606.968V49.878H629.794V47.878ZM605.968 48.878V121.598H607.968V48.878H605.968ZM605.968 121.598C605.968 126.434 607.001 130.27 609.23 132.944L610.766 131.664C608.954 129.49 607.968 126.189 607.968 121.598H605.968ZM609.251 132.968C611.594 135.605 614.559 136.94 618.078 136.94V134.94C615.133 134.94 612.711 133.851 610.745 131.64L609.251 132.968ZM618.078 136.94C621.072 136.94 623.751 136.225 626.082 134.768L625.022 133.072C623.044 134.308 620.74 134.94 618.078 134.94V136.94ZM626.118 134.744C628.353 133.208 630.567 131.197 632.763 128.726L631.269 127.398C629.155 129.775 627.06 131.67 624.985 133.096L626.118 134.744ZM631.309 128.769L633.329 130.789L634.743 129.375L632.723 127.355L631.309 128.769ZM633.174 129.575C630.571 134 626.995 137.513 622.43 140.122L623.422 141.858C628.283 139.08 632.114 135.321 634.898 130.589L633.174 129.575ZM622.43 140.122C617.9 142.71 612.357 144.03 605.756 144.03V146.03C612.622 146.03 618.525 144.656 623.422 141.858L622.43 140.122ZM658.718 142.606L659.012 141.65L659.001 141.647L658.989 141.644L658.718 142.606ZM644.174 136.95L643.174 136.942L643.169 137.557L643.716 137.839L644.174 136.95ZM644.376 112.912V111.912H643.384L643.376 112.904L644.376 112.912ZM646.396 112.912L647.266 112.419L646.979 111.912H646.396V112.912ZM653.264 125.032L654.14 124.55L654.134 124.539L653.264 125.032ZM662.96 137.152L662.35 137.945L662.367 137.958L662.384 137.97L662.96 137.152ZM692.25 136.748L692.836 137.558L692.841 137.554L692.25 136.748ZM694.068 114.124L693.361 114.831L694.068 114.124ZM678.312 106.448L678.016 107.403L678.026 107.406L678.312 106.448ZM669.828 103.822L670.124 102.867L670.111 102.863L669.828 103.822ZM650.436 92.51L649.7 93.1875L650.436 92.51ZM653.87 51.1L653.207 50.351L653.87 51.1ZM698.714 43.626L698.458 44.5927L698.474 44.5971L698.491 44.6009L698.714 43.626ZM712.248 48.676L713.246 48.7315L713.282 48.0929L712.717 47.7929L712.248 48.676ZM711.036 70.492V71.492H711.982L712.034 70.5475L711.036 70.492ZM709.016 70.492L708.145 70.9836L708.432 71.492H709.016V70.492ZM701.946 57.968L702.817 57.4764L702.812 57.469L701.946 57.968ZM694.27 48.676L693.656 49.4654L693.68 49.4841L693.705 49.5013L694.27 48.676ZM669.222 71.502L668.597 72.2829L668.605 72.2888L668.612 72.2946L669.222 71.502ZM684.574 78.976L684.252 79.9228L684.274 79.9303L684.296 79.9367L684.574 78.976ZM693.664 81.602L693.956 80.6456L693.949 80.6434L693.941 80.6413L693.664 81.602ZM714.47 93.924L713.687 94.5463L713.695 94.5561L714.47 93.924ZM709.016 136.142L708.411 135.345L708.405 135.35L709.016 136.142ZM676.494 144.03C669.975 144.03 664.152 143.232 659.012 141.65L658.424 143.562C663.788 145.212 669.815 146.03 676.494 146.03V144.03ZM658.989 141.644C653.796 140.179 649.011 138.317 644.632 136.061L643.716 137.839C648.225 140.162 653.136 142.071 658.446 143.568L658.989 141.644ZM645.174 136.958L645.376 112.92L643.376 112.904L643.174 136.942L645.174 136.958ZM644.376 113.912H646.396V111.912H644.376V113.912ZM645.526 113.405L652.394 125.525L654.134 124.539L647.266 112.419L645.526 113.405ZM652.388 125.514C655.392 130.977 658.706 135.141 662.35 137.945L663.57 136.359C660.211 133.776 657.061 129.86 654.14 124.55L652.388 125.514ZM662.384 137.97C666.226 140.673 671.019 141.99 676.696 141.99V139.99C671.33 139.99 666.966 138.748 663.535 136.334L662.384 137.97ZM676.696 141.99C683.3 141.99 688.711 140.545 692.836 137.558L691.663 135.938C687.978 138.607 683.02 139.99 676.696 139.99V141.99ZM692.841 137.554C697.128 134.411 699.31 130.211 699.31 125.032H697.31C697.31 129.549 695.452 133.16 691.658 135.942L692.841 137.554ZM699.31 125.032C699.31 120.355 697.812 116.454 694.775 113.417L693.361 114.831C695.979 117.45 697.31 120.821 697.31 125.032H699.31ZM694.775 113.417C691.761 110.403 686.303 107.788 678.598 105.49L678.026 107.406C685.672 109.687 690.718 112.189 693.361 114.831L694.775 113.417ZM678.607 105.493L670.123 102.867L669.532 104.777L678.016 107.403L678.607 105.493ZM670.111 102.863C662.03 100.478 655.737 96.7891 651.171 91.8325L649.7 93.1875C654.562 98.4655 661.197 102.318 669.545 104.781L670.111 102.863ZM651.171 91.8325C646.64 86.9125 644.366 80.8974 644.366 73.724H642.366C642.366 81.3639 644.805 87.8728 649.7 93.1875L651.171 91.8325ZM644.366 73.724C644.366 65.1389 647.732 57.865 654.532 51.849L653.207 50.351C646.003 56.7243 642.366 64.5331 642.366 73.724H644.366ZM654.532 51.849C661.291 45.8703 671.053 42.808 683.968 42.808V40.808C670.758 40.808 660.454 43.9403 653.207 50.351L654.532 51.849ZM683.968 42.808C689.143 42.808 693.971 43.4051 698.458 44.5927L698.97 42.6593C694.299 41.4229 689.297 40.808 683.968 40.808V42.808ZM698.491 44.6009C703.118 45.6584 707.546 47.3107 711.779 49.5591L712.717 47.7929C708.331 45.4626 703.737 43.7483 698.937 42.6511L698.491 44.6009ZM711.249 48.6205L710.037 70.4365L712.034 70.5475L713.246 48.7315L711.249 48.6205ZM711.036 69.492H709.016V71.492H711.036V69.492ZM709.887 70.0004L702.817 57.4764L701.075 58.4596L708.145 70.9836L709.887 70.0004ZM702.812 57.469C700.222 52.9696 697.573 49.7241 694.834 47.8507L693.705 49.5013C696.084 51.1292 698.552 54.0783 701.079 58.467L702.812 57.469ZM694.884 47.8866C692.205 45.8029 688.237 44.848 683.16 44.848V46.848C688.048 46.848 691.487 47.7785 693.656 49.4654L694.884 47.8866ZM683.16 44.848C678.383 44.848 673.889 46.1859 669.697 48.8412L670.767 50.5308C674.654 48.0688 678.779 46.848 683.16 46.848V44.848ZM669.697 48.8412C665.372 51.5799 663.172 55.532 663.172 60.594H665.172C665.172 56.2294 667.011 52.9094 670.767 50.5308L669.697 48.8412ZM663.172 60.594C663.172 65.4548 664.977 69.3866 668.597 72.2829L669.846 70.7211C666.734 68.2307 665.172 64.8906 665.172 60.594H663.172ZM668.612 72.2946C672.237 75.0829 677.47 77.6169 684.252 79.9228L684.896 78.0292C678.211 75.7564 673.209 73.3078 669.832 70.7094L668.612 72.2946ZM684.296 79.9367L693.386 82.5627L693.941 80.6413L684.851 78.0153L684.296 79.9367ZM693.372 82.5583C702.967 85.4902 709.688 89.5147 713.687 94.5462L715.253 93.3018C710.903 87.8293 703.753 83.6391 693.956 80.6456L693.372 82.5583ZM713.695 94.5561C717.709 99.4766 719.732 105.442 719.732 112.508H721.732C721.732 105.03 719.58 98.606 715.245 93.2919L713.695 94.5561ZM719.732 112.508C719.732 122.027 715.972 129.61 708.411 135.345L709.62 136.939C717.681 130.824 721.732 122.65 721.732 112.508H719.732ZM708.405 135.35C700.967 141.092 690.373 144.03 676.494 144.03V146.03C690.625 146.03 701.713 143.042 709.627 136.934L708.405 135.35Z" fill="#91B1B2" mask="url(#path-1-outside-1_131_2)"/>
</svg>
